<?xml version="1.0" encoding="UTF-8"?><svg xmlns="http://www.w3.org/2000/svg" viewBox="0 0 575.41 60.76"><defs><style>.d,.e{fill:#fff;}.e{stroke:#6abd45;stroke-linecap:round;stroke-linejoin:round;stroke-width:9px;}</style></defs><g id="a"/><g id="b"><g id="c"><g><g><path class="e" d="M5.42,25.63c-.05-1.56-.11-3.09-.18-4.6-.07-1.51-.15-2.76-.25-3.75-.1-.99-.18-1.95-.25-2.87s-.13-1.66-.18-2.23c-.05-.57-.07-1.11-.07-1.63s.02-.93,.07-1.24c.05-.31,.14-.6,.28-.89,.14-.28,.31-.52,.5-.71,.19-.19,.47-.38,.85-.57,5.76-.42,12.25-.4,19.48,.07,7.46,.52,11.83,4.63,13.1,12.33,.75,4.96,.04,9.22-2.16,12.79-2.2,3.57-5.49,5.58-9.88,6.06-1.09,.14-2.11,.17-3.08,.07-.97-.09-1.87-.26-2.69-.5-.83-.24-1.58-.51-2.27-.81-.69-.31-1.3-.63-1.84-.96-.54-.33-1.04-.62-1.49-.88-.45-.26-.84-.45-1.17-.57-.33-.12-.63-.14-.89-.07-.26,.07-.46,.27-.6,.6-.1,.33-.15,.63-.18,.89-.02,.26,.09,.52,.35,.78,.26,.26,.5,.48,.71,.67,.21,.19,.54,.38,.99,.57,.45,.19,.85,.35,1.2,.5,.35,.14,.8,.28,1.35,.42,.54,.14,.99,.26,1.35,.35,.35,.1,.78,.21,1.28,.35,.5,.14,.89,.24,1.17,.28,.71,.24,1.22,.65,1.52,1.24,.31,.59,.44,1.23,.39,1.91-.05,.68-.18,1.35-.39,1.98-.21,.64-.46,1.17-.74,1.59-.33,.52-1.75,.89-4.25,1.1-2.5,.21-5.03,.2-7.58-.04-2.55-.24-4.04-.66-4.46-1.28-.24-.33-.39-.79-.46-1.38-.07-.59-.07-1.37,0-2.34,.07-.97,.15-2.21,.25-3.72,.09-1.51,.18-3.37,.25-5.56,.07-2.2,.06-4.85-.04-7.97Zm16.29-1.35c.05,.57,.04,1.04-.04,1.42-.07,.38-.04,.7,.11,.96,.14,.26,.22,.45,.25,.57,.02,.12,.13,.21,.32,.28,.19,.07,.34,.12,.46,.14,.12,.02,.31,.04,.57,.04h.6c.38-.05,.7-.17,.96-.35,.26-.19,.45-.46,.57-.81,.12-.35,.2-.66,.25-.92,.05-.26,.05-.67,0-1.24-.05-.57-.1-.97-.14-1.2-.05-.24-.13-.66-.25-1.28-.12-.61-.18-.97-.18-1.06-.19-1.13-.54-1.89-1.06-2.27-.52-.38-1.3-.43-2.34-.14-.47,.14-.74,.35-.81,.64-.07,.28-.02,.61,.14,.99,.17,.38,.32,.97,.46,1.77,.14,.8,.19,1.63,.14,2.48Z"/><path class="e" d="M41.19,23.36c-1.04-2.36-1.5-4.21-1.38-5.56,.12-1.35,1.03-2.28,2.73-2.8,2.03-.61,3.77-1,5.21-1.17,1.44-.17,2.51-.17,3.22,0,.71,.17,1.26,.48,1.66,.96,.4,.47,.65,.91,.74,1.31,.09,.4,.14,.91,.14,1.52,0,.76-1.06,2.12-3.19,4.11-1.65,1.56-2.34,2.53-2.05,2.9,.09,.09,.26,.17,.5,.21,.42,.1,1.03-.2,1.81-.88s1.63-1.53,2.55-2.55c.92-1.01,1.9-2.02,2.94-3.01,1.04-.99,2.16-1.79,3.36-2.41,1.2-.61,2.33-.83,3.36-.64,1.37,.33,2.43,1.12,3.19,2.37,.75,1.25,1.13,2.62,1.13,4.11s-.37,2.93-1.1,4.32c-.73,1.39-1.76,2.35-3.08,2.87-.9,.38-1.83,.54-2.8,.5-.97-.05-1.87-.22-2.69-.53-.83-.31-1.65-.66-2.48-1.06-.83-.4-1.52-.77-2.09-1.1-.57-.33-1.1-.53-1.59-.6-.5-.07-.79,.04-.89,.32-.14,.19-.23,.38-.25,.57-.02,.19,.02,.39,.14,.6,.12,.21,.26,.42,.42,.64,.17,.21,.38,.42,.64,.64,.26,.21,.52,.41,.78,.6,.26,.19,.55,.39,.89,.6,.33,.21,.64,.4,.92,.57,.28,.17,.58,.34,.89,.53,.31,.19,.55,.33,.74,.43,1.04,.66,1.62,3.09,1.74,7.3,.12,4.2-.25,6.75-1.1,7.65-.52,.66-1.83,1.11-3.93,1.35-2.1,.24-4.14,.25-6.13,.04-1.98-.21-3.14-.62-3.47-1.24-.24-.42-.34-2.27-.32-5.53,.02-3.26-.02-6.72-.14-10.38-.12-3.66-.46-6.17-1.03-7.54Z"/><path class="e" d="M83.98,14.51c4.53,0,8.39,1.63,11.58,4.89s4.78,7.19,4.78,11.79-1.59,8.55-4.78,11.83c-3.19,3.28-7.05,4.92-11.58,4.92s-8.41-1.63-11.62-4.89c-3.21-3.26-4.82-7.2-4.82-11.83s1.6-8.57,4.82-11.83c3.21-3.26,7.08-4.89,11.62-4.89Zm-1.49,10.77c-.24,.09-.4,.19-.5,.28-.09,.09-.14,.26-.14,.5s.02,.48,.07,.74c.05,.26,.11,.72,.18,1.38s.11,1.37,.11,2.12c.05,1.13,.04,2.31-.04,3.54-.07,1.23-.11,2.09-.11,2.58s.09,.84,.28,1.03c.28,.33,.94,.48,1.98,.46,1.04-.02,1.63-.27,1.77-.74,.05-.52,.05-1.05,0-1.59-.05-.54-.12-1.44-.21-2.69-.09-1.25-.14-2.37-.14-3.36,.05-.8,.09-1.48,.14-2.02,.05-.54,.09-.87,.14-.99,.05-.12,.06-.21,.04-.28-.02-.07-.08-.2-.18-.39-.61-.85-1.75-1.04-3.4-.57Z"/><path class="e" d="M103.17,25.06c-.1-1.37-.01-2.27,.25-2.69,.26-.43,.81-.75,1.66-.99,1.75,.24,4.33,.17,7.76-.21,3.42-.38,5.35-.35,5.77,.07,.71,.28,1.06,.99,1.06,2.12s-.13,3-.39,5.6c-.26,2.6-.27,5.12-.04,7.58,.05,1.84,.12,3.67,.21,5.49,.09,1.82-.04,3.58-.39,5.28s-.87,3.2-1.56,4.5c-.69,1.3-1.74,2.35-3.15,3.15-1.42,.8-3.14,1.23-5.17,1.27-2.08,.09-3.86-.06-5.35-.46-1.49-.4-2.61-.96-3.36-1.67-.76-.71-1.37-1.51-1.84-2.41-.47-.9-.68-1.83-.64-2.8,.05-.97,.12-1.9,.21-2.8,.24-1.09,.65-1.89,1.24-2.41,.59-.52,1.37-.77,2.34-.74,.97,.02,1.95,.18,2.94,.46s2.17,.73,3.54,1.35c3.49,1.46,5.22,1.82,5.17,1.06,0-.38-.47-1.08-1.42-2.12-.66-.71-1.51-1.25-2.55-1.63-1.04-.38-1.95-.6-2.73-.67-.78-.07-1.42-.32-1.91-.74-.5-.42-.65-1.11-.46-2.05,.14-1.75,.15-3.29,.04-4.64-.12-1.35-.34-2.99-.67-4.92-.33-1.94-.52-3.26-.57-3.97Zm8.08-20.4c1.09,0,2.13,.18,3.12,.53s1.85,.81,2.59,1.38c.73,.57,1.31,1.26,1.74,2.09,.43,.83,.64,1.69,.64,2.58,0,1.8-.79,3.33-2.37,4.6-1.58,1.28-3.48,1.91-5.7,1.91s-4.12-.64-5.7-1.91c-1.58-1.27-2.37-2.81-2.37-4.6s.79-3.4,2.37-4.67c1.58-1.27,3.48-1.91,5.7-1.91Z"/><path class="e" d="M126.62,45.25c-1.84-.9-3.18-2.87-4-5.92-.83-3.05-1.15-6.17-.96-9.39,.19-3.21,.58-6.14,1.17-8.78,.59-2.64,1.24-4.06,1.95-4.25,.99-.66,2.3-1.2,3.93-1.63,1.63-.42,3.3-.71,5.03-.85,1.72-.14,3.51-.19,5.35-.14,1.84,.05,3.53,.15,5.06,.32,1.53,.17,2.84,.39,3.93,.67,1.7,.33,2.99,1.36,3.86,3.08,.87,1.72,1.26,3.61,1.17,5.67-.1,2.05-.54,3.88-1.35,5.49-.57,1.13-1.49,2.04-2.76,2.73-1.27,.68-2.61,1.11-4,1.27-1.39,.17-2.83,.3-4.32,.39-1.49,.1-2.75,.07-3.79-.07h-1.2c-.9-.09-1.72-.13-2.48-.11-.76,.02-1.41,.09-1.95,.21-.54,.12-.93,.38-1.17,.78-.24,.4-.24,.93,0,1.59,.52,1.42,2.89,2.13,7.12,2.13s7.43-.61,9.6-1.84c1.42-.8,2.61-1.13,3.58-.99,.97,.14,1.58,.76,1.84,1.84,.26,1.09,.06,2.69-.6,4.82-.66,1.98-2.5,3.45-5.53,4.39-3.02,.95-6.36,1.26-10.02,.96-3.66-.31-6.81-1.1-9.46-2.37Zm8.71-22.53c-.76,0-1.44,.19-2.05,.57-.61,.38-1.07,.83-1.38,1.35-.31,.52-.57,1.05-.78,1.59-.21,.54-.37,1-.46,1.38l-.07,.57c.19-.24,.46-.44,.81-.6,.35-.17,.71-.27,1.06-.32,.35-.05,.89-.12,1.59-.21,.71-.09,1.32-.19,1.84-.28,.85-.09,1.5-.48,1.95-1.17,.45-.68,.46-1.33,.04-1.95-.43-.61-1.28-.92-2.55-.92Z"/><path class="e" d="M158.14,44.82c-1.42-1.23-2.38-3.35-2.9-6.38-.52-3.02-.65-6.07-.39-9.14,.26-3.07,.72-5.89,1.38-8.46,.66-2.57,1.37-4.17,2.13-4.78,1.27-.99,3.08-1.74,5.42-2.23,2.34-.5,4.66-.72,6.98-.67,2.31,.05,4.5,.26,6.55,.64s3.51,.87,4.36,1.49c.8,.52,1.39,1.29,1.77,2.3,.38,1.02,.54,2.3,.5,3.86-.05,1.56-.12,2.73-.21,3.51-.1,.78-.26,1.92-.5,3.44-.19,1.23-1.1,2.31-2.73,3.26-1.63,.95-3.44,1.52-5.42,1.74-1.98,.21-3.9,.08-5.74-.39-1.13-.38-1.88-.92-2.23-1.63-.35-.71-.41-1.4-.18-2.09,.24-.68,.37-1.39,.39-2.12,.02-.73-.15-1.33-.53-1.81-.66-.61-1.39-.26-2.2,1.06-1.09,1.8-1.27,3.64-.57,5.53,.57,1.61,1.75,2.72,3.54,3.33,1.65,.66,3.28,.93,4.89,.82,1.6-.12,2.92-.38,3.93-.78,1.01-.4,2.08-.84,3.19-1.31,1.11-.47,1.97-.71,2.59-.71,.94-.05,1.55,.65,1.81,2.09,.26,1.44,.19,3.08-.21,4.92-.4,1.84-1,3.33-1.81,4.46-.85,1.23-2.77,2.19-5.77,2.87-3,.68-6.27,.83-9.81,.42-3.54-.4-6.28-1.48-8.22-3.22Z"/><path class="e" d="M191.22,16.77c.19-.42,.28-1.58,.28-3.47s.09-3.65,.28-5.28c.19-1.63,.66-2.51,1.42-2.66,1.23-.33,2.96-.48,5.21-.46,2.24,.02,3.51,.37,3.79,1.03,.19,.66,.26,1.68,.21,3.05-.05,1.37-.17,2.74-.35,4.11l-.28,2.05c.09-.05,.2-.07,.32-.07s.34-.02,.67-.07c.33-.05,.67-.08,1.03-.11,.35-.02,.74-.04,1.17-.04s.83,.05,1.2,.14c.38,.05,.67,.26,.89,.64s.35,.84,.43,1.38c.07,.54,.12,1.16,.14,1.84,.02,.69,.02,1.36,0,2.02-.02,.66-.01,1.28,.04,1.84,.05,.85-.17,1.45-.64,1.81-.47,.35-1.13,.66-1.98,.92-.85,.26-1.49,.6-1.91,1.03-.57,.61-1.02,1.88-1.35,3.79-.33,1.91-.24,3.41,.28,4.5,.28,.24,.6,.33,.96,.28,.35-.05,.84-.17,1.45-.35,.61-.19,.99-.28,1.13-.28,.33,0,.6,.09,.81,.28,.21,.19,.38,.46,.5,.81,.12,.35,.22,.7,.32,1.03,.09,.33,.14,.81,.14,1.45v5.42c0,1.46-.83,2.55-2.48,3.26-1.65,.71-3.52,1.04-5.6,.99-2.08-.05-4.04-.33-5.88-.85-.52-.14-.99-.4-1.42-.78-.42-.38-.77-.87-1.03-1.49-.26-.61-.47-1.22-.64-1.81-.17-.59-.27-1.32-.32-2.2-.05-.87-.08-1.6-.11-2.2-.02-.59,0-1.36,.07-2.3,.07-.94,.12-1.63,.14-2.05,.02-.43,.08-1.05,.18-1.88,.09-.83,.14-1.26,.14-1.31,.05-.71,.45-1.22,1.2-1.52,.75-.31,1.56-.46,2.41-.46s1.56-.12,2.12-.35c.57-.24,.73-.64,.5-1.2-.14-.61-.7-.9-1.66-.85-.97,.05-1.97,.22-3.01,.53-1.04,.31-2.1,.58-3.19,.81-1.09,.24-1.82,.26-2.2,.07-.76-.38-1.16-1.33-1.2-2.87-.05-1.53,.09-3.06,.43-4.57,.05-.14,.07-.24,.07-.28s.01-.12,.04-.21c.02-.09,.04-.19,.04-.28,.09-.75,.39-1.29,.89-1.59,.5-.31,1.02-.46,1.56-.46s1.1-.05,1.66-.14c.57-.09,.94-.31,1.13-.64Z"/><path class="e" d="M229.83,20.81c-1.51-3.21-2.34-5.96-2.48-8.25-.14-2.29,.5-3.95,1.91-4.99,8.08-1.09,13.22-1.2,15.44-.35,2.27,.95,2.38,7.18,.35,18.7-.24,1.18-.52,2.31-.85,3.4-.33,1.09-.63,1.91-.89,2.48-.26,.57-.46,1.1-.6,1.59s-.18,.89-.11,1.17,.27,.54,.6,.78c.33,.24,.89-.09,1.67-.99,.78-.9,1.6-2.21,2.48-3.93,.87-1.72,1.5-3.46,1.88-5.21,.52-2.31,.73-4.62,.64-6.91-.1-2.29-.14-4.54-.14-6.76s.21-3.66,.64-4.32c.52-.71,1.96-1.09,4.32-1.13,2.36-.05,4.69,.12,6.98,.5,2.29,.38,3.67,.8,4.14,1.28,.23,.24,.37,.54,.39,.92s-.06,.88-.25,1.52-.42,1.31-.71,2.02c-.29,.71-.65,1.7-1.1,2.98s-.84,2.53-1.17,3.75c-.71,2.46-1.69,7.38-2.94,14.77-1.25,7.39-2.11,11.68-2.59,12.86-.42,1.13-2.12,1.99-5.1,2.58-2.98,.59-5.96,.73-8.96,.43-3-.31-4.73-1-5.21-2.09-.42-.9-1.65-4.99-3.68-12.29-2.03-7.3-3.59-12.12-4.67-14.49Z"/><path class="e" d="M282.81,11.25c0,1.8-.79,3.33-2.37,4.6-1.58,1.28-3.48,1.91-5.7,1.91s-4.12-.64-5.7-1.91c-1.58-1.27-2.37-2.81-2.37-4.6s.79-3.4,2.37-4.67c1.58-1.27,3.49-1.91,5.74-1.91s4.14,.64,5.7,1.91c1.56,1.28,2.34,2.83,2.34,4.67Zm-14.66,20.4c-.05-1.37-.18-2.67-.39-3.9-.21-1.23-.4-2.15-.57-2.76-.17-.61-.31-1.19-.42-1.74-.12-.54-.12-.93,0-1.17,.12-.24,.34-.44,.67-.6,.33-.17,.87-.34,1.63-.53,4.06-.52,6.94-.67,8.64-.46,1.7,.21,3.07,.74,4.11,1.59,.28,.28,.46,.45,.53,.5,.07,.05,.14,.15,.21,.32,.07,.17,.07,.29,0,.39-.07,.09-.14,.32-.21,.67-.07,.35-.17,.74-.28,1.17-.12,.42-.24,1.06-.35,1.91-.12,.85-.2,1.82-.25,2.9-.09,2.22,.04,4.65,.39,7.3,.35,2.65,.65,4.53,.89,5.67,.24,1.13,.21,2.29-.07,3.47-.33,.61-1.52,1.06-3.58,1.35-2.05,.28-4.17,.34-6.34,.18-2.17-.17-3.59-.48-4.25-.96-.47-.28-.76-.85-.85-1.7-.09-.85-.07-1.81,.07-2.87s.27-2.61,.39-4.64c.12-2.03,.13-4.06,.04-6.09Z"/><path class="e" d="M285.22,23.36c-1.04-2.36-1.5-4.21-1.38-5.56,.12-1.35,1.03-2.28,2.73-2.8,2.03-.61,3.76-1,5.21-1.17,1.44-.17,2.51-.17,3.22,0,.71,.17,1.26,.48,1.66,.96,.4,.47,.65,.91,.74,1.31,.09,.4,.14,.91,.14,1.52,0,.76-1.06,2.12-3.19,4.11-1.65,1.56-2.34,2.53-2.05,2.9,.09,.09,.26,.17,.5,.21,.42,.1,1.03-.2,1.81-.88s1.63-1.53,2.55-2.55c.92-1.01,1.9-2.02,2.94-3.01,1.04-.99,2.16-1.79,3.37-2.41,1.2-.61,2.33-.83,3.36-.64,1.37,.33,2.43,1.12,3.19,2.37,.75,1.25,1.13,2.62,1.13,4.11s-.37,2.93-1.1,4.32c-.73,1.39-1.76,2.35-3.08,2.87-.9,.38-1.83,.54-2.8,.5-.97-.05-1.87-.22-2.69-.53-.83-.31-1.65-.66-2.48-1.06-.83-.4-1.52-.77-2.09-1.1s-1.1-.53-1.59-.6c-.5-.07-.79,.04-.89,.32-.14,.19-.22,.38-.25,.57-.02,.19,.02,.39,.14,.6,.12,.21,.26,.42,.43,.64,.17,.21,.38,.42,.64,.64,.26,.21,.52,.41,.78,.6,.26,.19,.55,.39,.89,.6,.33,.21,.64,.4,.92,.57,.28,.17,.58,.34,.89,.53,.31,.19,.55,.33,.74,.43,1.04,.66,1.62,3.09,1.74,7.3,.12,4.2-.25,6.75-1.1,7.65-.52,.66-1.83,1.11-3.93,1.35s-4.14,.25-6.13,.04c-1.98-.21-3.14-.62-3.47-1.24-.24-.42-.34-2.27-.32-5.53,.02-3.26-.02-6.72-.14-10.38-.12-3.66-.46-6.17-1.03-7.54Z"/><path class="e" d="M317.17,16.77c.19-.42,.28-1.58,.28-3.47s.09-3.65,.28-5.28c.19-1.63,.66-2.51,1.42-2.66,1.23-.33,2.96-.48,5.21-.46,2.24,.02,3.51,.37,3.79,1.03,.19,.66,.26,1.68,.21,3.05-.05,1.37-.17,2.74-.35,4.11l-.28,2.05c.09-.05,.2-.07,.32-.07s.34-.02,.67-.07c.33-.05,.67-.08,1.03-.11,.35-.02,.74-.04,1.17-.04s.83,.05,1.2,.14c.38,.05,.67,.26,.89,.64,.21,.38,.35,.84,.42,1.38,.07,.54,.12,1.16,.14,1.84,.02,.69,.02,1.36,0,2.02-.02,.66-.01,1.28,.04,1.84,.05,.85-.17,1.45-.64,1.81-.47,.35-1.13,.66-1.98,.92-.85,.26-1.49,.6-1.91,1.03-.57,.61-1.02,1.88-1.35,3.79-.33,1.91-.24,3.41,.28,4.5,.28,.24,.6,.33,.96,.28,.35-.05,.84-.17,1.45-.35,.61-.19,.99-.28,1.13-.28,.33,0,.6,.09,.81,.28,.21,.19,.38,.46,.5,.81,.12,.35,.22,.7,.32,1.03,.09,.33,.14,.81,.14,1.45v5.42c0,1.46-.83,2.55-2.48,3.26-1.65,.71-3.52,1.04-5.6,.99-2.08-.05-4.04-.33-5.88-.85-.52-.14-.99-.4-1.42-.78-.43-.38-.77-.87-1.03-1.49-.26-.61-.47-1.22-.64-1.81-.17-.59-.27-1.32-.32-2.2-.05-.87-.08-1.6-.11-2.2-.02-.59,0-1.36,.07-2.3,.07-.94,.12-1.63,.14-2.05,.02-.43,.08-1.05,.18-1.88,.09-.83,.14-1.26,.14-1.31,.05-.71,.45-1.22,1.2-1.52,.75-.31,1.56-.46,2.41-.46s1.56-.12,2.12-.35,.73-.64,.5-1.2c-.14-.61-.7-.9-1.67-.85-.97,.05-1.97,.22-3.01,.53-1.04,.31-2.1,.58-3.19,.81-1.09,.24-1.82,.26-2.2,.07-.76-.38-1.16-1.33-1.2-2.87-.05-1.53,.09-3.06,.42-4.57,.05-.14,.07-.24,.07-.28s.01-.12,.04-.21c.02-.09,.04-.19,.04-.28,.09-.75,.39-1.29,.89-1.59,.5-.31,1.01-.46,1.56-.46s1.1-.05,1.67-.14c.57-.09,.94-.31,1.13-.64Z"/><path class="e" d="M336.36,37.03c.09-1.04,.08-2.81-.04-5.31-.12-2.5-.25-4.89-.39-7.16-.14-2.27-.19-4.34-.14-6.23,.05-1.89,.26-2.9,.64-3.05,1.13-.57,3.28-.87,6.45-.92,3.16-.05,4.84,.07,5.03,.35,.09,.09,.15,.24,.18,.42,.02,.19,0,.54-.07,1.06-.07,.52-.14,1.12-.21,1.81-.07,.68-.17,1.71-.28,3.08-.12,1.37-.22,2.83-.32,4.39-.24,6.09,.5,9.71,2.2,10.84,.71,.47,1.46,.4,2.27-.21,.66-.47,1.05-1.76,1.17-3.86,.12-2.1,.06-4.3-.18-6.59-.24-2.29-.4-4.46-.5-6.52-.09-2.05-.05-3.29,.14-3.72,.33-.52,1.07-.83,2.23-.92,1.16-.09,2.7-.05,4.64,.14,1.94,.19,3.16,.28,3.68,.28,1.42,0,2.24,.24,2.48,.71,.24,.47,.28,1.96,.14,4.46-.05,.8-.09,1.44-.14,1.91-.1,1.94-.08,4.76,.04,8.46,.12,3.71,.24,7.03,.35,9.95,.12,2.93,.13,4.63,.04,5.1-.14,.76-1.27,1.24-3.4,1.45-2.12,.21-4.06,.2-5.81-.04-.8-.09-1.26-.38-1.38-.85-.12-.47-.01-1.04,.32-1.7,.33-.66,.59-1.37,.78-2.12,.19-.75,.19-1.44,0-2.05-.33-.71-.73-.64-1.2,.21-.05,.19-.17,.47-.35,.85-1.37,2.83-2.81,4.6-4.32,5.31-.66,.28-1.32,.42-1.98,.42-1.37,.05-2.54,.04-3.51-.04-.97-.07-2.07-.28-3.29-.64-1.23-.35-2.21-.87-2.94-1.56-.73-.68-1.33-1.68-1.81-2.98-.47-1.3-.64-2.89-.5-4.78Z"/><path class="e" d="M369.87,26.76c-.66-.42-.84-2.24-.53-5.45,.31-3.21,.79-4.79,1.45-4.75,1.98-1.65,4.88-2.7,8.68-3.15,3.8-.45,7.28-.35,10.45,.28s5.03,1.55,5.6,2.73c.42,.76,.72,2.56,.88,5.42,.17,2.86,.25,5.64,.25,8.36s-.04,5.73-.11,9.03c-.07,3.31-.11,5.12-.11,5.46,0,.61-.13,1.11-.39,1.49-.26,.38-.59,.64-.99,.78s-.88,.22-1.45,.25c-.57,.02-1.1,0-1.59-.07-.5-.07-1.02-.14-1.56-.21-.54-.07-.96-.11-1.24-.11-.99,.05-1.64-.31-1.95-1.06-.31-.75-.34-1.61-.11-2.55,.24-.94,.37-1.83,.39-2.66,.02-.83-.15-1.29-.53-1.38-.38-.09-.66,.13-.85,.67-.19,.54-.3,1.18-.32,1.91-.02,.73-.18,1.52-.46,2.37-.28,.85-.71,1.46-1.28,1.84-1.27,.9-3.75,1.38-7.44,1.45-3.68,.07-6.07-.41-7.15-1.45-.61-.75-1.05-2.34-1.31-4.75-.26-2.41-.18-4.77,.25-7.08,.42-2.31,1.13-3.66,2.12-4.04,1.13-.33,3.17-.52,6.13-.57,2.95-.05,5.02-.26,6.2-.64,1.13-.33,1.96-1.07,2.48-2.23,.52-1.16,.73-2.37,.64-3.65-.1-1.28-.38-2.38-.85-3.33-.47-.9-.78-1.06-.92-.5-.05,.14-.12,.52-.21,1.13-.28,2.08-.69,3.68-1.2,4.82-.57,1.09-1.84,1.81-3.83,2.16s-3.87,.42-5.67,.21c-1.8-.21-2.95-.46-3.47-.74Zm10.98,11.26c.47-.05,.92-.25,1.35-.6,.42-.35,.78-.78,1.06-1.28s.53-.99,.74-1.49c.21-.5,.37-.91,.46-1.24l.14-.5c-.28,.42-.53,.72-.74,.88-.21,.17-.57,.35-1.06,.57-.5,.21-1.19,.39-2.09,.53-.85,.14-1.42,.47-1.7,.99-.28,.52-.24,1,.14,1.45,.38,.45,.94,.67,1.7,.67Z"/><path class="e" d="M399.48,14.29c-.28-2.08-.46-3.72-.53-4.92-.07-1.2,.02-2.1,.28-2.69,.26-.59,.52-.96,.78-1.1,.26-.14,.72-.31,1.38-.5,.71-.28,1.61-.46,2.69-.53,1.08-.07,2.2-.07,3.33,0,1.13,.07,2.11,.15,2.94,.25,.83,.1,1.55,.21,2.16,.35,.99,.1,1.51,.61,1.56,1.56,.05,.95-.28,2.79-.99,5.53-.66,2.74-1.15,6.12-1.45,10.13-.31,4.01-.32,6.87-.04,8.57,.14,.76,.41,1.3,.81,1.63,.4,.33,.83,.47,1.27,.42,.45-.05,.91,.02,1.38,.21,.47,.19,.8,.54,.99,1.06,.28,.61,.52,1.51,.71,2.69,.19,1.18,.28,2.43,.28,3.75s-.19,2.56-.57,3.72c-.38,1.16-.97,1.95-1.77,2.37-.8,.47-1.96,.76-3.47,.85-1.51,.1-3.05,0-4.6-.28s-2.99-.83-4.29-1.63c-1.3-.8-2.11-1.79-2.44-2.98-.47-1.75-.57-6.07-.28-12.96,.28-6.89,.24-12.07-.14-15.51Z"/><path class="e" d="M438.3,25.63c-.05-1.56-.11-3.09-.18-4.6-.07-1.51-.15-2.76-.25-3.75-.1-.99-.18-1.95-.25-2.87s-.13-1.66-.18-2.23c-.05-.57-.07-1.11-.07-1.63s.02-.93,.07-1.24c.05-.31,.14-.6,.28-.89s.31-.52,.5-.71c.19-.19,.47-.38,.85-.57,5.76-.42,12.25-.4,19.48,.07,7.46,.52,11.83,4.63,13.1,12.33,.75,4.96,.04,9.22-2.16,12.79-2.2,3.57-5.49,5.58-9.88,6.06-1.09,.14-2.11,.17-3.08,.07s-1.87-.26-2.69-.5c-.83-.24-1.58-.51-2.27-.81-.69-.31-1.3-.63-1.84-.96-.54-.33-1.04-.62-1.49-.88-.45-.26-.84-.45-1.17-.57-.33-.12-.63-.14-.89-.07-.26,.07-.46,.27-.6,.6-.09,.33-.15,.63-.18,.89-.02,.26,.09,.52,.35,.78,.26,.26,.5,.48,.71,.67,.21,.19,.54,.38,.99,.57,.45,.19,.85,.35,1.2,.5,.35,.14,.8,.28,1.35,.42,.54,.14,.99,.26,1.35,.35,.35,.1,.78,.21,1.28,.35s.89,.24,1.17,.28c.71,.24,1.21,.65,1.52,1.24,.31,.59,.44,1.23,.39,1.91-.05,.68-.18,1.35-.39,1.98-.21,.64-.46,1.17-.74,1.59-.33,.52-1.75,.89-4.25,1.1-2.5,.21-5.03,.2-7.58-.04s-4.04-.66-4.46-1.28c-.24-.33-.39-.79-.46-1.38-.07-.59-.07-1.37,0-2.34,.07-.97,.15-2.21,.25-3.72,.09-1.51,.18-3.37,.25-5.56,.07-2.2,.06-4.85-.04-7.97Zm16.29-1.35c.05,.57,.04,1.04-.04,1.42-.07,.38-.04,.7,.11,.96,.14,.26,.22,.45,.25,.57,.02,.12,.13,.21,.32,.28,.19,.07,.34,.12,.46,.14,.12,.02,.31,.04,.57,.04h.6c.38-.05,.7-.17,.96-.35,.26-.19,.45-.46,.57-.81,.12-.35,.2-.66,.25-.92,.05-.26,.05-.67,0-1.24-.05-.57-.09-.97-.14-1.2-.05-.24-.13-.66-.25-1.28-.12-.61-.18-.97-.18-1.06-.19-1.13-.54-1.89-1.06-2.27-.52-.38-1.3-.43-2.34-.14-.47,.14-.74,.35-.81,.64-.07,.28-.02,.61,.14,.99,.17,.38,.32,.97,.46,1.77,.14,.8,.19,1.63,.14,2.48Z"/><path class="e" d="M489.01,14.51c4.53,0,8.39,1.63,11.58,4.89,3.19,3.26,4.78,7.19,4.78,11.79s-1.59,8.55-4.78,11.83c-3.19,3.28-7.05,4.92-11.58,4.92s-8.41-1.63-11.62-4.89c-3.21-3.26-4.82-7.2-4.82-11.83s1.61-8.57,4.82-11.83c3.21-3.26,7.08-4.89,11.62-4.89Zm-1.49,10.77c-.24,.09-.4,.19-.5,.28-.1,.09-.14,.26-.14,.5s.02,.48,.07,.74c.05,.26,.11,.72,.18,1.38,.07,.66,.11,1.37,.11,2.12,.05,1.13,.04,2.31-.04,3.54-.07,1.23-.11,2.09-.11,2.58s.09,.84,.28,1.03c.28,.33,.94,.48,1.98,.46s1.63-.27,1.77-.74c.05-.52,.05-1.05,0-1.59-.05-.54-.12-1.44-.21-2.69-.09-1.25-.14-2.37-.14-3.36,.05-.8,.09-1.48,.14-2.02s.09-.87,.14-.99c.05-.12,.06-.21,.04-.28-.02-.07-.08-.2-.18-.39-.61-.85-1.75-1.04-3.4-.57Z"/><path class="e" d="M507.93,24.35c-.1-.33-.25-.79-.46-1.38-.21-.59-.38-1.04-.5-1.35-.12-.31-.26-.71-.43-1.2-.17-.5-.27-.9-.32-1.2-.05-.31-.1-.66-.14-1.06-.05-.4-.04-.73,.04-.99,.07-.26,.17-.53,.28-.81,.12-.28,.31-.53,.57-.74,.26-.21,.55-.39,.88-.53,3.35-.47,5.83-.66,7.44-.57,1.6,.1,2.42,.37,2.44,.81,.02,.45-.01,.93-.11,1.45,0,.05-.02,.1-.07,.14-.1,.28-.32,.69-.67,1.2-.35,.52-.71,1.02-1.06,1.49-.35,.47-.7,.98-1.03,1.52-.33,.54-.51,.96-.53,1.24-.02,.28,.11,.52,.39,.71,.38,.1,.85-.18,1.42-.81,.57-.64,1.17-1.39,1.81-2.27s1.58-1.75,2.83-2.62c1.25-.87,2.66-1.45,4.21-1.74,3.4-.71,6.35-.8,8.85-.28,2.5,.52,3.83,1.72,3.97,3.61,0,.42,.07,1.82,.21,4.18s.26,4.53,.35,6.52c.09,1.98,.21,4.36,.35,7.12s.21,4.75,.21,5.95-.05,2.21-.14,3.01c-.38,1.42-3.45,1.89-9.21,1.42-.52-.05-.96-.11-1.31-.18-.35-.07-.67-.14-.96-.21-.28-.07-.5-.22-.64-.46-.14-.24-.26-.41-.35-.53-.1-.12-.14-.39-.14-.81v-1.03c0-.26,.02-.73,.07-1.42,.05-.68,.07-1.26,.07-1.74,.09-2.97-.08-5.74-.53-8.29-.45-2.55-1.22-4.23-2.3-5.03-1.23-.85-2.29-1.09-3.19-.71-.9,.38-.68,1.18,.64,2.41,.09,.1,.21,.21,.35,.35,.8,.66,1.38,1.9,1.74,3.72,.35,1.82,.52,3.67,.5,5.56-.02,1.89-.14,3.62-.35,5.21s-.44,2.51-.67,2.8c-.28,.42-1.52,.71-3.72,.85-2.2,.14-4.44,.05-6.73-.28-2.29-.33-3.67-.85-4.14-1.56-.42-.66-.53-2.56-.32-5.7,.21-3.14,.45-6.09,.71-8.85,.26-2.76,.15-5.06-.32-6.91Z"/><path class="e" d="M568.42,5.16c.85,.43,1.49,2.79,1.91,7.08,.42,4.3,.61,8.93,.57,13.88-.05,4.96-.3,9.53-.74,13.71-.45,4.18-1.03,6.36-1.74,6.55-.85,.19-2.03,.41-3.54,.67-1.51,.26-3.47,.5-5.88,.71-2.41,.21-4.66,.26-6.76,.14-2.1-.12-4.05-.54-5.84-1.27-1.8-.73-2.98-1.81-3.54-3.22-1.46-3.78-2.03-8.68-1.7-14.7,.33-6.02,1.28-10.05,2.83-12.08,.94-1.27,2.57-1.99,4.89-2.16,2.31-.17,4.59,.2,6.83,1.1,2.24,.9,3.72,2.12,4.43,3.68,.66,1.32,1,2.72,1.03,4.18,.02,1.46,.04,2.51,.04,3.15s.31,.96,.92,.96c1.04-.05,1.53-1.26,1.49-3.65-.05-2.38-.54-4.57-1.49-6.55-.52-1.09-1.39-1.95-2.62-2.59-1.23-.64-2.37-1.16-3.44-1.56-1.06-.4-1.69-.89-1.88-1.45-.42-1.13-.51-2.43-.25-3.9,.26-1.46,.84-2.36,1.74-2.69,.99-.38,3.02-.58,6.09-.6,3.07-.02,5.29,.18,6.66,.6Zm-11.33,33.15c-.24-.14-.5-.38-.78-.71-.28-.33-.61-1.12-.99-2.37-.38-1.25-.45-2.61-.21-4.07,.66-3.54,.4-5.69-.78-6.45-.52-.24-1.09-.12-1.7,.35-1.04,.9-1.42,2.86-1.13,5.88,.28,3.02,.85,5.03,1.7,6.02,.28,.38,.61,.67,.99,.89,.38,.21,.73,.35,1.06,.42,.33,.07,.64,.11,.92,.11h.64l.28-.07Z"/></g><g><path class="d" d="M5.42,25.63c-.05-1.56-.11-3.09-.18-4.6-.07-1.51-.15-2.76-.25-3.75-.1-.99-.18-1.95-.25-2.87s-.13-1.66-.18-2.23c-.05-.57-.07-1.11-.07-1.63s.02-.93,.07-1.24c.05-.31,.14-.6,.28-.89,.14-.28,.31-.52,.5-.71,.19-.19,.47-.38,.85-.57,5.76-.42,12.25-.4,19.48,.07,7.46,.52,11.83,4.63,13.1,12.33,.75,4.96,.04,9.22-2.16,12.79-2.2,3.57-5.49,5.58-9.88,6.06-1.09,.14-2.11,.17-3.08,.07-.97-.09-1.87-.26-2.69-.5-.83-.24-1.58-.51-2.27-.81-.69-.31-1.3-.63-1.84-.96-.54-.33-1.04-.62-1.49-.88-.45-.26-.84-.45-1.17-.57-.33-.12-.63-.14-.89-.07-.26,.07-.46,.27-.6,.6-.1,.33-.15,.63-.18,.89-.02,.26,.09,.52,.35,.78,.26,.26,.5,.48,.71,.67,.21,.19,.54,.38,.99,.57,.45,.19,.85,.35,1.2,.5,.35,.14,.8,.28,1.35,.42,.54,.14,.99,.26,1.35,.35,.35,.1,.78,.21,1.28,.35,.5,.14,.89,.24,1.17,.28,.71,.24,1.22,.65,1.52,1.24,.31,.59,.44,1.23,.39,1.91-.05,.68-.18,1.35-.39,1.98-.21,.64-.46,1.17-.74,1.59-.33,.52-1.75,.89-4.25,1.1-2.5,.21-5.03,.2-7.58-.04-2.55-.24-4.04-.66-4.46-1.28-.24-.33-.39-.79-.46-1.38-.07-.59-.07-1.37,0-2.34,.07-.97,.15-2.21,.25-3.72,.09-1.51,.18-3.37,.25-5.56,.07-2.2,.06-4.85-.04-7.97Zm16.29-1.35c.05,.57,.04,1.04-.04,1.42-.07,.38-.04,.7,.11,.96,.14,.26,.22,.45,.25,.57,.02,.12,.13,.21,.32,.28,.19,.07,.34,.12,.46,.14,.12,.02,.31,.04,.57,.04h.6c.38-.05,.7-.17,.96-.35,.26-.19,.45-.46,.57-.81,.12-.35,.2-.66,.25-.92,.05-.26,.05-.67,0-1.24-.05-.57-.1-.97-.14-1.2-.05-.24-.13-.66-.25-1.28-.12-.61-.18-.97-.18-1.06-.19-1.13-.54-1.89-1.06-2.27-.52-.38-1.3-.43-2.34-.14-.47,.14-.74,.35-.81,.64-.07,.28-.02,.61,.14,.99,.17,.38,.32,.97,.46,1.77,.14,.8,.19,1.63,.14,2.48Z"/><path class="d" d="M41.19,23.36c-1.04-2.36-1.5-4.21-1.38-5.56,.12-1.35,1.03-2.28,2.73-2.8,2.03-.61,3.77-1,5.21-1.17,1.44-.17,2.51-.17,3.22,0,.71,.17,1.26,.48,1.66,.96,.4,.47,.65,.91,.74,1.31,.09,.4,.14,.91,.14,1.52,0,.76-1.06,2.12-3.19,4.11-1.65,1.56-2.34,2.53-2.05,2.9,.09,.09,.26,.17,.5,.21,.42,.1,1.03-.2,1.81-.88s1.63-1.53,2.55-2.55c.92-1.01,1.9-2.02,2.94-3.01,1.04-.99,2.16-1.79,3.36-2.41,1.2-.61,2.33-.83,3.36-.64,1.37,.33,2.43,1.12,3.19,2.37,.75,1.25,1.13,2.62,1.13,4.11s-.37,2.93-1.1,4.32c-.73,1.39-1.76,2.35-3.08,2.87-.9,.38-1.83,.54-2.8,.5-.97-.05-1.87-.22-2.69-.53-.83-.31-1.65-.66-2.48-1.06-.83-.4-1.52-.77-2.09-1.1-.57-.33-1.1-.53-1.59-.6-.5-.07-.79,.04-.89,.32-.14,.19-.23,.38-.25,.57-.02,.19,.02,.39,.14,.6,.12,.21,.26,.42,.42,.64,.17,.21,.38,.42,.64,.64,.26,.21,.52,.41,.78,.6,.26,.19,.55,.39,.89,.6,.33,.21,.64,.4,.92,.57,.28,.17,.58,.34,.89,.53,.31,.19,.55,.33,.74,.43,1.04,.66,1.62,3.09,1.74,7.3,.12,4.2-.25,6.75-1.1,7.65-.52,.66-1.83,1.11-3.93,1.35-2.1,.24-4.14,.25-6.13,.04-1.98-.21-3.14-.62-3.47-1.24-.24-.42-.34-2.27-.32-5.53,.02-3.26-.02-6.72-.14-10.38-.12-3.66-.46-6.17-1.03-7.54Z"/><path class="d" d="M83.98,14.51c4.53,0,8.39,1.63,11.58,4.89s4.78,7.19,4.78,11.79-1.59,8.55-4.78,11.83c-3.19,3.28-7.05,4.92-11.58,4.92s-8.41-1.63-11.62-4.89c-3.21-3.26-4.82-7.2-4.82-11.83s1.6-8.57,4.82-11.83c3.21-3.26,7.08-4.89,11.62-4.89Zm-1.49,10.77c-.24,.09-.4,.19-.5,.28-.09,.09-.14,.26-.14,.5s.02,.48,.07,.74c.05,.26,.11,.72,.18,1.38s.11,1.37,.11,2.12c.05,1.13,.04,2.31-.04,3.54-.07,1.23-.11,2.09-.11,2.58s.09,.84,.28,1.03c.28,.33,.94,.48,1.98,.46,1.04-.02,1.63-.27,1.77-.74,.05-.52,.05-1.05,0-1.59-.05-.54-.12-1.44-.21-2.69-.09-1.25-.14-2.37-.14-3.36,.05-.8,.09-1.48,.14-2.02,.05-.54,.09-.87,.14-.99,.05-.12,.06-.21,.04-.28-.02-.07-.08-.2-.18-.39-.61-.85-1.75-1.04-3.4-.57Z"/><path class="d" d="M103.17,25.06c-.1-1.37-.01-2.27,.25-2.69,.26-.43,.81-.75,1.66-.99,1.75,.24,4.33,.17,7.76-.21,3.42-.38,5.35-.35,5.77,.07,.71,.28,1.06,.99,1.06,2.12s-.13,3-.39,5.6c-.26,2.6-.27,5.12-.04,7.58,.05,1.84,.12,3.67,.21,5.49,.09,1.82-.04,3.58-.39,5.28s-.87,3.2-1.56,4.5c-.69,1.3-1.74,2.35-3.15,3.15-1.42,.8-3.14,1.23-5.17,1.27-2.08,.09-3.86-.06-5.35-.46-1.49-.4-2.61-.96-3.36-1.67-.76-.71-1.37-1.51-1.84-2.41-.47-.9-.68-1.83-.64-2.8,.05-.97,.12-1.9,.21-2.8,.24-1.09,.65-1.89,1.24-2.41,.59-.52,1.37-.77,2.34-.74,.97,.02,1.95,.18,2.94,.46s2.17,.73,3.54,1.35c3.49,1.46,5.22,1.82,5.17,1.06,0-.38-.47-1.08-1.42-2.12-.66-.71-1.51-1.25-2.55-1.63-1.04-.38-1.95-.6-2.73-.67-.78-.07-1.42-.32-1.91-.74-.5-.42-.65-1.11-.46-2.05,.14-1.75,.15-3.29,.04-4.64-.12-1.35-.34-2.99-.67-4.92-.33-1.94-.52-3.26-.57-3.97Zm8.08-20.4c1.09,0,2.13,.18,3.12,.53s1.85,.81,2.59,1.38c.73,.57,1.31,1.26,1.74,2.09,.43,.83,.64,1.69,.64,2.58,0,1.8-.79,3.33-2.37,4.6-1.58,1.28-3.48,1.91-5.7,1.91s-4.12-.64-5.7-1.91c-1.58-1.27-2.37-2.81-2.37-4.6s.79-3.4,2.37-4.67c1.58-1.27,3.48-1.91,5.7-1.91Z"/><path class="d" d="M126.62,45.25c-1.84-.9-3.18-2.87-4-5.92-.83-3.05-1.15-6.17-.96-9.39,.19-3.21,.58-6.14,1.17-8.78,.59-2.64,1.24-4.06,1.95-4.25,.99-.66,2.3-1.2,3.93-1.63,1.63-.42,3.3-.71,5.03-.85,1.72-.14,3.51-.19,5.35-.14,1.84,.05,3.53,.15,5.06,.32,1.53,.17,2.84,.39,3.93,.67,1.7,.33,2.99,1.36,3.86,3.08,.87,1.72,1.26,3.61,1.17,5.67-.1,2.05-.54,3.88-1.35,5.49-.57,1.13-1.49,2.04-2.76,2.73-1.27,.68-2.61,1.11-4,1.27-1.39,.17-2.83,.3-4.32,.39-1.49,.1-2.75,.07-3.79-.07h-1.2c-.9-.09-1.72-.13-2.48-.11-.76,.02-1.41,.09-1.95,.21-.54,.12-.93,.38-1.17,.78-.24,.4-.24,.93,0,1.59,.52,1.42,2.89,2.13,7.12,2.13s7.43-.61,9.6-1.84c1.42-.8,2.61-1.13,3.58-.99,.97,.14,1.58,.76,1.84,1.84,.26,1.09,.06,2.69-.6,4.82-.66,1.98-2.5,3.45-5.53,4.39-3.02,.95-6.36,1.26-10.02,.96-3.66-.31-6.81-1.1-9.46-2.37Zm8.71-22.53c-.76,0-1.44,.19-2.05,.57-.61,.38-1.07,.83-1.38,1.35-.31,.52-.57,1.05-.78,1.59-.21,.54-.37,1-.46,1.38l-.07,.57c.19-.24,.46-.44,.81-.6,.35-.17,.71-.27,1.06-.32,.35-.05,.89-.12,1.59-.21,.71-.09,1.32-.19,1.84-.28,.85-.09,1.5-.48,1.95-1.17,.45-.68,.46-1.33,.04-1.95-.43-.61-1.28-.92-2.55-.92Z"/><path class="d" d="M158.14,44.82c-1.42-1.23-2.38-3.35-2.9-6.38-.52-3.02-.65-6.07-.39-9.14,.26-3.07,.72-5.89,1.38-8.46,.66-2.57,1.37-4.17,2.13-4.78,1.27-.99,3.08-1.74,5.42-2.23,2.34-.5,4.66-.72,6.98-.67,2.31,.05,4.5,.26,6.55,.64s3.51,.87,4.36,1.49c.8,.52,1.39,1.29,1.77,2.3,.38,1.02,.54,2.3,.5,3.86-.05,1.56-.12,2.73-.21,3.51-.1,.78-.26,1.92-.5,3.44-.19,1.23-1.1,2.31-2.73,3.26-1.63,.95-3.44,1.52-5.42,1.74-1.98,.21-3.9,.08-5.74-.39-1.13-.38-1.88-.92-2.23-1.63-.35-.71-.41-1.4-.18-2.09,.24-.68,.37-1.39,.39-2.12,.02-.73-.15-1.33-.53-1.81-.66-.61-1.39-.26-2.2,1.06-1.09,1.8-1.27,3.64-.57,5.53,.57,1.61,1.75,2.72,3.54,3.33,1.65,.66,3.28,.93,4.89,.82,1.6-.12,2.92-.38,3.93-.78,1.01-.4,2.08-.84,3.19-1.31,1.11-.47,1.97-.71,2.59-.71,.94-.05,1.55,.65,1.81,2.09,.26,1.44,.19,3.08-.21,4.92-.4,1.84-1,3.33-1.81,4.46-.85,1.23-2.77,2.19-5.77,2.87-3,.68-6.27,.83-9.81,.42-3.54-.4-6.28-1.48-8.22-3.22Z"/><path class="d" d="M191.22,16.77c.19-.42,.28-1.58,.28-3.47s.09-3.65,.28-5.28c.19-1.63,.66-2.51,1.42-2.66,1.23-.33,2.96-.48,5.21-.46,2.24,.02,3.51,.37,3.79,1.03,.19,.66,.26,1.68,.21,3.05-.05,1.37-.17,2.74-.35,4.11l-.28,2.05c.09-.05,.2-.07,.32-.07s.34-.02,.67-.07c.33-.05,.67-.08,1.03-.11,.35-.02,.74-.04,1.17-.04s.83,.05,1.2,.14c.38,.05,.67,.26,.89,.64s.35,.84,.43,1.38c.07,.54,.12,1.16,.14,1.84,.02,.69,.02,1.36,0,2.02-.02,.66-.01,1.28,.04,1.84,.05,.85-.17,1.45-.64,1.81-.47,.35-1.13,.66-1.98,.92-.85,.26-1.49,.6-1.91,1.03-.57,.61-1.02,1.88-1.35,3.79-.33,1.91-.24,3.41,.28,4.5,.28,.24,.6,.33,.96,.28,.35-.05,.84-.17,1.45-.35,.61-.19,.99-.28,1.13-.28,.33,0,.6,.09,.81,.28,.21,.19,.38,.46,.5,.81,.12,.35,.22,.7,.32,1.03,.09,.33,.14,.81,.14,1.45v5.42c0,1.46-.83,2.55-2.48,3.26-1.65,.71-3.52,1.04-5.6,.99-2.08-.05-4.04-.33-5.88-.85-.52-.14-.99-.4-1.42-.78-.42-.38-.77-.87-1.03-1.49-.26-.61-.47-1.22-.64-1.81-.17-.59-.27-1.32-.32-2.2-.05-.87-.08-1.6-.11-2.2-.02-.59,0-1.36,.07-2.3,.07-.94,.12-1.63,.14-2.05,.02-.43,.08-1.05,.18-1.88,.09-.83,.14-1.26,.14-1.31,.05-.71,.45-1.22,1.2-1.52,.75-.31,1.56-.46,2.41-.46s1.56-.12,2.12-.35c.57-.24,.73-.64,.5-1.2-.14-.61-.7-.9-1.66-.85-.97,.05-1.97,.22-3.01,.53-1.04,.31-2.1,.58-3.19,.81-1.09,.24-1.82,.26-2.2,.07-.76-.38-1.16-1.33-1.2-2.87-.05-1.53,.09-3.06,.43-4.57,.05-.14,.07-.24,.07-.28s.01-.12,.04-.21c.02-.09,.04-.19,.04-.28,.09-.75,.39-1.29,.89-1.59,.5-.31,1.02-.46,1.56-.46s1.1-.05,1.66-.14c.57-.09,.94-.31,1.13-.64Z"/><path class="d" d="M229.83,20.81c-1.51-3.21-2.34-5.96-2.48-8.25-.14-2.29,.5-3.95,1.91-4.99,8.08-1.09,13.22-1.2,15.44-.35,2.27,.95,2.38,7.18,.35,18.7-.24,1.18-.52,2.31-.85,3.4-.33,1.09-.63,1.91-.89,2.48-.26,.57-.46,1.1-.6,1.59s-.18,.89-.11,1.17,.27,.54,.6,.78c.33,.24,.89-.09,1.67-.99,.78-.9,1.6-2.21,2.48-3.93,.87-1.72,1.5-3.46,1.88-5.21,.52-2.31,.73-4.62,.64-6.91-.1-2.29-.14-4.54-.14-6.76s.21-3.66,.64-4.32c.52-.71,1.96-1.09,4.32-1.13,2.36-.05,4.69,.12,6.98,.5,2.29,.38,3.67,.8,4.14,1.28,.23,.24,.37,.54,.39,.92s-.06,.88-.25,1.52-.42,1.31-.71,2.02c-.29,.71-.65,1.7-1.1,2.98s-.84,2.53-1.17,3.75c-.71,2.46-1.69,7.38-2.94,14.77-1.25,7.39-2.11,11.68-2.59,12.86-.42,1.13-2.12,1.99-5.1,2.58-2.98,.59-5.96,.73-8.96,.43-3-.31-4.73-1-5.21-2.09-.42-.9-1.65-4.99-3.68-12.29-2.03-7.3-3.59-12.12-4.67-14.49Z"/><path class="d" d="M282.81,11.25c0,1.8-.79,3.33-2.37,4.6-1.58,1.28-3.48,1.91-5.7,1.91s-4.12-.64-5.7-1.91c-1.58-1.27-2.37-2.81-2.37-4.6s.79-3.4,2.37-4.67c1.58-1.27,3.49-1.91,5.74-1.91s4.14,.64,5.7,1.91c1.56,1.28,2.34,2.83,2.34,4.67Zm-14.66,20.4c-.05-1.37-.18-2.67-.39-3.9-.21-1.23-.4-2.15-.57-2.76-.17-.61-.31-1.19-.42-1.74-.12-.54-.12-.93,0-1.17,.12-.24,.34-.44,.67-.6,.33-.17,.87-.34,1.63-.53,4.06-.52,6.94-.67,8.64-.46,1.7,.21,3.07,.74,4.11,1.59,.28,.28,.46,.45,.53,.5,.07,.05,.14,.15,.21,.32,.07,.17,.07,.29,0,.39-.07,.09-.14,.32-.21,.67-.07,.35-.17,.74-.28,1.17-.12,.42-.24,1.06-.35,1.91-.12,.85-.2,1.82-.25,2.9-.09,2.22,.04,4.65,.39,7.3,.35,2.65,.65,4.53,.89,5.67,.24,1.13,.21,2.29-.07,3.47-.33,.61-1.52,1.06-3.58,1.35-2.05,.28-4.17,.34-6.34,.18-2.17-.17-3.59-.48-4.25-.96-.47-.28-.76-.85-.85-1.7-.09-.85-.07-1.81,.07-2.87s.27-2.61,.39-4.64c.12-2.03,.13-4.06,.04-6.09Z"/><path class="d" d="M285.22,23.36c-1.04-2.36-1.5-4.21-1.38-5.56,.12-1.35,1.03-2.28,2.73-2.8,2.03-.61,3.76-1,5.21-1.17,1.44-.17,2.51-.17,3.22,0,.71,.17,1.26,.48,1.66,.96,.4,.47,.65,.91,.74,1.31,.09,.4,.14,.91,.14,1.52,0,.76-1.06,2.12-3.19,4.11-1.65,1.56-2.34,2.53-2.05,2.9,.09,.09,.26,.17,.5,.21,.42,.1,1.03-.2,1.81-.88s1.63-1.53,2.55-2.55c.92-1.01,1.9-2.02,2.94-3.01,1.04-.99,2.16-1.79,3.37-2.41,1.2-.61,2.33-.83,3.36-.64,1.37,.33,2.43,1.12,3.19,2.37,.75,1.25,1.13,2.62,1.13,4.11s-.37,2.93-1.1,4.32c-.73,1.39-1.76,2.35-3.08,2.87-.9,.38-1.83,.54-2.8,.5-.97-.05-1.87-.22-2.69-.53-.83-.31-1.65-.66-2.48-1.06-.83-.4-1.52-.77-2.09-1.1s-1.1-.53-1.59-.6c-.5-.07-.79,.04-.89,.32-.14,.19-.22,.38-.25,.57-.02,.19,.02,.39,.14,.6,.12,.21,.26,.42,.43,.64,.17,.21,.38,.42,.64,.64,.26,.21,.52,.41,.78,.6,.26,.19,.55,.39,.89,.6,.33,.21,.64,.4,.92,.57,.28,.17,.58,.34,.89,.53,.31,.19,.55,.33,.74,.43,1.04,.66,1.62,3.09,1.74,7.3,.12,4.2-.25,6.75-1.1,7.65-.52,.66-1.83,1.11-3.93,1.35s-4.14,.25-6.13,.04c-1.98-.21-3.14-.62-3.47-1.24-.24-.42-.34-2.27-.32-5.53,.02-3.26-.02-6.72-.14-10.38-.12-3.66-.46-6.17-1.03-7.54Z"/><path class="d" d="M317.17,16.77c.19-.42,.28-1.58,.28-3.47s.09-3.65,.28-5.28c.19-1.63,.66-2.51,1.42-2.66,1.23-.33,2.96-.48,5.21-.46,2.24,.02,3.51,.37,3.79,1.03,.19,.66,.26,1.68,.21,3.05-.05,1.37-.17,2.74-.35,4.11l-.28,2.05c.09-.05,.2-.07,.32-.07s.34-.02,.67-.07c.33-.05,.67-.08,1.03-.11,.35-.02,.74-.04,1.17-.04s.83,.05,1.2,.14c.38,.05,.67,.26,.89,.64,.21,.38,.35,.84,.42,1.38,.07,.54,.12,1.16,.14,1.84,.02,.69,.02,1.36,0,2.02-.02,.66-.01,1.28,.04,1.84,.05,.85-.17,1.45-.64,1.81-.47,.35-1.13,.66-1.98,.92-.85,.26-1.49,.6-1.91,1.03-.57,.61-1.02,1.88-1.35,3.79-.33,1.91-.24,3.41,.28,4.5,.28,.24,.6,.33,.96,.28,.35-.05,.84-.17,1.45-.35,.61-.19,.99-.28,1.13-.28,.33,0,.6,.09,.81,.28,.21,.19,.38,.46,.5,.81,.12,.35,.22,.7,.32,1.03,.09,.33,.14,.81,.14,1.45v5.42c0,1.46-.83,2.55-2.48,3.26-1.65,.71-3.52,1.04-5.6,.99-2.08-.05-4.04-.33-5.88-.85-.52-.14-.99-.4-1.42-.78-.43-.38-.77-.87-1.03-1.49-.26-.61-.47-1.22-.64-1.81-.17-.59-.27-1.32-.32-2.2-.05-.87-.08-1.6-.11-2.2-.02-.59,0-1.36,.07-2.3,.07-.94,.12-1.63,.14-2.05,.02-.43,.08-1.05,.18-1.88,.09-.83,.14-1.26,.14-1.31,.05-.71,.45-1.22,1.2-1.52,.75-.31,1.56-.46,2.41-.46s1.56-.12,2.12-.35,.73-.64,.5-1.2c-.14-.61-.7-.9-1.67-.85-.97,.05-1.97,.22-3.01,.53-1.04,.31-2.1,.58-3.19,.81-1.09,.24-1.82,.26-2.2,.07-.76-.38-1.16-1.33-1.2-2.87-.05-1.53,.09-3.06,.42-4.57,.05-.14,.07-.24,.07-.28s.01-.12,.04-.21c.02-.09,.04-.19,.04-.28,.09-.75,.39-1.29,.89-1.59,.5-.31,1.01-.46,1.56-.46s1.1-.05,1.67-.14c.57-.09,.94-.31,1.13-.64Z"/><path class="d" d="M336.36,37.03c.09-1.04,.08-2.81-.04-5.31-.12-2.5-.25-4.89-.39-7.16-.14-2.27-.19-4.34-.14-6.23,.05-1.89,.26-2.9,.64-3.05,1.13-.57,3.28-.87,6.45-.92,3.16-.05,4.84,.07,5.03,.35,.09,.09,.15,.24,.18,.42,.02,.19,0,.54-.07,1.06-.07,.52-.14,1.12-.21,1.81-.07,.68-.17,1.71-.28,3.08-.12,1.37-.22,2.83-.32,4.39-.24,6.09,.5,9.71,2.2,10.84,.71,.47,1.46,.4,2.27-.21,.66-.47,1.05-1.76,1.17-3.86,.12-2.1,.06-4.3-.18-6.59-.24-2.29-.4-4.46-.5-6.52-.09-2.05-.05-3.29,.14-3.72,.33-.52,1.07-.83,2.23-.92,1.16-.09,2.7-.05,4.64,.14,1.94,.19,3.16,.28,3.68,.28,1.42,0,2.24,.24,2.48,.71,.24,.47,.28,1.96,.14,4.46-.05,.8-.09,1.44-.14,1.91-.1,1.94-.08,4.76,.04,8.46,.12,3.71,.24,7.03,.35,9.95,.12,2.93,.13,4.63,.04,5.1-.14,.76-1.27,1.24-3.4,1.45-2.12,.21-4.06,.2-5.81-.04-.8-.09-1.26-.38-1.38-.85-.12-.47-.01-1.04,.32-1.7,.33-.66,.59-1.37,.78-2.12,.19-.75,.19-1.44,0-2.05-.33-.71-.73-.64-1.2,.21-.05,.19-.17,.47-.35,.85-1.37,2.83-2.81,4.6-4.32,5.31-.66,.28-1.32,.42-1.98,.42-1.37,.05-2.54,.04-3.51-.04-.97-.07-2.07-.28-3.29-.64-1.23-.35-2.21-.87-2.94-1.56-.73-.68-1.33-1.68-1.81-2.98-.47-1.3-.64-2.89-.5-4.78Z"/><path class="d" d="M369.87,26.76c-.66-.42-.84-2.24-.53-5.45,.31-3.21,.79-4.79,1.45-4.75,1.98-1.65,4.88-2.7,8.68-3.15,3.8-.45,7.28-.35,10.45,.28s5.03,1.55,5.6,2.73c.42,.76,.72,2.56,.88,5.42,.17,2.86,.25,5.64,.25,8.36s-.04,5.73-.11,9.03c-.07,3.31-.11,5.12-.11,5.46,0,.61-.13,1.11-.39,1.49-.26,.38-.59,.64-.99,.78s-.88,.22-1.45,.25c-.57,.02-1.1,0-1.59-.07-.5-.07-1.02-.14-1.56-.21-.54-.07-.96-.11-1.24-.11-.99,.05-1.64-.31-1.95-1.06-.31-.75-.34-1.61-.11-2.55,.24-.94,.37-1.83,.39-2.66,.02-.83-.15-1.29-.53-1.38-.38-.09-.66,.13-.85,.67-.19,.54-.3,1.18-.32,1.91-.02,.73-.18,1.52-.46,2.37-.28,.85-.71,1.46-1.28,1.84-1.27,.9-3.75,1.38-7.44,1.45-3.68,.07-6.07-.41-7.15-1.45-.61-.75-1.05-2.34-1.31-4.75-.26-2.41-.18-4.77,.25-7.08,.42-2.31,1.13-3.66,2.12-4.04,1.13-.33,3.17-.52,6.13-.57,2.95-.05,5.02-.26,6.2-.64,1.13-.33,1.96-1.07,2.48-2.23,.52-1.16,.73-2.37,.64-3.65-.1-1.28-.38-2.38-.85-3.33-.47-.9-.78-1.06-.92-.5-.05,.14-.12,.52-.21,1.13-.28,2.08-.69,3.68-1.2,4.82-.57,1.09-1.84,1.81-3.83,2.16s-3.87,.42-5.67,.21c-1.8-.21-2.95-.46-3.47-.74Zm10.98,11.26c.47-.05,.92-.25,1.35-.6,.42-.35,.78-.78,1.06-1.28s.53-.99,.74-1.49c.21-.5,.37-.91,.46-1.24l.14-.5c-.28,.42-.53,.72-.74,.88-.21,.17-.57,.35-1.06,.57-.5,.21-1.19,.39-2.09,.53-.85,.14-1.42,.47-1.7,.99-.28,.52-.24,1,.14,1.45,.38,.45,.94,.67,1.7,.67Z"/><path class="d" d="M399.48,14.29c-.28-2.08-.46-3.72-.53-4.92-.07-1.2,.02-2.1,.28-2.69,.26-.59,.52-.96,.78-1.1,.26-.14,.72-.31,1.38-.5,.71-.28,1.61-.46,2.69-.53,1.08-.07,2.2-.07,3.33,0,1.13,.07,2.11,.15,2.94,.25,.83,.1,1.55,.21,2.16,.35,.99,.1,1.51,.61,1.56,1.56,.05,.95-.28,2.79-.99,5.53-.66,2.74-1.15,6.12-1.45,10.13-.31,4.01-.32,6.87-.04,8.57,.14,.76,.41,1.3,.81,1.63,.4,.33,.83,.47,1.27,.42,.45-.05,.91,.02,1.38,.21,.47,.19,.8,.54,.99,1.06,.28,.61,.52,1.51,.71,2.69,.19,1.18,.28,2.43,.28,3.75s-.19,2.56-.57,3.72c-.38,1.16-.97,1.95-1.77,2.37-.8,.47-1.96,.76-3.47,.85-1.51,.1-3.05,0-4.6-.28s-2.99-.83-4.29-1.63c-1.3-.8-2.11-1.79-2.44-2.98-.47-1.75-.57-6.07-.28-12.96,.28-6.89,.24-12.07-.14-15.51Z"/><path class="d" d="M438.3,25.63c-.05-1.56-.11-3.09-.18-4.6-.07-1.51-.15-2.76-.25-3.75-.1-.99-.18-1.95-.25-2.87s-.13-1.66-.18-2.23c-.05-.57-.07-1.11-.07-1.63s.02-.93,.07-1.24c.05-.31,.14-.6,.28-.89s.31-.52,.5-.71c.19-.19,.47-.38,.85-.57,5.76-.42,12.25-.4,19.48,.07,7.46,.52,11.83,4.63,13.1,12.33,.75,4.96,.04,9.22-2.16,12.79-2.2,3.57-5.49,5.58-9.88,6.06-1.09,.14-2.11,.17-3.08,.07s-1.87-.26-2.69-.5c-.83-.24-1.58-.51-2.27-.81-.69-.31-1.3-.63-1.84-.96-.54-.33-1.04-.62-1.49-.88-.45-.26-.84-.45-1.17-.57-.33-.12-.63-.14-.89-.07-.26,.07-.46,.27-.6,.6-.09,.33-.15,.63-.18,.89-.02,.26,.09,.52,.35,.78,.26,.26,.5,.48,.71,.67,.21,.19,.54,.38,.99,.57,.45,.19,.85,.35,1.2,.5,.35,.14,.8,.28,1.35,.42,.54,.14,.99,.26,1.35,.35,.35,.1,.78,.21,1.28,.35s.89,.24,1.17,.28c.71,.24,1.21,.65,1.52,1.24,.31,.59,.44,1.23,.39,1.91-.05,.68-.18,1.35-.39,1.98-.21,.64-.46,1.17-.74,1.59-.33,.52-1.75,.89-4.25,1.1-2.5,.21-5.03,.2-7.58-.04s-4.04-.66-4.46-1.28c-.24-.33-.39-.79-.46-1.38-.07-.59-.07-1.37,0-2.34,.07-.97,.15-2.21,.25-3.72,.09-1.51,.18-3.37,.25-5.56,.07-2.2,.06-4.85-.04-7.97Zm16.29-1.35c.05,.57,.04,1.04-.04,1.42-.07,.38-.04,.7,.11,.96,.14,.26,.22,.45,.25,.57,.02,.12,.13,.21,.32,.28,.19,.07,.34,.12,.46,.14,.12,.02,.31,.04,.57,.04h.6c.38-.05,.7-.17,.96-.35,.26-.19,.45-.46,.57-.81,.12-.35,.2-.66,.25-.92,.05-.26,.05-.67,0-1.24-.05-.57-.09-.97-.14-1.2-.05-.24-.13-.66-.25-1.28-.12-.61-.18-.97-.18-1.06-.19-1.13-.54-1.89-1.06-2.27-.52-.38-1.3-.43-2.34-.14-.47,.14-.74,.35-.81,.64-.07,.28-.02,.61,.14,.99,.17,.38,.32,.97,.46,1.77,.14,.8,.19,1.63,.14,2.48Z"/><path class="d" d="M489.01,14.51c4.53,0,8.39,1.63,11.58,4.89,3.19,3.26,4.78,7.19,4.78,11.79s-1.59,8.55-4.78,11.83c-3.19,3.28-7.05,4.92-11.58,4.92s-8.41-1.63-11.62-4.89c-3.21-3.26-4.82-7.2-4.82-11.83s1.61-8.57,4.82-11.83c3.21-3.26,7.08-4.89,11.62-4.89Zm-1.49,10.77c-.24,.09-.4,.19-.5,.28-.1,.09-.14,.26-.14,.5s.02,.48,.07,.74c.05,.26,.11,.72,.18,1.38,.07,.66,.11,1.37,.11,2.12,.05,1.13,.04,2.31-.04,3.54-.07,1.23-.11,2.09-.11,2.58s.09,.84,.28,1.03c.28,.33,.94,.48,1.98,.46s1.63-.27,1.77-.74c.05-.52,.05-1.05,0-1.59-.05-.54-.12-1.44-.21-2.69-.09-1.25-.14-2.37-.14-3.36,.05-.8,.09-1.48,.14-2.02s.09-.87,.14-.99c.05-.12,.06-.21,.04-.28-.02-.07-.08-.2-.18-.39-.61-.85-1.75-1.04-3.4-.57Z"/><path class="d" d="M507.93,24.35c-.1-.33-.25-.79-.46-1.38-.21-.59-.38-1.04-.5-1.35-.12-.31-.26-.71-.43-1.2-.17-.5-.27-.9-.32-1.2-.05-.31-.1-.66-.14-1.06-.05-.4-.04-.73,.04-.99,.07-.26,.17-.53,.28-.81,.12-.28,.31-.53,.57-.74,.26-.21,.55-.39,.88-.53,3.35-.47,5.83-.66,7.44-.57,1.6,.1,2.42,.37,2.44,.81,.02,.45-.01,.93-.11,1.45,0,.05-.02,.1-.07,.14-.1,.28-.32,.69-.67,1.2-.35,.52-.71,1.02-1.06,1.49-.35,.47-.7,.98-1.03,1.52-.33,.54-.51,.96-.53,1.24-.02,.28,.11,.52,.39,.71,.38,.1,.85-.18,1.42-.81,.57-.64,1.17-1.39,1.81-2.27s1.58-1.75,2.83-2.62c1.25-.87,2.66-1.45,4.21-1.74,3.4-.71,6.35-.8,8.85-.28,2.5,.52,3.83,1.72,3.97,3.61,0,.42,.07,1.82,.21,4.18s.26,4.53,.35,6.52c.09,1.98,.21,4.36,.35,7.12s.21,4.75,.21,5.95-.05,2.21-.14,3.01c-.38,1.42-3.45,1.89-9.21,1.42-.52-.05-.96-.11-1.31-.18-.35-.07-.67-.14-.96-.21-.28-.07-.5-.22-.64-.46-.14-.24-.26-.41-.35-.53-.1-.12-.14-.39-.14-.81v-1.03c0-.26,.02-.73,.07-1.42,.05-.68,.07-1.26,.07-1.74,.09-2.97-.08-5.74-.53-8.29-.45-2.55-1.22-4.23-2.3-5.03-1.23-.85-2.29-1.09-3.19-.71-.9,.38-.68,1.18,.64,2.41,.09,.1,.21,.21,.35,.35,.8,.66,1.38,1.9,1.74,3.72,.35,1.82,.52,3.67,.5,5.56-.02,1.89-.14,3.62-.35,5.21s-.44,2.51-.67,2.8c-.28,.42-1.52,.71-3.72,.85-2.2,.14-4.44,.05-6.73-.28-2.29-.33-3.67-.85-4.14-1.56-.42-.66-.53-2.56-.32-5.7,.21-3.14,.45-6.09,.71-8.85,.26-2.76,.15-5.06-.32-6.91Z"/><path class="d" d="M568.42,5.16c.85,.43,1.49,2.79,1.91,7.08,.42,4.3,.61,8.93,.57,13.88-.05,4.96-.3,9.53-.74,13.71-.45,4.18-1.03,6.36-1.74,6.55-.85,.19-2.03,.41-3.54,.67-1.51,.26-3.47,.5-5.88,.71-2.41,.21-4.66,.26-6.76,.14-2.1-.12-4.05-.54-5.84-1.27-1.8-.73-2.98-1.81-3.54-3.22-1.46-3.78-2.03-8.68-1.7-14.7,.33-6.02,1.28-10.05,2.83-12.08,.94-1.27,2.57-1.99,4.89-2.16,2.31-.17,4.59,.2,6.83,1.1,2.24,.9,3.72,2.12,4.43,3.68,.66,1.32,1,2.72,1.03,4.18,.02,1.46,.04,2.51,.04,3.15s.31,.96,.92,.96c1.04-.05,1.53-1.26,1.49-3.65-.05-2.38-.54-4.57-1.49-6.55-.52-1.09-1.39-1.95-2.62-2.59-1.23-.64-2.37-1.16-3.44-1.56-1.06-.4-1.69-.89-1.88-1.45-.42-1.13-.51-2.43-.25-3.9,.26-1.46,.84-2.36,1.74-2.69,.99-.38,3.02-.58,6.09-.6,3.07-.02,5.29,.18,6.66,.6Zm-11.33,33.15c-.24-.14-.5-.38-.78-.71-.28-.33-.61-1.12-.99-2.37-.38-1.25-.45-2.61-.21-4.07,.66-3.54,.4-5.69-.78-6.45-.52-.24-1.09-.12-1.7,.35-1.04,.9-1.42,2.86-1.13,5.88,.28,3.02,.85,5.03,1.7,6.02,.28,.38,.61,.67,.99,.89,.38,.21,.73,.35,1.06,.42,.33,.07,.64,.11,.92,.11h.64l.28-.07Z"/></g></g></g></g></svg>