<?xml version="1.0" standalone="no"?>
<!DOCTYPE svg PUBLIC "-//W3C//DTD SVG 20010904//EN"
 "http://www.w3.org/TR/2001/REC-SVG-20010904/DTD/svg10.dtd">
<svg version="1.0" xmlns="http://www.w3.org/2000/svg"
 width="512.000000pt" height="512.000000pt" viewBox="0 0 512.000000 512.000000"
 preserveAspectRatio="xMidYMid meet">
<metadata>
Created by potrace 1.14, written by Peter Selinger 2001-2017
</metadata>
<g transform="translate(0.000000,512.000000) scale(0.100000,-0.100000)"
fill="#000000" stroke="none">
<path d="M1687 4055 c-69 -17 -183 -73 -248 -121 -75 -55 -209 -203 -277 -305
-69 -103 -200 -354 -190 -364 3 -3 54 15 113 40 59 25 142 58 185 72 l77 27
11 55 c18 83 58 182 105 255 63 97 186 227 246 260 50 27 205 66 266 66 22 0
26 3 17 12 -19 19 -235 21 -305 3z"/>
<path d="M3509 4056 c-146 -42 -283 -160 -360 -311 -25 -49 -48 -100 -51 -112
-6 -23 -7 -23 -217 -23 -116 0 -211 -2 -211 -4 0 -3 4 -16 10 -30 l10 -26 224
0 224 0 6 28 c4 15 28 70 53 122 36 76 60 109 117 166 44 43 92 81 126 97 90
42 254 80 348 80 63 1 78 3 60 11 -38 15 -287 17 -339 2z"/>
<path d="M1923 3916 c-164 -38 -322 -166 -401 -326 -55 -113 -75 -200 -75
-330 0 -516 505 -830 902 -561 125 85 223 233 262 397 42 175 12 380 -78 534
-45 76 -141 176 -208 215 -122 72 -277 99 -402 71z"/>
<path d="M3681 3914 c-260 -70 -439 -371 -418 -702 8 -121 27 -194 78 -299 45
-93 130 -192 209 -243 259 -166 581 -25 706 310 106 280 45 609 -146 801 -125
125 -280 173 -429 133z"/>
<path d="M1210 3230 c-69 -26 -213 -84 -320 -129 -206 -86 -229 -90 -245 -42
-6 19 -12 18 -116 -35 -140 -70 -293 -164 -425 -260 l-104 -75 0 -1345 0
-1344 546 0 c515 0 545 1 540 18 -117 379 -72 938 106 1297 53 108 122 195
154 195 6 0 24 -18 38 -41 15 -22 55 -69 89 -102 166 -165 385 -243 614 -217
246 27 357 85 554 287 59 60 133 127 164 148 159 105 403 166 608 151 187 -14
393 -90 527 -195 36 -28 97 -76 135 -106 85 -67 204 -127 305 -154 88 -24 255
-43 289 -34 23 6 23 4 -15 -66 -77 -142 -134 -184 -275 -200 -221 -25 -351
-133 -404 -336 -20 -78 -19 -267 1 -360 9 -38 18 -118 21 -177 l5 -108 184 0
c178 0 184 1 184 20 0 39 -27 85 -77 132 -61 56 -109 82 -188 98 -33 7 -63 16
-67 19 -4 4 -13 52 -19 107 -21 184 14 332 101 427 63 69 135 102 269 122 195
29 236 69 392 376 l74 144 3 229 c4 240 -5 361 -39 530 -39 195 -116 391 -207
531 -49 76 -152 196 -192 225 l-30 21 -10 -26 c-9 -25 -5 -33 59 -101 195
-209 309 -487 351 -860 7 -57 10 -195 8 -320 -4 -246 -9 -268 -83 -332 -38
-34 -43 -36 -120 -33 -198 8 -377 81 -550 227 -174 147 -326 218 -535 249
-256 39 -528 -14 -728 -142 -32 -20 -122 -100 -202 -178 -121 -118 -157 -148
-220 -178 -122 -60 -184 -72 -355 -72 -139 1 -155 3 -223 29 -105 40 -185 89
-257 160 -61 59 -144 177 -165 231 -8 22 -15 26 -35 21 -20 -5 -41 8 -117 71
-134 112 -323 304 -400 408 -120 161 -187 329 -174 437 16 146 129 257 307
305 79 20 252 21 325 1 l52 -14 12 140 c6 78 10 171 8 208 l-3 67 -125 -49z"/>
</g>
</svg>
