<?xml version="1.0" encoding="UTF-8"?><svg xmlns="http://www.w3.org/2000/svg" viewBox="0 0 103.48 20.27"><defs><style>.d{fill:#fff;}.e{fill:#6abd45;}.f{fill:#231f20;}</style></defs><g id="a"/><g id="b"><g id="c"><g><path class="f" d="M3.94,7.74c.01-.17,.04-.4,.08-.69,.17-1.56,.29-2.5,.38-2.8,.08-.3,.27-.54,.57-.72,.53-.06,1.16-.12,1.9-.18s1.62-.09,2.66-.07,1.65,.12,1.83,.31,.35,.71,.51,1.53c.16,.82,.32,1.79,.49,2.91,.17,1.12,.32,1.95,.46,2.49,.17,.59,.39,1.21,.68,1.86s.51,1.18,.66,1.58c.15,.4,.2,.69,.15,.89-.06,.2-.44,.33-1.15,.41-.71,.08-1.45,.1-2.21,.07-.76-.03-1.28-.08-1.56-.17-.22-.07-.37-.22-.43-.44-.06-.22-.08-.57-.05-1.03,.03-.46,.04-.73,.02-.82,0-.2,.1-.38,.29-.54s.41-.3,.65-.4,.45-.21,.65-.35,.29-.27,.29-.41c-.03-.28-.17-.36-.44-.23-.1,.06-.29,.17-.57,.36-.21,.14-.38,.24-.5,.31-.2,.12-.39,.2-.58,.23s-.37,.02-.53-.02-.32-.09-.47-.15c-.15-.06-.3-.12-.47-.18-.17-.06-.31-.09-.44-.09-.31-.01-.45,.04-.42,.17,.04,.2,.41,.48,1.11,.86,.28,.14,.47,.35,.58,.64s.13,.57,.07,.86-.14,.54-.26,.78c-.12,.23-.25,.37-.39,.41-.2,.07-.66,.13-1.38,.17-.73,.04-1.47,.02-2.23-.07-.76-.09-1.2-.27-1.31-.53-.12-.25-.11-.67,.05-1.26,.16-.59,.39-1.42,.68-2.5,.29-1.08,.5-2.15,.63-3.19Zm4.48-.61c-.06-.29-.11-.52-.16-.68-.05-.16-.11-.27-.19-.34l-.16-.12s-.1,0-.22,.02c-.12,.03-.2,.05-.24,.06-.1,.04-.17,.11-.23,.19-.06,.08-.08,.19-.08,.31s0,.25,.02,.37c.01,.12,.05,.26,.12,.43,.06,.17,.12,.31,.16,.43,.04,.12,.1,.26,.18,.43,.08,.17,.13,.29,.16,.36,.17,.41,.34,.65,.52,.74s.41,.04,.67-.14c.1-.07,.16-.14,.18-.21,.02-.07,0-.16-.05-.27-.06-.11-.12-.23-.19-.36-.07-.12-.15-.3-.25-.52-.1-.22-.17-.46-.23-.71Z"/><path class="f" d="M14.52,5.4c-.08-.61-.14-1.1-.16-1.46-.02-.36,0-.62,.08-.8,.08-.17,.15-.28,.23-.32,.08-.04,.21-.09,.41-.15,.21-.08,.47-.14,.8-.16,.32-.02,.65-.02,.99,0,.33,.02,.62,.04,.87,.07,.24,.03,.46,.06,.64,.1,.29,.03,.45,.18,.46,.46,.01,.28-.08,.82-.29,1.63-.2,.81-.34,1.81-.43,3-.09,1.19-.09,2.03-.01,2.53,.04,.22,.12,.38,.24,.48,.12,.1,.24,.14,.38,.12,.13-.01,.27,0,.41,.06s.24,.16,.29,.31c.08,.18,.15,.45,.21,.8,.06,.35,.08,.72,.08,1.11s-.06,.76-.17,1.1c-.11,.34-.29,.58-.52,.7-.24,.14-.58,.22-1.03,.25-.45,.03-.9,0-1.36-.08-.46-.08-.88-.24-1.27-.48-.38-.24-.62-.53-.72-.88-.14-.52-.17-1.79-.08-3.83s.07-3.57-.04-4.59Z"/><path class="f" d="M20.07,8.29c-.5-1.31-.36-2.15,.44-2.51,1.38-.25,2.07-.25,2.07,0,0,.08-.16,.32-.48,.71l-.08,.13c-.24,.32-.31,.65-.21,.98,.08,.29,.24,.29,.48,0,.13-.15,.25-.38,.38-.67,.08-.17,.18-.32,.29-.46,.11-.14,.23-.26,.36-.36,.13-.1,.28-.18,.45-.25,.17-.07,.33-.12,.47-.17s.32-.07,.53-.09c.22-.02,.39-.03,.53-.04,.14,0,.33,0,.56,.01,.23,.01,.4,.02,.52,.03,.12,0,.29,.02,.52,.04,.23,.02,.38,.04,.45,.05,.29,.01,.51,.04,.66,.07s.3,.1,.46,.19c.16,.09,.28,.21,.35,.35,.07,.14,.14,.35,.21,.62,.07,.27,.12,.59,.14,.96,.02,.37,.04,.83,.07,1.39,.01,.54,.01,1.04,0,1.48-.01,.44-.05,.83-.12,1.18-.06,.35-.16,.65-.3,.91-.14,.26-.33,.48-.56,.65-.23,.17-.52,.31-.88,.41-.36,.1-.78,.16-1.27,.19-.39,.03-.75,0-1.08-.06-.33-.07-.59-.17-.79-.29-.2-.13-.38-.27-.54-.42-.17-.15-.29-.3-.38-.43s-.18-.24-.29-.33c-.11-.09-.2-.14-.27-.15-.07,0-.17,.04-.31,.14-.14,.14-.21,.28-.22,.42,0,.14,.06,.29,.19,.44,.13,.15,.28,.3,.45,.44,.17,.14,.36,.28,.58,.41,.22,.13,.41,.25,.59,.34s.33,.16,.45,.22c.17,.07,.28,.15,.34,.25,.06,.1,.07,.19,.05,.28-.02,.09-.04,.23-.06,.42s-.02,.37-.01,.55c.04,.28,.05,.51,.02,.68-.03,.17-.15,.31-.37,.41s-.6,.2-1.16,.29c-.57,.07-1.09,.09-1.54,.07-.45-.02-.81-.2-1.06-.52-.25-.33-.34-.81-.27-1.46,.13-.96,.16-2.28,.12-3.95s-.21-2.85-.47-3.55Zm4.92,0c-.12,0-.25,.04-.39,.12-.13,.08-.25,.19-.34,.31-.1,.13-.19,.26-.28,.41-.09,.15-.16,.3-.22,.45-.06,.15-.11,.29-.16,.42-.05,.12-.08,.22-.09,.29l-.04,.13c.2-.24,.36-.38,.5-.43s.33-.08,.57-.1c.24-.02,.5-.09,.78-.2,.24-.1,.41-.23,.52-.4,.11-.17,.15-.33,.11-.48s-.15-.28-.31-.39c-.17-.1-.38-.15-.63-.14Z"/><path class="f" d="M30.72,14.89c-.36-.31-.6-1.43-.72-3.37-.12-1.94-.11-3.84,.02-5.71s.33-2.87,.6-3.03c.81-.17,1.68-.24,2.62-.23s1.49,.08,1.65,.19c.14,.07,.22,.33,.24,.8,.02,.46-.02,.84-.14,1.13-.07,.17-.19,.29-.36,.37-.17,.08-.42,.16-.76,.24-.34,.08-.65,.19-.91,.31-.42,.2-.71,.58-.86,1.15-.11,.43-.06,.65,.15,.65,.15,0,.36-.16,.63-.48,.39-.45,1.03-.8,1.92-1.07s1.72-.39,2.5-.37c.78,.02,1.26,.17,1.42,.43,.24,.38,.45,1.82,.63,4.33s.21,4.02,.08,4.54c-.08,.29-.39,.49-.91,.58s-1.07,.09-1.62,0c-.56-.09-.98-.21-1.26-.37-.15-.1-.25-.52-.27-1.27-.03-.75-.03-1.53,0-2.36,.03-.82-.01-1.57-.12-2.25-.1-.68-.3-1-.6-.97-.25,.01-.43,.23-.52,.65s-.13,.94-.09,1.56c.03,.62,.09,1.24,.16,1.86,.07,.62,.13,1.18,.19,1.69,.06,.5,.07,.81,.04,.92-.06,.21-.31,.38-.75,.51-.45,.13-.96,.17-1.55,.11-.59-.06-1.05-.24-1.4-.53Z"/><path class="f" d="M40.65,9.08c-.2-.13-.25-.66-.16-1.61,.09-.95,.23-1.42,.43-1.4,.59-.49,1.44-.8,2.57-.93,1.12-.13,2.15-.1,3.09,.08,.94,.19,1.49,.46,1.65,.81,.13,.22,.21,.76,.26,1.6s.07,1.67,.07,2.47-.01,1.69-.03,2.67c-.02,.98-.03,1.52-.03,1.61,0,.18-.04,.33-.12,.44-.08,.11-.17,.19-.29,.23-.12,.04-.26,.07-.43,.07-.17,0-.32,0-.47-.02-.15-.02-.3-.04-.46-.06-.16-.02-.28-.03-.37-.03-.29,.01-.49-.09-.58-.31-.09-.22-.1-.47-.03-.75,.07-.28,.11-.54,.12-.79s-.04-.38-.16-.41c-.11-.03-.2,.04-.25,.2-.06,.16-.09,.35-.09,.57,0,.22-.05,.45-.14,.7-.08,.25-.21,.43-.38,.54-.38,.27-1.11,.41-2.2,.43-1.09,.02-1.79-.12-2.12-.43-.18-.22-.31-.69-.39-1.4-.08-.71-.05-1.41,.07-2.09,.13-.68,.33-1.08,.63-1.19,.33-.1,.94-.15,1.81-.17,.87-.01,1.48-.08,1.83-.19,.33-.1,.58-.32,.73-.66,.15-.34,.22-.7,.19-1.08-.03-.38-.11-.71-.25-.98-.14-.27-.23-.31-.27-.15-.01,.04-.04,.15-.06,.33-.08,.61-.2,1.09-.36,1.42-.17,.32-.54,.53-1.13,.64-.59,.1-1.14,.12-1.68,.06-.53-.06-.87-.14-1.03-.22Zm3.25,3.33c.14-.01,.27-.07,.4-.18,.12-.1,.23-.23,.31-.38,.08-.15,.16-.29,.22-.44,.06-.15,.11-.27,.14-.37l.04-.15c-.08,.13-.16,.21-.22,.26-.06,.05-.17,.1-.31,.17-.15,.06-.35,.12-.62,.16-.25,.04-.42,.14-.5,.29s-.07,.3,.04,.43,.28,.2,.5,.2Z"/><path class="f" d="M55.1,8.54c-.38-.6-.56-1.14-.54-1.62,.01-.48,.18-.8,.5-.95,.47-.2,1.18-.32,2.12-.37s1.56,.02,1.86,.22c.1,.08,.17,.19,.22,.31s.08,.3,.09,.51c.01,.22,.02,.43,0,.65s-.01,.53-.02,.93c0,.41-.01,.79-.01,1.15,.01,.32-.02,.64-.1,.94-.08,.31-.16,.53-.24,.67-.08,.14-.18,.31-.3,.52-.17,.24-.23,.39-.18,.47,.05,.08,.28,.1,.7,.07,.4-.01,.69-.3,.87-.87,.17-.57,.25-1.2,.22-1.91-.03-.71-.05-1.39-.05-2.04s0-1.08,.03-1.28c.08-.25,.42-.41,.99-.48,.58-.07,1.17-.03,1.77,.1,.6,.14,.98,.35,1.13,.63,.22,.41,0,1.8-.67,4.2s-1.16,3.83-1.47,4.3c-.14,.24-.58,.4-1.31,.49s-1.46,.11-2.19,.06c-.73-.05-1.19-.14-1.4-.28-.18-.11-.39-.62-.62-1.53-.23-.91-.47-1.88-.73-2.91-.26-1.03-.49-1.7-.68-2.01Z"/><path class="f" d="M75.04,9.56c0,1.55-.51,2.87-1.53,3.97-1.02,1.1-2.25,1.64-3.7,1.64s-2.68-.55-3.71-1.64c-1.03-1.1-1.54-2.42-1.54-3.97s.51-2.87,1.54-3.97c1.03-1.1,2.26-1.64,3.71-1.64s2.68,.55,3.7,1.64c1.02,1.1,1.53,2.42,1.53,3.97Zm-4.94-2.91c-.07,0-.16-.02-.27-.06-.21-.07-.33-.04-.36,.08-.07,.17-.1,.92-.08,2.24,.01,.64,0,1.22-.05,1.74s-.09,.87-.14,1.05-.07,.39-.09,.63c-.02,.24,0,.4,.05,.48,.13,.32,.31,.37,.54,.15,.25-.24,.41-.66,.48-1.26,.38-3.21,.35-4.89-.08-5.05Z"/><path class="f" d="M77.39,11.58c.33,0,.64,.08,.92,.25,.28,.17,.5,.39,.66,.68s.24,.6,.24,.93-.08,.62-.24,.9-.38,.5-.66,.67c-.28,.17-.59,.25-.92,.25-.5,0-.94-.18-1.3-.53-.36-.36-.54-.79-.54-1.29s.18-.96,.54-1.32c.36-.36,.8-.54,1.3-.54Z"/><path class="f" d="M90.19,9.56c0,1.55-.51,2.87-1.53,3.97-1.02,1.1-2.25,1.64-3.7,1.64s-2.68-.55-3.71-1.64c-1.03-1.1-1.54-2.42-1.54-3.97s.51-2.87,1.54-3.97c1.03-1.1,2.26-1.64,3.71-1.64s2.68,.55,3.7,1.64c1.02,1.1,1.53,2.42,1.53,3.97Zm-4.94-2.91c-.07,0-.16-.02-.27-.06-.21-.07-.33-.04-.36,.08-.07,.17-.1,.92-.08,2.24,.01,.64,0,1.22-.05,1.74s-.09,.87-.14,1.05-.07,.39-.09,.63c-.02,.24,0,.4,.05,.48,.13,.32,.31,.37,.54,.15,.25-.24,.41-.66,.48-1.26,.38-3.21,.35-4.89-.08-5.05Z"/><path class="f" d="M92.53,11.58c.33,0,.64,.08,.92,.25,.28,.17,.5,.39,.66,.68s.24,.6,.24,.93-.08,.62-.24,.9-.38,.5-.66,.67c-.28,.17-.59,.25-.92,.25-.5,0-.94-.18-1.3-.53-.36-.36-.54-.79-.54-1.29s.18-.96,.54-1.32c.36-.36,.8-.54,1.3-.54Z"/><path class="f" d="M94.96,8.73c-.01-.17-.03-.38-.05-.63-.02-.25-.05-.49-.07-.7-.03-.22-.05-.43-.06-.64-.01-.21-.01-.39,0-.54,.02-.15,.06-.26,.12-.31,.38-.07,.7-.18,.96-.32s.46-.3,.59-.45c.12-.15,.26-.33,.41-.52,.15-.2,.28-.34,.41-.44,.29-.24,.9-.36,1.83-.38s1.44,.08,1.54,.27c.15,.22,.18,1.75,.08,4.59-.01,.32,.03,1.35,.15,3.09,.11,1.74,.14,2.73,.08,2.96-.07,.2-.46,.32-1.16,.39-.71,.06-1.4,.07-2.09,.03-.69-.04-1.11-.09-1.25-.15-.17-.08-.24-.87-.22-2.35,.02-1.48,.09-2.34,.2-2.58,.06-.12,.34-.26,.86-.4,.52-.14,.87-.29,1.07-.46,.29-.22,.42-.45,.38-.67-.06-.25-.32-.21-.8,.12l-.13,.08c-.56,.45-1.17,.68-1.82,.69-.66,.01-1-.22-1.03-.69Z"/><path class="e" d="M3.94,7.74l2.49,.2c0-.09,.03-.28,.07-.54v-.09c.09-.77,.17-1.38,.22-1.8,.03-.21,.05-.38,.07-.5l.02-.12h0l-.86-.21,.85,.23v-.03l-.85-.2,.85,.23h0l-1.28-.35,1.05,.82c.11-.13,.19-.31,.23-.46l-1.28-.36,1.05,.82-.89-.69,.6,.96c.07-.04,.19-.13,.29-.27l-.89-.69,.6,.96-1.31-2.13,.26,2.49c.51-.05,1.13-.11,1.85-.17,.51-.04,1.15-.07,1.9-.07,.17,0,.34,0,.51,0,.44,0,.75,.04,.85,.05h.02v0h0v0l.28-1.12-.48,1.04c.13,.06,.19,.07,.21,.08l.28-1.12-.48,1.04,.85-1.84-1.48,1.38c.28,.29,.5,.4,.63,.46l.85-1.84-1.48,1.38,1.2-1.11-1.47,.73c.03,.05,.08,.17,.27,.38l1.2-1.11-1.47,.73,.56-.28-.57,.24,.02,.04,.56-.28-.57,.24h0c.02,.06,.1,.33,.18,.72h0c.15,.77,.31,1.71,.47,2.8h0c.18,1.16,.33,2.04,.51,2.74l.02,.06c.2,.71,.47,1.44,.79,2.18,.28,.64,.49,1.14,.62,1.49h0l.02,.07h0l1.03-.26h-1.06c0,.19,.03,.26,.03,.27l1.03-.27h.79l-1.77-.5c-.06,.21-.07,.38-.07,.5h1.85l-1.77-.5v-.02l2.2,.63-1.82-1.39c-.15,.19-.29,.45-.38,.75l2.19,.63-1.82-1.39,1.64,1.26-1-1.82c-.14,.08-.38,.22-.64,.56l1.64,1.26-1-1.82,.69,1.25-.47-1.35s-.11,.04-.22,.1l.69,1.25-.47-1.35,.17,.49-.13-.5h-.04l.17,.5-.13-.5s-.12,.03-.3,.04h0c-.43,.05-.88,.07-1.34,.07-.17,0-.34,0-.51,0h0c-.34-.01-.61-.03-.79-.05l-.18-.02h-.02l-.17,.75,.22-.73h-.05l-.17,.73,.22-.73h.02l-.55,1.78,1.32-1.29c-.25-.26-.55-.42-.77-.48l-.55,1.77,1.32-1.29-1.33,1.3,1.79-.5c-.06-.23-.21-.54-.46-.79l-1.33,1.3,1.79-.5h0l-.83,.23,.87-.09s0-.04-.03-.15l-.83,.23,.87-.09v-.11c0-.06,0-.14,0-.24h0c.02-.33,.03-.58,.03-.82v-.2c0-.08-.01-.16-.04-.32l-2.47,.38h.6l1.68,.9c.13-.24,.23-.58,.22-.9h-1.9l1.68,.9-1.37-.74,1.02,1.19c.08-.07,.22-.21,.35-.45l-1.37-.74,1.02,1.19-.07-.08,.04,.1,.03-.02-.07-.08,.04,.1c.38-.16,.75-.35,1.1-.59,.26-.18,.56-.42,.85-.81,.28-.39,.55-1,.54-1.66,0-.1,0-.14-.01-.24-.02-.19-.05-.41-.14-.66-.12-.37-.38-.88-.89-1.29-.25-.2-.55-.36-.85-.46-.3-.1-.59-.13-.84-.13-.61,0-.99,.17-1.28,.3l-.18,.1c-.18,.11-.37,.23-.67,.42h-.02c-.18,.13-.31,.21-.34,.23l-.13,.08,.55,.86-.15-.99c-.23,.03-.36,.11-.4,.14l.55,.86-.15-.99,.15,1.01v-1.02h-.15l.15,1.02v.18l.29-1.16c-.1-.02-.2-.04-.29-.04v1.2l.29-1.16-.19-.06h0c-.15-.05-.31-.12-.48-.18h0c-.36-.13-.78-.25-1.32-.25v2.5l.11-2.5h-.2c-.14,0-.3,0-.49,.03-.14,.02-.31,.05-.51,.11-.29,.1-.7,.27-1.13,.71-.21,.22-.4,.51-.53,.83-.13,.32-.18,.66-.18,.96,0,.2,.02,.41,.07,.62l2.43-.59-2.44,.53c.16,.67,.43,1.01,.64,1.26,.32,.37,.59,.56,.86,.75,.27,.19,.55,.35,.87,.52l.07,.04,.59-1.17-.97,.88c.13,.14,.27,.24,.39,.3l.59-1.17-.97,.88,1.01-.91-1.27,.47c.05,.13,.14,.3,.27,.44l1.01-.91-1.27,.47,.81-.3h-.86c0,.12,.02,.23,.05,.3l.81-.3h.06l-.91-.17-.02,.17h.92l-.91-.17h0l-.03,.11h0l1.18,.6-.96-.91c-.16,.17-.2,.27-.22,.3l1.18,.61-.96-.91,1.47,1.4-.58-1.94c-.45,.13-.74,.38-.89,.54l1.47,1.4-.58-1.94-.13,.04,.41,1.13-.23-1.18s-.03,0-.18,.05l.41,1.13-.23-1.18s-.37,.05-.86,.08c-.18,.01-.36,.02-.55,.02-.4,0-.81-.02-1.24-.08-.12-.01-.21-.03-.26-.04h-.03l-.03,.1,.04-.1h0l-.03,.1,.04-.1-.4,1.17,.72-.99c-.19-.13-.29-.16-.32-.17l-.4,1.17,.72-.99-1.17,1.62,1.83-.78c-.19-.44-.48-.71-.66-.84l-1.17,1.62,1.83-.78-.06-.13-1.38,.68h1.56c0-.08,0-.32-.18-.68l-1.38,.68h1.04l.51,.05v-.05h-.51l.51,.05v-.05l.05-.16h0c.16-.59,.39-1.43,.68-2.51,.32-1.19,.56-2.37,.7-3.55v-.1l-2.48-.2-2.48-.3c-.11,.92-.3,1.87-.56,2.84-.29,1.08-.52,1.91-.68,2.5h0c-.13,.47-.22,.93-.22,1.49,0,.43,.06,.95,.34,1.54l2.24-1.11-2.3,.98c.22,.51,.56,.9,.87,1.15,.48,.38,.91,.54,1.29,.66,.39,.12,.76,.18,1.15,.23,.61,.07,1.23,.11,1.83,.11,.28,0,.56,0,.84-.02,.4-.02,.74-.05,1.05-.09,.16-.02,.31-.04,.47-.07,.16-.03,.33-.07,.57-.15l-.85-2.35,.72,2.39c.59-.18,1.01-.51,1.29-.81,.28-.3,.46-.59,.59-.85h0c.24-.47,.4-.95,.49-1.45h0c.05-.25,.07-.51,.07-.78,0-.49-.09-.98-.25-1.42-.15-.42-.39-.84-.71-1.19-.32-.35-.7-.63-1.09-.83l-1.12,2.24,1.19-2.2c-.28-.15-.45-.27-.46-.28l-.65,.85,.81-.69c-.11-.13-.15-.15-.15-.15l-.65,.85,.81-.69-1.61,1.38,2.06-.44c-.14-.57-.35-.81-.45-.94l-1.61,1.38,2.06-.44v-.06l-2.32,.56h2.37c0-.18-.02-.38-.07-.56l-2.3,.56h-.03l1.87,1.51c.34-.4,.55-1.03,.53-1.51h-2.4l1.87,1.51-1.84-1.48,1.11,2.09c.21-.11,.48-.3,.73-.6l-1.84-1.48,1.11,2.09-1.01-1.9,.34,2.12c.13-.02,.34-.06,.67-.23l-1.01-1.9,.34,2.12-.24-1.46v1.49s.1,0,.24-.02l-.24-1.46v.9l-.03,.59h.03v-.59l-.03,.59h.11v-1.24l-.44,1.17s.15,.06,.44,.07v-1.24l-.44,1.17h0c.16,.06,.31,.12,.46,.18h0c.24,.09,.49,.17,.75,.23,.3,.08,.61,.11,.92,.11,.2,0,.4-.02,.59-.04,.6-.09,1.13-.32,1.55-.6l-1.35-2.11,1.22,2.18c.22-.12,.43-.26,.67-.42l-1.38-2.08,1.36,2.1c.26-.17,.44-.28,.46-.29l-1.25-2.16,1.07,2.26-.86-1.81v1.99c.49,0,.73-.13,.86-.18l-.86-1.81v-.3l-.96,2.08c.34,.16,.69,.21,.96,.21v-2.29l-.96,2.08,.97-2.11-1.65,1.63c.18,.19,.42,.36,.68,.48l.97-2.11-1.65,1.63,1.59-1.57-2.1,.78c.08,.22,.23,.51,.51,.8l1.59-1.57-2.1,.78,1.82-.67-1.93,.19c.01,.11,.03,.26,.11,.48l1.82-.67-1.93,.19,2.49-.24h-.36l-1.74-1.25c-.19,.25-.4,.72-.39,1.25h2.14l-1.74-1.25,1.34,.96-.93-1.37c-.07,.05-.22,.15-.41,.41l1.34,.96-.93-1.37s-.1,.06-.2,.1c-.47,.19-.93,.47-1.33,.81-.28,.24-.56,.55-.79,.97-.23,.42-.37,.95-.37,1.47,0,.1,.01,.28,.03,.38l1.94-.3-1.96,.09s0,.08,.02,.21l1.94-.3-1.96,.09,.62-.03h-.62v.03l.62-.03h-.62s0,.24-.02,.52h0c-.01,.19-.02,.36-.02,.54,0,.41,.02,.8,.16,1.31h0c.12,.45,.38,.95,.77,1.35,.39,.4,.88,.67,1.32,.8h.02c.4,.12,.7,.16,1.05,.2,.34,.04,.71,.06,1.14,.08h0c.23,0,.46,.01,.69,.01,.64,0,1.26-.03,1.88-.1h0c.47-.05,.88-.11,1.39-.29,.26-.09,.54-.21,.9-.47,.17-.13,.37-.3,.55-.54,.18-.24,.35-.54,.45-.9v-.02c.09-.31,.12-.6,.12-.85-.01-.69-.17-1.15-.34-1.61h0c-.17-.45-.4-1-.7-1.68-.25-.57-.44-1.09-.57-1.55l-2.4,.69,2.42-.62c-.1-.39-.25-1.17-.41-2.24h0c-.17-1.15-.34-2.15-.51-3.02h0c-.09-.48-.19-.9-.33-1.32-.07-.21-.15-.42-.26-.65-.12-.23-.26-.49-.54-.79-.46-.47-.85-.64-1.16-.76-.47-.17-.84-.23-1.23-.28-.39-.04-.79-.06-1.24-.07-.2,0-.39,0-.58,0-.86,0-1.63,.03-2.33,.09-.75,.06-1.39,.12-1.94,.18-.38,.04-.73,.16-1.05,.36-.36,.22-.72,.53-1.02,.9-.3,.38-.52,.82-.64,1.27h0c-.06,.24-.09,.4-.13,.6-.1,.58-.2,1.4-.33,2.6l2.49,.27-2.47-.35c-.05,.33-.08,.59-.1,.84l2.49,.2-2.48-.3,2.48,.3Zm4.48-.61l2.46-.47c-.07-.35-.13-.64-.22-.94h0c-.06-.21-.15-.44-.3-.7-.15-.26-.36-.56-.7-.84l-.11-.09-.16-.12c-.12-.09-.26-.17-.39-.24-.3-.14-.53-.19-.71-.22-.18-.03-.31-.03-.42-.03-.22,0-.35,.02-.47,.04-.11,.02-.21,.04-.29,.06h0l-.2,.05c-.07,.02-.13,.03-.24,.07l-.21,.08c-.5,.21-1,.61-1.32,1.09h0c-.19,.29-.32,.61-.4,.9-.08,.29-.1,.57-.1,.81,0,.22,.01,.43,.04,.65h0c.05,.42,.15,.73,.26,1.02h0c.06,.16,.11,.29,.14,.39h0c.08,.21,.16,.42,.26,.64h0c.07,.15,.11,.24,.11,.26h0c.13,.33,.28,.64,.52,.98,.24,.33,.57,.73,1.19,1.05,.4,.21,.88,.31,1.31,.31,.43,0,.81-.09,1.12-.21,.31-.12,.55-.26,.77-.41l.04-.03c.17-.12,.37-.28,.57-.52,.2-.24,.43-.58,.56-1.03l-2.4-.7,2.39,.74c.09-.29,.12-.56,.12-.8-.01-.65-.19-1.03-.32-1.32h0c-.07-.15-.15-.31-.24-.47h0s-.07-.13-.15-.31h0c-.03-.07-.06-.15-.08-.25l-2.44,.54,2.46-.47-2.46,.47-2.44,.54c.09,.4,.22,.79,.38,1.17h0c.12,.27,.22,.49,.36,.73h0c.05,.1,.1,.18,.14,.26h0l1.81-.91h-2.01c.01,.54,.15,.77,.2,.9l1.81-.9h.28l-2.19-.68c-.08,.25-.1,.49-.1,.68h2.29l-2.19-.68v.04l2.11,.62-1.68-1.44c-.14,.17-.33,.44-.44,.82l2.12,.62-1.68-1.44,1.42,1.21-1.08-1.52c-.08,.05-.19,.14-.34,.31l1.42,1.21-1.08-1.52,1.45,2.04-1.41-2.06,.72,1.05-.45-1.19c-.15,.06-.23,.11-.26,.13l.72,1.05-.45-1.19,.67,1.75v-1.87c-.29,0-.52,.06-.67,.12l.67,1.75v.2l.92-1.85c-.28-.15-.63-.22-.92-.22v2.06l.92-1.85-.78,1.55,1.44-1.01c-.07-.08-.22-.31-.66-.54l-.78,1.56,1.44-1.01-.46,.33,.5-.26-.04-.06-.46,.33,.5-.26-.03-.07h0c-.05-.11-.11-.25-.2-.45h0c-.05-.11-.08-.19-.09-.21h0c-.05-.14-.11-.3-.17-.47h0v-.02l-.89,.29,.91-.1c-.02-.14-.04-.18-.03-.18l-.88,.29,.91-.1h0v-.08h-1.83l1.76,.46c.05-.19,.06-.35,.06-.46h-1.82l1.76,.46-1.96-.52,1.69,1.12c.13-.2,.22-.42,.27-.6l-1.96-.52,1.69,1.12h0l-1.64-1.09,.78,1.81c.3-.12,.65-.4,.86-.72l-1.64-1.1,.78,1.81-.99-2.3,.77,2.38-.47-1.44,.41,1.46,.06-.02-.47-1.44,.41,1.46-.03-.11,.03,.11h0l-.03-.11,.03,.11,.11-.03h0l-.27-1.12,.18,1.13,.09-.02-.27-1.11,.18,1.13-.32-2.01v2.03c.18,0,.26-.02,.32-.02l-.32-2.01v-.31l-.37,2.31c.16,.03,.28,.03,.37,.03v-2.34l-.37,2.31,.38-2.41-1.06,2.19c.3,.14,.51,.18,.68,.21l.38-2.41-1.06,2.19,1.09-2.25-1.48,2.02,.16,.12,1.48-2.02-1.59,1.93,1.3-1.58-1.78,1c.08,.15,.23,.36,.49,.58l1.3-1.58-1.78,1,1.29-.72-1.42,.43s.05,.14,.13,.29l1.29-.72-1.42,.43h0s.05,.18,.09,.42l.02,.07,2.44-.54Z"/><path class="e" d="M14.52,5.4l2.48-.34c-.08-.57-.12-1.01-.14-1.27h0v-.06h0l-.62-.03,.61,.11v-.09l-.61-.02,.61,.11-1.54-.28,1.43,.63c.07-.17,.1-.28,.11-.35l-1.54-.28,1.43,.63h0l-1.22-.54,1.08,.77c.1-.14,.13-.21,.14-.23l-1.22-.53,1.08,.77-1.75-1.24,1.02,1.88c.45-.25,.62-.5,.73-.63l-1.75-1.24,1.02,1.88h.01l-.68-1.24,.48,1.33s.05-.01,.2-.1l-.68-1.24,.48,1.33h.02l.07-.03c.1-.03,.15-.04,.24-.08l-.27-.68,.2,.71,.07-.02-.27-.68,.2,.71-.08-.27,.06,.28h.02l-.08-.28,.06,.28h.12c.1-.02,.21-.02,.32-.02,.11,0,.22,0,.34,.01h0c.3,.02,.55,.04,.73,.06,.18,.02,.31,.04,.36,.06,.1,.02,.22,.04,.32,.05l.17-1.81-.68,1.68c.22,.09,.39,.12,.51,.13l.17-1.81-.68,1.68,.79-1.94-1.76,1.13c.24,.38,.65,.69,.97,.81l.79-1.94-1.76,1.13,1.65-1.06-1.97,.1c0,.21,.07,.58,.32,.96l1.65-1.06-1.97,.1v-.02l1.32-.06h-1.32v.06l1.32-.06h-.56l-.77-.05v.05h.77l-.77-.05h0c0,.11-.08,.49-.21,1.01v.04c-.25,1-.4,2.11-.5,3.39-.05,.66-.08,1.24-.08,1.77,0,.48,.02,.91,.09,1.37v.05c.06,.29,.15,.6,.32,.94,.17,.34,.43,.71,.8,1.01h0c.23,.18,.51,.36,.84,.49,.33,.13,.71,.21,1.08,.21,.11,0,.22,0,.32-.02h-.01l-.18-1.73v1.74h.18l-.18-1.74v.14l-.6,1.49c.14,.06,.35,.11,.6,.11v-1.6l-.6,1.49,.74-1.87-1.47,1.37c.2,.22,.48,.4,.72,.49l.74-1.87-1.47,1.37,1.41-1.32-1.81,.67c.07,.19,.2,.43,.4,.65l1.41-1.32-1.81,.67,.07,.18,.76-.35-.8,.27,.03,.08,.76-.35-.8,.27h0s.03,.1,.05,.23h0c.03,.21,.05,.45,.05,.72,0,.15-.02,.25-.04,.32h0l.97,.32-.81-.61c-.11,.15-.15,.26-.16,.29l.97,.32-.81-.61,1.26,.94-.73-1.39c-.23,.12-.42,.3-.53,.45l1.26,.94-.73-1.39-.1,.06,.45,.77-.21-.87s-.09,.02-.24,.11l.45,.77-.21-.87h-.03l-.12,.02h-.18c-.18,0-.37-.01-.57-.05-.18-.03-.29-.08-.4-.15h0l-.34,.54,.49-.4c-.08-.1-.15-.14-.15-.14l-.34,.54,.49-.4-.91,.75,1.13-.32c-.04-.16-.14-.33-.22-.43l-.91,.75,1.13-.32v.02l-.6,.16,.62-.12v-.05l-.62,.16,.62-.12s-.02-.15-.03-.37c-.01-.22-.02-.52-.02-.89,0-.5,.01-1.13,.05-1.87h0c.04-.9,.06-1.71,.06-2.44,0-.98-.03-1.8-.11-2.52v-.07l-2.49,.34-2.49,.27c.05,.45,.08,1.12,.08,1.98,0,.64-.02,1.39-.05,2.23h0c-.03,.79-.05,1.48-.05,2.07,0,.5,.01,.93,.04,1.33,.03,.4,.06,.74,.18,1.19v.02c.15,.51,.41,1,.73,1.39,.33,.4,.7,.7,1.09,.94h0c.65,.4,1.39,.68,2.13,.81,.48,.09,.98,.14,1.47,.14,.16,0,.33,0,.5-.02,.67-.05,1.36-.15,2.14-.59l-1.27-2.15,1.17,2.21c.47-.24,.87-.61,1.15-.99,.28-.38,.47-.78,.59-1.15h0c.2-.61,.29-1.25,.29-1.87,0-.51-.04-1.01-.12-1.5h0c-.08-.48-.17-.91-.4-1.44l-2.27,1.04,2.35-.86c-.12-.34-.33-.71-.64-1.04-.3-.33-.7-.59-1.08-.74-.36-.15-.8-.25-1.26-.25-.11,0-.22,0-.33,.02h-.01l.22,2.01v-2.02h-.22l.22,2.02v.02l.75-1.9c-.22-.09-.49-.14-.75-.14v2.04l.75-1.9-.7,1.78,1.22-1.47c-.12-.1-.3-.22-.52-.3l-.7,1.78,1.22-1.47h0l-1.21,1.47,1.71-.86c-.09-.18-.25-.42-.5-.62l-1.21,1.48,1.71-.86-1.26,.63,1.38-.26c-.01-.06-.04-.19-.13-.37l-1.26,.63,1.38-.26-2.46,.46,2.47-.41s-.03-.23-.03-.54c0-.34,.02-.81,.06-1.39,.08-1.1,.21-1.97,.37-2.6l-2.43-.59,2.42,.62c.11-.42,.19-.79,.26-1.13,.06-.35,.11-.65,.12-1.07v-.19c-.02-.28-.07-.61-.21-.96-.19-.52-.62-1.07-1.12-1.38-.5-.32-1-.44-1.39-.48l-.24,2.49,.56-2.44c-.31-.07-.61-.12-.91-.15-.31-.04-.64-.06-1-.09h0C16.81,0,16.59,0,16.37,0c-.22,0-.44,0-.65,.02h0c-.51,.03-1.02,.11-1.57,.33l.93,2.32-.69-2.4c-.14,.04-.27,.08-.41,.13-.14,.05-.29,.11-.52,.23h.01c-.52,.29-.78,.61-.96,.85-.18,.25-.28,.46-.37,.66h0c-.28,.65-.3,1.14-.3,1.58,0,.12,0,.24,.01,.36h0c.03,.46,.09,1,.18,1.65l2.48-.34-2.49,.27,2.49-.27Z"/><path class="e" d="M20.07,8.29l2.33-.89c-.06-.16-.1-.28-.11-.36v-.07h-1.12l.93,.58c.16-.26,.18-.51,.18-.56h-1.11l.93,.56-1.08-.66,.53,1.17c.13-.05,.39-.24,.55-.51l-1.08-.66,.53,1.17-1.04-2.27,.45,2.46c.61-.11,1.05-.15,1.11-.15h0l.02-.94-.14,.93h.12l.02-.93-.14,.93,.31-2.02-1.13,1.69c.46,.29,.7,.31,.82,.33l.31-2.02-1.13,1.69,1.31-1.95-2.03,1.18c.21,.37,.49,.61,.71,.76l1.31-1.95-2.03,1.18,2.05-1.2h-2.38c0,.38,.11,.84,.33,1.2l2.05-1.2h0l-2.26-.74c-.04,.15-.11,.35-.12,.74h2.38l-2.26-.74,1.86,.61-1.69-.99c-.03,.05-.08,.13-.16,.37l1.86,.61-1.69-.99,.6,.35-.58-.39-.03,.04,.6,.35-.58-.39s-.09,.13-.22,.28l-.15,.2-.08,.13,2.08,1.39-2.01-1.49c-.21,.28-.39,.6-.53,.98-.14,.37-.21,.79-.21,1.2,0,.34,.05,.68,.14,.99h0c.09,.26,.19,.61,.56,1.06,.19,.22,.46,.47,.82,.66,.36,.19,.81,.3,1.21,.29,.4,0,.75-.09,1.01-.2,.39-.16,.63-.35,.82-.51,.18-.16,.31-.3,.42-.44h-.01c.36-.43,.56-.84,.75-1.27l-2.3-.98,2.23,1.12v-.02h.01l-.09-.07,.09,.09h0l-.09-.09,.09,.09-.35-.35,.31,.39,.05-.04-.35-.35,.31,.39h0l-.39-.49,.24,.59,.15-.09-.39-.5,.24,.59h-.01c.12-.04,.22-.08,.27-.09l-.21-.69,.16,.7h.05l-.21-.7,.16,.7-.03-.11,.02,.11h0l-.03-.11,.02,.11h.1c.19-.03,.34-.04,.44-.05h0s.14,0,.26,.01c.23,.01,.4,.02,.53,.03h-.02c.09,0,.25,.02,.47,.04h-.01c.1,0,.18,.02,.23,.02h.04l.17-1.21-.24,1.2h.06l.17-1.2-.24,1.2c.1,.02,.26,.04,.37,.04,.11,0,.19,.01,.23,.02h.03l.13-.79-.19,.78h.06l.13-.78-.19,.78,.16-.68-.35,.61s.06,.03,.18,.06l.16-.68-.35,.61h0l.82-1.45-1.47,.74c.17,.36,.48,.61,.65,.7l.82-1.45-1.47,.74h0l.76-.39-.78,.32,.03,.06,.76-.38-.78,.32h0s.03,.09,.05,.18h0c.02,.07,.05,.24,.06,.49h0c.02,.36,.04,.82,.07,1.37l2.5-.13-2.5,.06c0,.25,0,.49,0,.72s0,.43,0,.62h0c-.01,.34-.04,.62-.08,.82h0l-.03,.14v.02h0l.09,.05-.09-.05h0l.09,.05-.09-.05h0l.44,.24-.3-.4-.14,.16,.44,.24-.3-.4h0l.22,.29-.15-.33-.06,.04,.22,.29-.15-.33-.09,.03h-.01c-.13,.04-.38,.09-.74,.11h-.19c-.11,0-.18,0-.22-.01h0l-.07-.02h-.02l-.22,.63,.36-.56c-.09-.06-.14-.07-.14-.07l-.22,.63,.36-.56h0l-.2-.16h0l-.03-.03h0l-.57,.52,.65-.41-.08-.11-.57,.52,.65-.41c-.21-.34-.5-.67-.83-.94h0c-.14-.11-.31-.23-.55-.36-.24-.12-.55-.27-1.06-.33h-.26c-.58,0-.91,.14-1.16,.25-.25,.11-.42,.23-.57,.33-.12,.08-.23,.18-.33,.28-.21,.21-.42,.47-.61,.82-.18,.34-.32,.78-.34,1.25l2.5,.12-2.49-.16v.18c0,.47,.11,.9,.27,1.24,.16,.34,.34,.6,.52,.81h0c.23,.27,.48,.51,.75,.73h0c.28,.23,.57,.43,.88,.62h-.01c.25,.15,.5,.29,.74,.42,.21,.11,.4,.2,.59,.29l.05,.02,.59-1.4-.91,1.22c.16,.12,.26,.16,.32,.19l.59-1.4-.91,1.22,1.22-1.63-1.76,1.02c.18,.3,.39,.5,.54,.61l1.22-1.63-1.76,1.02v-.02l1.8-1.03h-2.08c0,.44,.14,.81,.27,1.03l1.81-1.03h.08l-2.1-.48c-.03,.15-.05,.31-.05,.48h2.16l-2.1-.48h0c-.06,.26-.08,.46-.11,.71-.02,.2-.03,.4-.03,.61,0,.13,0,.27,.02,.41l.02,.18v.08h.98l-.96-.15v.15h.96l-.96-.15v-.02l2.01,.33-1.52-1.36c-.23,.25-.44,.66-.49,1.04l2.01,.33-1.52-1.36,1.3,1.17-.72-1.6c-.13,.06-.35,.18-.58,.44l1.3,1.17-.72-1.6,.4,.88-.34-.91-.06,.02,.4,.88-.34-.91,.07,.19-.06-.19h0l.07,.19-.06-.19s-.27,.08-.63,.14l.43,2.46-.3-2.48c-.36,.04-.67,.06-.92,.06h-.21l-.04,.99,.44-.88c-.17-.09-.33-.11-.39-.11l-.04,.99,.44-.88-.53,1.08,.96-.73c-.08-.12-.25-.26-.42-.34l-.53,1.08,.96-.73h0l-.92,.7,1.12-.31c-.02-.09-.09-.24-.2-.39l-.92,.71,1.12-.31-.56,.16,.58-.07-.02-.09-.56,.16,.58-.07h0v-.14l-2.48-.27,2.48,.32c.11-.85,.16-1.82,.16-2.95,0-.44,0-.9-.02-1.39h0c-.03-.9-.08-1.69-.18-2.4-.1-.71-.22-1.34-.46-1.97h0l-2.33,.89-2.34,.89c.03,.07,.12,.38,.18,.85,.06,.47,.11,1.11,.13,1.88h0c.01,.45,.02,.86,.02,1.25,0,.99-.04,1.77-.11,2.3v.05c-.03,.22-.04,.45-.04,.67,0,.41,.04,.83,.17,1.27,.12,.44,.33,.9,.65,1.31h0c.34,.44,.8,.84,1.33,1.09,.53,.26,1.09,.38,1.6,.4h0c.15,0,.29,0,.44,0,.49,0,1-.04,1.52-.1l.13-.02c.32-.06,.61-.12,.89-.19,.28-.07,.54-.15,.87-.29,.34-.16,.73-.39,1.09-.79,.36-.39,.64-.95,.72-1.5v-.02c.04-.22,.05-.42,.05-.61,0-.29-.03-.56-.07-.82l-2.47,.37,2.49-.19v-.09l.02-.14v-.02l-.65-.12,.65,.15v-.03l-.65-.12,.65,.15h0c.05-.19,.07-.41,.07-.63,0-.57-.18-1.08-.39-1.44v-.02c-.24-.4-.54-.69-.8-.88-.27-.2-.52-.32-.74-.42l-.97,2.31,1.02-2.28c-.06-.03-.17-.08-.31-.15-.1-.05-.25-.14-.43-.25h-.01c-.12-.08-.21-.15-.27-.2h0l-.15-.15h0l-1.21,1.04,1.45-.66c-.09-.2-.18-.32-.24-.38l-1.21,1.04,1.45-.66-1.83,.83h2c0-.34-.08-.63-.18-.83l-1.83,.83h-.13l2.13,.14v-.14h-2.13l2.13,.14v-.04l-1.99-.1,1.77,.93c.11-.2,.21-.5,.22-.83l-1.99-.1,1.77,.93-1.44-.75,1.15,1.15c.07-.07,.18-.19,.29-.4l-1.44-.75,1.15,1.15-1.77-1.77,1.43,2.05-.81-1.16,.58,1.29c.15-.07,.2-.11,.23-.13l-.81-1.16,.58,1.29-.91-2v2.19c.51,0,.76-.13,.91-.19l-.91-2v-.16l-.23,2.34h.23v-2.34l-.23,2.34h0l.21-2.16-1.03,1.92c.15,.07,.38,.2,.82,.25l.21-2.16-1.03,1.92,.72-1.34-.97,1.19s.1,.08,.24,.16l.72-1.34-.97,1.19h0l.71-.87-.96,.61c.05,.07,.13,.18,.25,.27l.71-.88-.96,.61c.25,.39,.52,.68,.8,.94h0c.28,.25,.57,.48,.89,.68h0c.56,.35,1.1,.52,1.62,.63h0c.42,.09,.85,.13,1.27,.13,.17,0,.34,0,.51-.02l-.18-2.49,.14,2.5c.62-.04,1.21-.11,1.8-.28h-.01c.59-.16,1.19-.41,1.74-.83h0c.51-.38,.95-.89,1.25-1.45h0c.29-.53,.47-1.09,.57-1.66h0c.09-.5,.14-1.01,.15-1.54h0c0-.25,.01-.51,.01-.78s0-.55-.01-.84v-.06c-.03-.56-.06-1.03-.08-1.41h0c-.03-.49-.09-.97-.21-1.45h0c-.1-.37-.19-.69-.39-1.1h0c-.32-.65-.85-1.13-1.35-1.41h0c-.32-.19-.69-.34-1.11-.44-.43-.1-.75-.12-1.13-.14l-.12,2.5,.48-2.45c-.16-.03-.25-.04-.36-.05-.1-.01-.22-.02-.34-.04h-.01c-.24-.02-.43-.04-.58-.05h-.02c-.11,0-.29-.02-.52-.03-.19-.01-.37-.02-.55-.02-.09,0-.18,0-.27,0h-.02c-.18,.01-.39,.03-.63,.05h-.01c-.32,.03-.64,.08-1.01,.19-.23,.07-.45,.15-.67,.24h-.01c-.36,.15-.71,.34-1.05,.6h0c-.3,.24-.55,.49-.77,.77h0c-.22,.29-.42,.59-.57,.9l-.07,.14-.07,.14h0l.62,.38-.56-.46-.06,.08,.62,.38-.56-.46h-.01l1.24,1.01-.94-1.28c-.21,.16-.27,.24-.3,.27l1.24,1-.94-1.28,1.29,1.75-.82-2.01c-.22,.09-.36,.18-.47,.26l1.29,1.75-.82-2.01,.88,2.16v-2.33c-.36,0-.66,.08-.88,.17l.88,2.16v.05l1.09-2.11c-.32-.17-.73-.27-1.09-.27v2.38l1.09-2.11-1.06,2.05,1.97-1.21c-.14-.23-.41-.58-.91-.84l-1.06,2.05,1.97-1.21-1.67,1.03,1.89-.54c-.03-.1-.08-.25-.22-.49l-1.67,1.03,1.89-.54h0l-1.4,.4h1.46c0-.15-.02-.29-.06-.41l-1.4,.41h-.02l1.39,.51c.05-.14,.09-.32,.09-.51h-1.48l1.39,.51-1.06-.39,.91,.67c.04-.05,.1-.15,.15-.29l-1.06-.39,.91,.67,.07-.1,.08-.13-2.08-1.39,1.93,1.59c.19-.23,.35-.43,.5-.66,.08-.12,.16-.24,.25-.43,.05-.1,.1-.21,.16-.39,.05-.18,.13-.41,.13-.82,0-.3-.06-.64-.18-.96-.22-.56-.62-.98-.95-1.2-.51-.34-.88-.41-1.16-.47-.29-.05-.51-.06-.72-.06-.64,0-1.23,.09-2,.23-.21,.04-.4,.1-.59,.18-.61,.27-1.25,.78-1.65,1.44-.41,.66-.55,1.4-.55,2.03,0,.81,.19,1.51,.46,2.2h0l2.34-.89Zm4.92,0v-2.5c-.69,0-1.29,.24-1.71,.5h-.01c-.37,.24-.72,.55-.99,.91v-.02c-.15,.21-.29,.42-.42,.63h0c-.17,.28-.32,.59-.44,.92v-.02c-.05,.15-.1,.28-.14,.38h0c-.07,.19-.15,.37-.22,.71l2.45,.48-2.37-.79-.04,.13c-.38,1.14,.11,2.39,1.16,2.98,1.05,.58,2.37,.33,3.14-.59l.02-.03-.69-.65,.57,.76,.12-.1-.69-.65,.57,.76-1.12-1.49,.61,1.76c.27-.1,.41-.2,.5-.26l-1.12-1.49,.61,1.76-.28-.79,.15,.83,.12-.04-.28-.79,.15,.83h.09c.54-.06,1.02-.2,1.48-.38h.03c.29-.13,.58-.29,.87-.51,.29-.22,.56-.5,.78-.83h0c.28-.4,.55-1.01,.55-1.74,0-.27-.04-.54-.1-.78h0c-.11-.43-.33-.82-.58-1.13-.25-.31-.54-.55-.82-.72h0c-.61-.39-1.3-.52-1.86-.52h-.23l.14,2.5v0l.14,2.5-.05-.95v.96h.05l-.05-.96v-.53l-.78,1.25c.31,.2,.64,.24,.78,.24v-1.49l-.78,1.25h0l.89-1.43-1.3,1.06c.15,.18,.3,.3,.41,.37l.89-1.43-1.3,1.06,1.49-1.21-1.85,.51c.07,.27,.21,.52,.36,.7l1.49-1.21-1.85,.51h0l1.94-.53h-2.01c0,.18,.03,.37,.07,.53l1.94-.53h-.16l-1.55-1.04c-.12,.17-.3,.55-.3,1.04h1.85l-1.55-1.04h0l1.3,.88-.95-1.25c-.11,.08-.25,.22-.36,.38l1.3,.86-.95-1.25,.69,.9-.43-1.05s-.14,.06-.25,.15l.69,.9-.43-1.05,.95,2.31-.93-2.32-.1,.03h0l.05,.25-.02-.25h-.03l.05,.25-.02-.25h.01c-.37,.03-.73,.08-1.18,.23-.5,.18-.79,.41-1.03,.6-.24,.2-.41,.4-.57,.59l1.93,1.59,2.37,.79,.04-.13c.03-.1,.06-.2,.08-.31l-1.38-.27,1.34,.43s.02-.05,.04-.16l-1.38-.27,1.34,.43h0v-.03h.01c.06-.16,.11-.31,.17-.46v-.02l-.18-.07,.18,.09v-.02l-.18-.07,.18,.09h0l.13-.19v-.02l-.91-.71,.62,.99c.11-.07,.22-.17,.3-.28l-.93-.71,.62,.99h-.01l-.94-1.49v1.75c.44,0,.78-.15,.94-.25l-.94-1.5v1.75h.14l-.14-2.5Z"/><path class="e" d="M30.72,14.89l1.62-1.91-.97,1.15,1.41-.59s-.07-.22-.44-.55l-.97,1.15,1.41-.59-.11,.05,.11-.04h0l-.11,.04,.11-.04s-.08-.27-.14-.65c-.06-.38-.11-.9-.15-1.53h0c-.05-.87-.08-1.73-.08-2.58,0-.95,.03-1.88,.1-2.8,.06-.87,.14-1.52,.21-1.85l.04-.17v-.02l-.46-.14,.45,.18v-.04l-.45-.14,.45,.18-1.47-.6,1.31,.89c.11-.16,.14-.25,.16-.3l-1.47-.6,1.31,.89-1.82-1.24,1.1,1.89c.42-.25,.6-.5,.71-.66l-1.82-1.24,1.1,1.89-1.26-2.16,.51,2.45c.56-.12,1.19-.18,1.9-.18h.18c.42,0,.73,.03,.87,.04h.07l.2-1.05-.33,1.03c.09,.03,.13,.03,.13,.04l.2-1.06-.33,1.03,.63-1.94-1.13,1.7c.26,.17,.41,.21,.5,.25l.63-1.94-1.13,1.7c.09,.06,.17,.11,.26,.15l1.01-2.01-1.88,1.24c.15,.22,.42,.54,.87,.77l1.01-2.01-1.88,1.24,1.44-.95-1.7,.36c.02,.07,.04,.24,.26,.59l1.44-.95-1.7,.36,.66-.14-.67,.1v.03l.67-.14-.67,.1,.15-.02-.15,.02h0l.15-.02-.15,.02v.08h0v.23l.18,.03-.18-.05v.02l.18,.03-.18-.05,.65,.16-.62-.24-.02,.07,.65,.16-.62-.24,2.34,.88-2.3-.97,1.66,.7-1.29-1.25c-.17,.17-.3,.38-.37,.55l1.66,.7-1.29-1.25,1.29,1.25-.74-1.64c-.18,.08-.38,.21-.55,.39l1.29,1.25-.74-1.64h-.01l.3,.65-.27-.66h-.03l.3,.66-.27-.66,.05,.12-.04-.12h0l.05,.12-.04-.12s-.15,.05-.35,.1h0c-.49,.12-.95,.27-1.39,.48h0c-.58,.26-1.11,.7-1.47,1.2-.37,.5-.6,1.04-.74,1.56v.03c-.08,.28-.14,.57-.14,1,0,.2,.02,.43,.09,.72,.05,.21,.14,.46,.29,.72,.22,.39,.61,.79,1.07,1.03,.46,.24,.91,.31,1.26,.31,.48,0,.86-.12,1.14-.24,.42-.19,.67-.4,.89-.58,.21-.19,.37-.37,.53-.56l-1.93-1.59,1.88,1.64-.17-.15,.15,.16,.02-.02-.17-.15,.15,.16,.04-.03c.08-.06,.33-.19,.73-.31,.63-.19,1.16-.26,1.62-.26h.1c.12,0,.22,.01,.27,.02h.05l.19-.91-.44,.82c.17,.09,.24,.1,.24,.1l.19-.92-.44,.82,.88-1.66-1.58,1c.24,.37,.53,.57,.69,.66l.88-1.66-1.58,1h0l1.3-.82-1.45,.52s.04,.11,.15,.3l1.3-.82-1.45,.52,.43-.15-.44,.14h0l.43-.14-.44,.14h0c.03,.11,.11,.53,.18,1.12,.07,.6,.15,1.39,.22,2.36,.11,1.45,.16,2.55,.15,3.22,0,.23,0,.41-.01,.52v.1l.22,.03-.23-.04h0l.23,.04-.23-.04,1.06,.19-1.05-.25v.07l1.05,.19-1.05-.25,2.43,.59-2.4-.69,1.85,.53-1.5-1.2c-.15,.18-.28,.43-.35,.67l1.85,.53-1.5-1.2,1.29,1.03-.7-1.5c-.13,.06-.36,.19-.59,.48l1.29,1.03-.7-1.5,.38,.83-.26-.88-.13,.05,.38,.83-.26-.88,.08,.26-.06-.27h-.02l.08,.27-.06-.27h-.01c-.12,.02-.24,.03-.37,.03-.13,0-.27-.01-.42-.04-.2-.03-.35-.07-.43-.09l-.07-.02-.17,.43,.22-.4-.05-.03-.17,.43,.22-.4-1.21,2.19,1.33-2.12-1.21,1.94,1.8-1.4c-.12-.16-.31-.36-.59-.53l-1.21,1.94,1.8-1.4-1.53,1.19,1.84-.63c-.04-.1-.09-.27-.31-.55l-1.53,1.19,1.84-.63-.92,.32,.96-.2-.03-.12-.92,.32,.96-.2h0s-.03-.2-.03-.44h0c-.01-.34-.02-.7-.02-1.06s0-.74,.02-1.12h0c0-.2,0-.4,0-.59,0-.74-.05-1.44-.15-2.13h0c-.09-.5-.18-.98-.52-1.6-.18-.31-.44-.67-.89-.98-.43-.32-1.06-.52-1.63-.51-.09,0-.18,0-.28,.01l.24,2.49-.14-2.5c-.4,.02-.85,.14-1.23,.35-.58,.31-.96,.77-1.18,1.16-.23,.4-.34,.75-.42,1.08-.13,.55-.17,1.1-.17,1.66,0,.2,0,.41,.02,.61h0c.04,.67,.09,1.34,.17,2h0c.07,.62,.13,1.18,.19,1.69h0c.02,.14,.03,.26,.03,.34v.12h1.17l-1.16-.09v.09h1.16l-1.16-.09,2.05,.16-1.99-.5c-.04,.18-.05,.27-.06,.33l2.05,.16-1.99-.5,2.43,.61-2.42-.64,2.02,.54-1.63-1.31c-.15,.18-.31,.46-.39,.78l2.02,.54-1.63-1.31,1.31,1.05-.8-1.49c-.09,.05-.28,.16-.51,.43l1.31,1.05-.8-1.49,.36,.66-.27-.7-.08,.04,.36,.66-.27-.7h-.03s-.13,.04-.3,.04c-.08,0-.17,0-.28-.02h0c-.12-.01-.17-.03-.17-.03l-.14,.36,.24-.29-.11-.07-.14,.36,.24-.29h0l-1.62,1.91-1.61,1.91c.41,.34,.87,.6,1.33,.78,.47,.18,.94,.28,1.41,.33h0c.27,.03,.54,.04,.81,.04,.57,0,1.15-.07,1.72-.24h0c.38-.12,.78-.26,1.22-.56,.22-.15,.46-.35,.69-.63,.23-.28,.44-.65,.55-1.08v-.04c.06-.22,.08-.36,.09-.48,0-.12,.01-.22,.01-.31,0-.34-.03-.63-.07-1.02h0c-.06-.51-.12-1.07-.19-1.69h0c-.07-.58-.11-1.15-.15-1.72h0c0-.13-.01-.24-.01-.33,0-.27,.03-.46,.04-.52l-1.32-.31,1.03,.83c.26-.34,.27-.51,.28-.52l-1.32-.31,1.03,.83-1.57-1.27,.96,1.77c.27-.15,.48-.34,.61-.51l-1.57-1.27,.96,1.77-.99-1.84,.11,2.09c.28-.01,.61-.1,.88-.25l-.99-1.84,.11,2.09h.11l-.21-2.15v2.15h.21l-.21-2.15v-.02l-1.24,1.78c.32,.23,.82,.4,1.24,.39v-2.17l-1.24,1.78,1.15-1.63-1.64,1.15c.1,.14,.25,.32,.49,.49l1.15-1.63-1.64,1.15,1.09-.76-1.27,.41s.04,.15,.19,.35l1.09-.76-1.27,.41h0l.02,.09h0c.06,.39,.09,.85,.09,1.36,0,.14,0,.28,0,.42h0c-.02,.44-.02,.87-.02,1.29,0,.42,0,.84,.02,1.24h0c.02,.46,.05,.86,.14,1.31,.05,.23,.11,.48,.26,.8,.08,.16,.18,.34,.34,.55,.16,.2,.38,.43,.7,.64l.12,.07c.72,.38,1.35,.52,2.06,.65,.4,.07,.81,.1,1.23,.1,.41,0,.82-.03,1.23-.1,.47-.09,.98-.22,1.53-.56,.27-.17,.56-.41,.8-.72,.25-.31,.44-.68,.55-1.07l.03-.1c.08-.34,.1-.59,.12-.86,.02-.27,.02-.55,.03-.86,0-.9-.06-2.07-.17-3.58-.09-1.29-.19-2.32-.31-3.14-.06-.41-.12-.77-.21-1.12-.04-.17-.09-.35-.16-.54-.07-.19-.15-.4-.33-.68h0c-.27-.44-.63-.75-.95-.95-.49-.31-.93-.43-1.33-.52-.4-.08-.78-.11-1.18-.13h-.24c-1.01,0-2.03,.17-3.05,.47-.58,.17-1.12,.39-1.64,.68-.52,.29-1.01,.66-1.44,1.14l-.04,.05-.03,.04h0l.81,.8-.6-.96c-.17,.11-.21,.16-.22,.16l.81,.79-.6-.96,1.04,1.66-.65-1.85c-.18,.06-.3,.13-.39,.19l1.04,1.66-.65-1.85,.73,2.09v-2.21c-.31,0-.55,.06-.73,.12l.73,2.09v.07l.93-2.08c-.36-.16-.69-.2-.93-.2v2.28l.93-2.08-.96,2.13,1.69-1.62c-.2-.22-.47-.4-.73-.52l-.96,2.13,1.69-1.62-1.65,1.58,2.2-.64c-.07-.26-.23-.61-.55-.94l-1.65,1.58,2.2-.64-1.94,.56h2.02c0-.12,0-.3-.08-.56l-1.94,.56h.61l1.4,.22s.01-.1,.02-.22h-1.42l1.4,.22-.63-.1,.63,.13v-.03l-.63-.1,.63,.13-.12-.03,.12,.03h0l-.12-.03,.12,.03h0l-2.42-.63,2.41,.65v-.02l-.59-.21,.48,.4c.09-.11,.12-.19,.12-.19l-.59-.21,.48,.4-.85-.71,.47,1c.14-.06,.29-.18,.38-.29l-.85-.71,.47,1h0c.09-.04,.23-.1,.43-.15h0c.42-.11,.78-.2,1.21-.4h-.01c.34-.15,.69-.38,.98-.68,.29-.3,.51-.65,.65-.99l.03-.09c.23-.63,.3-1.22,.3-1.8,0-.11,0-.22,0-.33h0c-.02-.35-.05-.7-.18-1.16-.07-.23-.17-.49-.37-.81-.2-.31-.54-.69-1.06-.95l-1.12,2.23,1.39-2.08c-.48-.3-.75-.35-.99-.42-.36-.08-.64-.11-.96-.14-.32-.02-.66-.04-1.05-.04h-.25c-1.01,0-1.98,.09-2.91,.28-.27,.06-.51,.15-.75,.29-.49,.29-.74,.61-.91,.86-.29,.44-.38,.75-.48,1.05-.13,.45-.21,.88-.28,1.38-.07,.5-.12,1.07-.17,1.72-.07,1.04-.11,2.1-.11,3.16,0,.95,.03,1.91,.09,2.88h0c.07,1.05,.16,1.91,.32,2.67,.08,.39,.18,.75,.34,1.14,.17,.39,.38,.83,.94,1.32h0l1.61-1.91Z"/><path class="e" d="M40.65,9.08l1.35-2.1-1.21,1.87,1.95-1.07c-.12-.21-.34-.53-.75-.8l-1.21,1.87,1.95-1.07-1.44,.79,1.63-.25c-.01-.06-.02-.21-.2-.54l-1.44,.79,1.63-.25-.5,.08,.51-.05v-.02l-.51,.08,.51-.05v-.09c0-.11,0-.3,.03-.54h0c.02-.19,.04-.35,.06-.45l.03-.13-.63-.16,.61,.23,.02-.07-.63-.16,.61,.23-1.77-.67,1.43,1.23c.26-.31,.31-.48,.34-.56l-1.77-.67,1.43,1.23-1.74-1.5,1.1,2.01c.31-.17,.51-.36,.64-.52l-1.74-1.5,1.1,2.01-1.14-2.09v2.38c.41,0,.84-.12,1.14-.29l-1.14-2.09v0l-.17,2.38h.17v-2.38l-.17,2.38c.65,.05,1.28-.16,1.78-.57,.05-.06,.43-.28,1.26-.37,.37-.04,.72-.06,1.05-.06,.46,0,.88,.04,1.25,.12,.17,.03,.3,.07,.39,.1l.12,.04h0l.34-.74-.52,.62c.12,.1,.17,.12,.17,.12l.34-.74-.52,.62,1.1-1.33-1.55,.74c.15,.3,.33,.49,.45,.58l1.1-1.33-1.55,.74,.08,.15,1.29-.73-1.43,.4s.03,.12,.14,.32l1.29-.73-1.43,.4,.37-.1-.37,.09h0l.37-.09-.37,.09v.06c.03,.13,.07,.41,.09,.8,.05,.8,.07,1.58,.07,2.33s-.01,1.65-.03,2.62h0c-.01,.49-.02,.87-.02,1.14,0,.28,0,.42,0,.53h1.53l-1.48-.39c-.05,.17-.05,.3-.05,.39h1.53l-1.48-.39,1.83,.48-1.55-1.08c-.15,.21-.23,.43-.28,.6l1.83,.48-1.55-1.08h0l1.56,1.08-.63-1.78c-.38,.12-.76,.44-.93,.71l1.56,1.07-.63-1.78h0l.34,.97-.04-1.04s-.11,0-.3,.07l.34,.97-.04-1.04h0c-.17-.02-.33-.04-.5-.06h.01c-.22-.03-.41-.05-.7-.05h-.12l.07,1.44v-1.44h-.07l.07,1.44v.44l.96-1.6c-.4-.24-.77-.28-.96-.28v1.87l.96-1.6-1.04,1.72,1.87-.76c-.12-.31-.43-.73-.83-.96l-1.04,1.72,1.87-.76h0l-1.32,.54h1.42c0-.15-.03-.36-.11-.53l-1.32,.53h.35l1.04,.26c.01-.06,.03-.15,.03-.26h-1.07l1.04,.26h0c.11-.43,.18-.87,.19-1.33h0v-.11c0-.31-.01-.68-.24-1.24-.12-.28-.31-.61-.64-.91-.32-.3-.76-.55-1.19-.64l-.59,2.43,.62-2.42c-.19-.05-.42-.08-.66-.08-.35,0-.73,.07-1.07,.22-.51,.22-.87,.58-1.09,.88-.22,.3-.33,.56-.41,.79h0c-.15,.45-.22,.89-.23,1.31h.36l-.36-.06v.06h.36l-.36-.06v.04h-.01l1.16,.39-1-.69c-.1,.14-.14,.25-.16,.31l1.16,.39-1-.69,1.38,.95-.93-1.39c-.2,.13-.35,.3-.45,.44l1.38,.95-.93-1.39-.05,.04,.57,.81-.35-.94s-.09,.03-.23,.13l.57,.81-.35-.94h0c-.06,.02-.45,.09-1.03,.1h-.15c-.36,0-.61-.03-.66-.05h0l-.4,1.22,.87-.91c-.26-.24-.44-.3-.48-.31l-.4,1.22,.87-.91-1.73,1.81,1.94-1.58-1.19,.97,1.41-.63c-.03-.06-.08-.17-.21-.34l-1.19,.97,1.41-.63-.51,.23,.54-.17-.03-.06-.51,.23,.54-.17s-.05-.2-.08-.49h0c-.02-.19-.03-.37-.03-.54,0-.29,.03-.56,.08-.84h0c.02-.09,.03-.15,.04-.17h0l-.46-.16,.43,.21,.03-.06-.46-.16,.43,.21-1.27-.63,1.03,.97c.15-.16,.22-.28,.25-.34l-1.27-.63,1.03,.97-1.39-1.32,.68,1.78c.31-.12,.56-.31,.71-.47l-1.39-1.32,.68,1.78-.89-2.34,.7,2.4-.13-.45,.1,.46h.03l-.13-.46,.1,.46s.14-.03,.35-.04c.21-.02,.49-.03,.83-.04h0c.49,0,.92-.03,1.33-.07,.41-.04,.78-.1,1.23-.24l-.76-2.38,.7,2.4c.49-.14,1-.41,1.41-.78,.41-.37,.71-.81,.91-1.25h0c.27-.61,.41-1.28,.41-1.94,0-.12,0-.24-.01-.34h0c-.05-.65-.2-1.3-.5-1.92l-.03-.06c-.09-.17-.18-.34-.4-.61-.11-.13-.26-.3-.54-.5-.14-.1-.32-.21-.57-.3-.24-.09-.55-.17-.91-.17-.45,0-.95,.14-1.31,.36-.55,.34-.8,.74-.95,1-.14,.28-.2,.47-.24,.63l2.43,.6-2.35-.84c-.06,.17-.08,.25-.09,.32-.04,.2-.06,.31-.09,.47v.05c-.04,.24-.08,.42-.11,.55l-.04,.14v.03h-.01l2.27,1.04-2.22-1.16,1.32,.69-.74-1.31c-.14,.07-.41,.29-.58,.62l1.32,.69-.74-1.31,.34,.61-.22-.67-.12,.06,.34,.61-.22-.67,.02,.05v-.05h-.02l.02,.05v-.05h-.07c-.23,.05-.44,.07-.63,.07-.11,0-.22,0-.32-.02-.21-.02-.37-.05-.42-.06h-.02l-.36,1.38,.68-1.24c-.25-.13-.32-.13-.33-.14l-.36,1.38,.68-1.24-1.2,2.19,1.35-2.1-1.35,2.1-1.2,2.19c.25,.13,.43,.2,.6,.25,.25,.08,.45,.12,.67,.16,.21,.04,.43,.07,.67,.1,.3,.04,.6,.05,.9,.05,.5,0,1-.05,1.5-.14h0c.49-.09,.99-.23,1.51-.52,.52-.28,1.06-.77,1.4-1.42l.06-.12c.32-.7,.45-1.37,.56-2.13l-2.48-.34,2.47,.39,.02-.14-.76-.14,.75,.17v-.03l-.75-.14,.75,.17-2.05-.47,1.98,.71c.05-.15,.06-.2,.07-.23l-2.05-.47,1.98,.71c.04-.1,.05-.14,.07-.24l-2.23-.55,1.86,1.34c.28-.41,.33-.64,.37-.79l-2.23-.55,1.86,1.34-1.97-1.42,1.25,2.09c.35-.21,.58-.46,.72-.66l-1.97-1.42,1.25,2.09-1.26-2.11v2.46c.43,0,.92-.13,1.26-.35l-1.26-2.11v.01l-.87,2.29c.23,.09,.53,.16,.87,.16v-2.45l-.87,2.29,.85-2.22-1.6,1.76c.14,.12,.35,.3,.75,.46l.85-2.22-1.6,1.76,1.39-1.52-1.71,1.15c.05,.07,.12,.18,.32,.37l1.39-1.52-1.71,1.15,.86-.58-.92,.49,.06,.09,.86-.58-.92,.49,2.21-1.17-2.24,1.11,.3-.15-.31,.11v.03l.31-.15-.31,.11,.09-.03-.09,.02h0l.09-.02-.09,.02v.1h.01l.03-.02h.25l-.25-.11-.02,.11h.27l-.25-.11h0l1.14,.51-.83-.92c-.17,.15-.27,.31-.31,.41l1.14,.51-.83-.92,.93,1.03-.39-1.33c-.16,.04-.37,.15-.54,.3l.93,1.03-.39-1.33-.06,.02,.15,.48-.12-.49h-.04l.15,.49-.12-.49s-.13,.03-.33,.04c-.2,.02-.48,.03-.82,.04h0c-.48,0-.9,.03-1.3,.06-.4,.04-.75,.08-1.17,.2l-.19,.06c-.44,.17-.82,.44-1.09,.72-.41,.42-.63,.85-.79,1.23-.15,.39-.25,.75-.32,1.13h0c-.11,.57-.16,1.16-.16,1.74,0,.36,.02,.72,.06,1.08h0c.05,.45,.11,.86,.23,1.28,.13,.42,.27,.87,.7,1.43l.21,.23c.32,.31,.66,.51,.97,.65,.48,.22,.91,.32,1.35,.38,.43,.06,.87,.09,1.32,.09h.25c.64-.02,1.23-.06,1.8-.17,.57-.12,1.15-.27,1.79-.72l-1.44-2.04,1.39,2.08c.37-.24,.67-.56,.89-.88,.22-.32,.37-.65,.47-.96h0c.15-.44,.25-.91,.26-1.41h0l-.73-.07,.69,.24c.03-.09,.04-.15,.04-.17l-.73-.07,.69,.24h0l-1.99-.69,1.49,1.48c.34-.36,.44-.63,.5-.79l-1.99-.69,1.49,1.48-1.65-1.63,.93,2.12c.3-.13,.54-.32,.72-.49l-1.65-1.63,.93,2.12-.94-2.15v2.35c.3,0,.65-.07,.94-.2l-.94-2.15v.04l-.57,2.23c.16,.04,.35,.07,.57,.07v-2.3l-.57,2.23h.03l.55-2.27-1.61,1.71c.28,.27,.68,.48,1.05,.57l.55-2.28-1.61,1.71,1.53-1.63-2.17,.58c.07,.24,.21,.64,.64,1.05l1.53-1.63-2.17,.58,1.65-.44h-1.71c0,.07,0,.2,.06,.44l1.65-.44h-.83l-.88-.02v.02h.88l-.88-.02h0s0,.11-.04,.24h0c-.08,.3-.12,.62-.12,.96,0,.44,.08,.92,.26,1.35h0c.2,.52,.65,1.1,1.22,1.44,.57,.34,1.16,.44,1.62,.44h.18l-.12-2.5v1.35l-.06,1.15h.06v-1.15l-.06,1.15v0h0v0h.11c.15,.03,.29,.05,.42,.07h.01c.23,.03,.46,.05,.69,.05h.23c.35-.02,.74-.07,1.16-.22h0c.62-.21,1.19-.68,1.52-1.17h0c.22-.31,.37-.66,.45-.98,.08-.32,.11-.61,.11-.88h0c0-.1,.01-.65,.03-1.56h0c.02-.99,.03-1.9,.03-2.72s-.03-1.73-.08-2.62c-.03-.48-.07-.89-.13-1.29-.03-.2-.07-.4-.13-.62-.06-.22-.14-.46-.32-.78l-2.18,1.23,2.25-1.08c-.22-.46-.53-.81-.82-1.06-.45-.38-.88-.59-1.3-.75-.42-.16-.84-.27-1.29-.36-.73-.15-1.48-.22-2.24-.21-.54,0-1.08,.03-1.64,.1-1.42,.17-2.75,.57-3.88,1.5l1.6,1.92,.18-2.49h-.19c-.54-.01-1.08,.18-1.44,.42-.32,.21-.53,.44-.67,.63-.25,.34-.36,.6-.45,.82-.12,.33-.18,.61-.23,.89-.05,.28-.09,.57-.12,.89h0c-.03,.36-.05,.69-.05,1.02,0,.36,.02,.7,.12,1.15,.06,.22,.13,.48,.3,.79,.17,.31,.45,.69,.92,1l.15,.09,1.2-2.19Zm3.25,3.33l.24,2.49c.7-.06,1.33-.38,1.75-.74h0c.35-.3,.66-.67,.89-1.07h0c.13-.22,.25-.45,.35-.68v-.02c.1-.21,.17-.41,.24-.65h0l.04-.15c.34-1.18-.24-2.44-1.35-2.96s-2.45-.14-3.13,.88l.23,.15-.22-.16h0l.23,.16-.22-.16,1.31,.97-1-1.28c-.24,.19-.29,.28-.31,.31l1.31,.97-1-1.28h.01l.98,1.26-.75-1.41s-.09,.05-.22,.15l.98,1.27-.75-1.41,.21,.39-.19-.4h-.02l.21,.4-.19-.4h-.01l.4,.95-.32-.98-.08,.03,.4,.94-.32-.98,.11,.33-.09-.34h-.02l.11,.34-.09-.34-.13,.02h-.01c-.35,.06-.75,.17-1.17,.41-.42,.24-.85,.65-1.12,1.15h0c-.2,.35-.36,.84-.36,1.39,0,.36,.08,.74,.2,1.05,.13,.32,.3,.58,.48,.79,.32,.39,.77,.7,1.21,.87,.44,.17,.85,.22,1.21,.22,.1,0,.14,0,.24-.01l-.24-2.49v-.8l.62-1.58c-.27-.11-.49-.12-.62-.12v1.7l.62-1.58-.72,1.84,1.52-1.27c-.21-.26-.52-.47-.79-.57l-.72,1.84,1.52-1.27-1.58,1.33,1.91-.77c-.1-.24-.22-.43-.33-.56l-1.58,1.33,1.91-.77-2.02,.81h2.17c0-.28-.06-.57-.16-.81l-2.02,.81h.08l1.84,1.01c.12-.22,.26-.59,.25-1.01h-2.1l1.84,1.01h0l-1.75-.96,1.01,1.73c.25-.14,.56-.42,.74-.77l-1.75-.96,1.01,1.73-.8-1.37,.26,1.57c.1-.02,.29-.06,.54-.2l-.8-1.37,.26,1.57h-.01c.39-.06,.75-.14,1.21-.33h.01c.12-.06,.24-.11,.37-.18,.13-.07,.28-.16,.47-.3h.01c.43-.36,.59-.61,.76-.86l-2.08-1.39-2.4-.69-.04,.15h0l.43,.12-.43-.14v.02l.43,.13-.43-.14-.04,.11v-.02l-.09,.19h0l.98,.57-.72-.86c-.1,.09-.2,.2-.26,.31l.98,.56-.72-.86h0l1.12,1.35-.17-1.74c-.42,.04-.78,.24-.95,.39l1.12,1.36-.17-1.74,.24,2.49v0Z"/><path class="e" d="M55.1,8.54l2.12-1.33c-.1-.16-.15-.27-.16-.32v-.02l-.16,.04,.16-.02v-.02l-.16,.04,.16-.02-.54,.08h.55v-.08l-.55,.08h-.55l1.1,.04v-.04h-1.1l1.1,.04h0l-1.15-.05,1,.53c.15-.28,.15-.46,.15-.49l-1.15-.03,1,.53-1.5-.79,.73,1.53c.3-.13,.63-.45,.77-.74l-1.5-.79,.73,1.53-1.08-2.26,.96,2.31s.51-.15,1.29-.18c.15,0,.28-.01,.39-.01,.22,0,.37,.02,.39,.02h0l.25-1.18-.64,1c.26,.16,.38,.17,.39,.18l.25-1.18-.64,1,1.34-2.11-1.63,1.9,1.11-1.3-1.6,.62c.08,.23,.27,.5,.48,.68l1.11-1.3-1.6,.62,1.18-.46-1.25,.23s.02,.1,.07,.23l1.18-.46-1.25,.23,.33-.06-.33,.04v.02l.33-.06-.33,.04v.03h0c0,.08,0,.17,0,.26v.15h0c0,.23-.01,.55-.02,.96,0,.42-.01,.81-.01,1.19v.14l-.02,.15h0c-.03,.11-.05,.18-.06,.21h0l.82,.33-.77-.43-.05,.1,.82,.32-.77-.43h0c-.05,.1-.14,.25-.25,.44l2.14,1.29-2.04-1.44c-.12,.17-.23,.35-.36,.6-.11,.26-.28,.58-.29,1.24,0,.37,.09,.91,.41,1.41,.36,.54,.77,.79,1.05,.93,.44,.21,.69,.24,.91,.27,.22,.03,.39,.03,.55,.03,.16,0,.31,0,.46-.02l-.17-2.49,.08,2.5c.39-.01,.81-.1,1.2-.27,.59-.25,1.06-.68,1.36-1.11,.31-.43,.49-.85,.61-1.25h0c.23-.77,.34-1.56,.34-2.36,0-.13,0-.25,0-.38h0c-.03-.69-.04-1.35-.05-1.98,0-.12,0-.23,0-.33,0-.21,0-.37,0-.48v-.11h0l-.92-.1,.92,.13v-.04l-.92-.09,.92,.13-2.47-.36,2.37,.78-1.96-.65,1.46,1.46c.19-.19,.39-.48,.5-.82l-1.96-.65,1.46,1.46-1.14-1.14,.54,1.53c.08-.03,.3-.11,.6-.39l-1.14-1.14,.54,1.53-.24-.68,.19,.69h.05l-.24-.69,.19,.69v0h0v0h.06c.09-.02,.19-.03,.28-.03,.19,0,.4,.02,.63,.07h0l.14,.04h0l.35-.82-.54,.7c.12,.09,.19,.12,.2,.12l.35-.82-.54,.7,1.03-1.32-1.46,.8c.14,.26,.32,.43,.43,.52l1.03-1.32-1.46,.8h0l1.64-.9-1.85,.32c.02,.11,.05,.29,.21,.59l1.64-.9-1.85,.32,1.1-.19-1.11,.08v.11l1.11-.19-1.11,.08,.29-.02h-.3v.02l.3-.02h-.3s-.03,.41-.14,.94c-.11,.53-.28,1.24-.52,2.1-.33,1.17-.61,2.09-.83,2.74-.11,.32-.2,.58-.27,.74l-.08,.17v.02l.68,.38-.66-.43-.03,.05,.68,.38-.66-.43-.06,.09,1.69,.99-1.12-1.61c-.15,.1-.37,.29-.56,.62l1.69,.99-1.12-1.61,.8,1.14-.56-1.28s-.13,.06-.24,.14l.8,1.14-.56-1.28,.23,.53-.17-.55-.06,.02,.23,.53-.17-.55-.08,.02c-.06,.01-.14,.02-.24,.04-.38,.05-.75,.07-1.12,.07-.2,0-.4,0-.6-.02h0c-.29-.02-.5-.05-.57-.06h-.02l-.35,1.34,.76-1.14c-.3-.19-.4-.19-.41-.2l-.35,1.34,.76-1.14-.08-.05-1.14,1.86,1.63-1.45c-.1-.11-.24-.25-.49-.41l-1.14,1.86,1.63-1.45-1.17,1.04,1.4-.72s-.06-.13-.23-.32l-1.17,1.04,1.4-.72-.32,.17,.33-.15v-.02l-.33,.17,.33-.15s-.12-.32-.23-.76c-.23-.9-.47-1.87-.73-2.9h0c-.14-.56-.28-1.04-.42-1.47-.15-.44-.28-.8-.57-1.27h0l-2.12,1.34-2.11,1.34,.74-.47-.78,.4,.04,.07,.74-.47-.78,.4h0s.07,.17,.15,.41c.07,.23,.16,.55,.26,.94h0c.26,1.04,.5,2.01,.74,2.92,.13,.52,.26,.96,.43,1.38,.09,.22,.19,.43,.35,.69,.08,.13,.18,.27,.32,.44,.14,.16,.34,.35,.63,.53l1.31-2.13-1.39,2.08c.3,.2,.55,.3,.78,.38,.34,.11,.62,.17,.92,.22,.3,.05,.6,.08,.93,.1h0c.31,.02,.62,.03,.94,.03,.58,0,1.16-.04,1.73-.11,.49-.06,.94-.15,1.45-.33,.25-.1,.52-.22,.82-.43,.29-.2,.62-.5,.88-.95l-2.15-1.27,2.1,1.36c.22-.34,.34-.62,.47-.93,.19-.47,.38-1.01,.6-1.68,.21-.67,.45-1.46,.7-2.38,.26-.94,.46-1.75,.61-2.45,.14-.71,.23-1.29,.24-1.93,0-.22-.01-.44-.06-.71-.05-.27-.12-.59-.34-.99h0c-.37-.67-.91-1.09-1.37-1.34-.48-.26-.92-.4-1.38-.51h0c-.57-.13-1.16-.21-1.75-.2-.29,0-.59,.02-.88,.05h0c-.46,.06-.92,.14-1.47,.41-.27,.13-.58,.32-.87,.61-.29,.29-.57,.7-.72,1.16-.05,.14-.08,.28-.1,.42-.03,.24-.04,.41-.05,.62,0,.2-.01,.42-.01,.67,0,.12,0,.25,0,.38,0,.68,.03,1.39,.05,2.12h0v.18c0,.38-.04,.67-.11,.89h0l1.08,.38-.75-.82c-.26,.25-.32,.43-.32,.44l1.08,.38-.75-.82,1.17,1.28-.65-1.6c-.2,.08-.39,.21-.52,.33l1.17,1.28-.65-1.6,.65,1.6-.06-1.73c-.17,0-.39,.04-.59,.13l.65,1.6-.06-1.73h-.21v0h0v0l-.05,1.49,.37-1.44c-.23-.06-.3-.05-.32-.05l-.05,1.49,.37-1.44-.55,2.15,1.07-1.94c-.24-.13-.4-.18-.52-.21l-.55,2.15,1.07-1.94-1.16,2.1,2.02-1.29c-.29-.45-.63-.68-.86-.81l-1.16,2.1,2.02-1.29-2,1.28h2.38c0-.32-.08-.82-.38-1.28l-2,1.28h.28l1.9,.91c.05-.12,.18-.34,.2-.91h-2.1l1.9,.91-1.12-.54,1.06,.65,.06-.11-1.12-.54,1.06,.65-.42-.26,.41,.27v-.02l-.41-.26,.41,.27h0l.1-.15c.14-.23,.25-.43,.36-.62h0c.13-.23,.21-.43,.28-.62,.07-.19,.13-.38,.18-.59h0c.13-.48,.2-.97,.2-1.46v-.24l-2.5,.1h2.5c0-.35,0-.72,.01-1.11,0-.4,.01-.7,.02-.9h0c0-.1,0-.2,0-.3,0-.19,0-.39-.02-.58h0c-.03-.38-.07-.76-.26-1.26-.18-.48-.51-.96-.92-1.31l-.29-.22c-.55-.34-1.01-.45-1.43-.53-.42-.07-.83-.1-1.25-.1-.21,0-.43,0-.65,.02-1.09,.07-2,.18-2.94,.55l-.12,.05c-.62,.28-1.2,.84-1.5,1.44-.31,.6-.41,1.18-.42,1.69h0v.13c0,.56,.11,1.09,.27,1.56,.17,.48,.39,.92,.65,1.34h0l2.11-1.33Z"/><path class="e" d="M75.04,9.56h-2.5c0,.5-.08,.9-.22,1.26-.14,.35-.34,.68-.64,1.01h0c-.31,.33-.59,.53-.87,.65-.28,.12-.58,.19-.99,.2-.41,0-.71-.07-1-.2-.29-.13-.57-.32-.89-.66h0c-.31-.34-.51-.66-.65-1.01-.14-.35-.21-.75-.22-1.25,0-.5,.08-.9,.22-1.25,.14-.35,.34-.68,.65-1.01h0c.32-.33,.6-.53,.89-.66,.29-.13,.59-.19,1-.2,.41,0,.71,.07,.99,.2,.28,.13,.56,.32,.88,.65h0c.31,.33,.51,.66,.65,1.01,.14,.36,.21,.75,.22,1.26h5c0-1.05-.18-2.09-.55-3.05-.37-.97-.94-1.86-1.65-2.62h0c-.71-.76-1.55-1.39-2.5-1.82-.95-.42-1.99-.63-3.02-.63-1.04,0-2.08,.2-3.02,.63-.95,.42-1.8,1.05-2.51,1.81h0c-.71,.76-1.29,1.65-1.66,2.62-.38,.97-.56,2.01-.55,3.06,0,1.05,.18,2.09,.55,3.06,.37,.97,.95,1.86,1.66,2.62h0c.71,.76,1.56,1.39,2.51,1.81,.95,.42,1.99,.63,3.02,.63,1.04,0,2.08-.2,3.02-.63,.95-.42,1.8-1.05,2.5-1.82h0c.71-.76,1.28-1.65,1.65-2.62,.37-.97,.55-2.01,.55-3.05h-2.5Zm-4.94-2.91v-.78l.61-1.62c-.06-.02-.19-.09-.61-.1v1.72l.61-1.62-.1-.03c-.24-.07-.52-.16-.97-.16-.2,0-.44,.02-.72,.09-.41,.1-.9,.37-1.26,.77-.36,.4-.56,.87-.63,1.23l2.44,.52-2.31-.97c-.1,.25-.13,.39-.16,.52-.04,.21-.06,.36-.07,.51-.04,.43-.05,.91-.05,1.57,0,.2,0,.41,0,.64v.03c0,.12,0,.24,0,.36,0,.41-.02,.78-.05,1.09-.02,.24-.04,.43-.06,.56l-.02,.15v.03l.45,.09-.45-.11v.02l.45,.09-.45-.11c-.08,.33-.12,.65-.15,.98h0c-.01,.12-.02,.25-.02,.39,0,.19,.01,.4,.06,.67,.06,.27,.15,.61,.41,1.01l2.08-1.38-2.33,.91c.12,.29,.28,.65,.68,1.06,.2,.2,.47,.41,.81,.57,.34,.16,.75,.25,1.12,.25,.53,0,.97-.16,1.28-.32,.31-.17,.53-.34,.7-.5h0c.47-.45,.75-.95,.93-1.42,.18-.47,.27-.92,.32-1.37h0c.18-1.55,.28-2.78,.28-3.78,0-.58-.02-1.08-.15-1.65-.07-.29-.15-.61-.38-1.01-.12-.2-.28-.43-.52-.66-.24-.23-.57-.45-.96-.59-.26-.09-.56-.14-.84-.14v2.5l-.84,2.36,.76-2.13-1.56,1.65c.19,.18,.46,.37,.8,.49l.76-2.13-1.56,1.65,1.36-1.44-1.85,.74c.06,.13,.16,.38,.49,.71l1.36-1.44-1.85,.74,1.01-.4-1.06,.23s.01,.07,.05,.17l1.01-.4-1.06,.23,.08-.02h-.09v.02l.09-.02h-.09s.03,.26,.03,.58c0,.66-.08,1.76-.25,3.2h0l-.02,.16v.02h0l1.07,.35-.75-.8c-.25,.24-.31,.43-.31,.44l1.07,.35-.75-.8h0l1.28,1.36-.86-1.65c-.23,.12-.34,.23-.42,.29l1.28,1.36-.86-1.65,1.03,1.98v-2.23c-.45,0-.81,.13-1.03,.25l1.03,1.98v.08l.96-2.1c-.29-.13-.64-.21-.96-.21v2.31l.96-2.1-.92,2.01,1.77-1.33c-.15-.2-.41-.48-.85-.68l-.92,2.01,1.77-1.33-1.42,1.06,1.65-.65c-.03-.08-.09-.21-.24-.41l-1.42,1.06,1.65-.65c-.07-.17-.15-.32-.25-.47l-1.8,1.2,2.12-.43c-.04-.17-.1-.43-.32-.77l-1.8,1.2,2.12-.43-1.55,.31h1.58s0-.14-.03-.31l-1.55,.31h1.05l.53,.05v-.05h-.53l.53,.05h0c.01-.16,.03-.26,.04-.29,.05-.24,.08-.42,.11-.64,.03-.22,.05-.46,.08-.73,.05-.5,.07-1.01,.07-1.56,0-.15,0-.31,0-.47l-2.5,.05,2.5-.03c0-.21,0-.41,0-.58,0-.45,0-.79,.02-.98v-.15l-.87-.1,.87,.17v-.07l-.87-.1,.87,.17-2.03-.4,1.91,.8c.1-.24,.11-.33,.12-.4l-2.03-.4,1.91,.8c.06-.14,.11-.3,.14-.44l-2.28-.49,1.99,1.2c.15-.26,.24-.51,.28-.71l-2.28-.49,1.99,1.2-2.03-1.22,1,2.15c.4-.18,.81-.54,1.03-.93l-2.03-1.22,1,2.15-.97-2.08v2.29c.23,0,.57-.03,.97-.22l-.97-2.08v.41l-.59,1.8c.09,.03,.25,.08,.59,.09v-1.89l-.59,1.8,.78-2.37-.88,2.34c.28,.1,.6,.21,1.15,.22v-2.5l-.84,2.36,.84-2.36Z"/><path class="e" d="M77.39,11.58v1.78l-.37,.61c.1,.06,.29,.11,.37,.11v-.72l-.37,.61h0l.34-.56-.58,.32,.24,.24,.34-.57-.58,.32,.52-.29h-.59l.08,.29,.52-.29h.1l-.6-.34c-.05,.07-.09,.24-.09,.34h.69l-.6-.34,.55,.32-.33-.55-.23,.23,.55,.32-.33-.55h0l.37,.61v-.72c-.08,0-.27,.04-.37,.11l.37,.61v-.06l.25-.61c-.1-.04-.21-.06-.25-.05v.66l.25-.61-.24,.57,.44-.45s-.1-.09-.2-.13l-.24,.57,.44-.45-.47,.48,.62-.26c-.04-.11-.11-.2-.14-.22l-.47,.48,.62-.26-.65,.28h.71s-.01-.17-.06-.28l-.65,.28h.09l.57,.24c.04-.1,.05-.2,.05-.24h-.62l.57,.24-.59-.24,.45,.45s.09-.11,.13-.21l-.59-.24,.45,.45h0l-.45-.45,.24,.58c.1-.04,.18-.11,.21-.13l-.45-.45,.24,.58-.26-.63v.69s.16-.01,.26-.06l-.26-.63v-4.31c-.55,0-1.13,.1-1.67,.33-.54,.22-1.02,.56-1.4,.95h0c-.39,.39-.73,.87-.95,1.41-.22,.54-.33,1.12-.33,1.67,0,.55,.1,1.14,.33,1.67,.23,.54,.57,1.02,.96,1.4,.39,.38,.86,.71,1.4,.93,.53,.22,1.11,.32,1.65,.32,.75,0,1.55-.21,2.21-.61h0c.63-.37,1.18-.93,1.55-1.57,.37-.63,.58-1.4,.57-2.14,0-.74-.19-1.51-.56-2.15-.36-.65-.92-1.23-1.56-1.61h0c-.65-.4-1.46-.61-2.21-.61v2.5Z"/><path class="e" d="M90.19,9.56h-2.5c0,.5-.08,.9-.22,1.26-.14,.35-.34,.68-.64,1.01h0c-.31,.33-.59,.53-.87,.65-.28,.12-.58,.19-.99,.2-.41,0-.71-.07-1-.2-.29-.13-.57-.32-.89-.66h0c-.31-.34-.51-.66-.65-1.01-.14-.35-.21-.75-.22-1.25,0-.5,.08-.9,.22-1.25,.14-.35,.34-.68,.65-1.01h0c.32-.33,.6-.53,.89-.66,.29-.13,.59-.19,1-.2,.41,0,.71,.07,.99,.2,.28,.13,.56,.32,.88,.65h0c.31,.33,.51,.66,.65,1.01,.14,.36,.21,.75,.22,1.26h5c0-1.05-.18-2.09-.55-3.05-.37-.97-.94-1.86-1.65-2.62h0c-.71-.76-1.55-1.39-2.5-1.82-.95-.42-1.99-.63-3.02-.63-1.04,0-2.08,.2-3.02,.63-.95,.42-1.8,1.05-2.51,1.81h0c-.71,.76-1.29,1.65-1.66,2.62-.38,.97-.56,2.01-.55,3.06,0,1.05,.18,2.09,.55,3.06,.37,.97,.95,1.86,1.66,2.62h0c.71,.76,1.56,1.39,2.51,1.81,.95,.42,1.99,.63,3.02,.63,1.04,0,2.08-.2,3.02-.63,.95-.42,1.8-1.05,2.5-1.82h0c.71-.76,1.28-1.65,1.65-2.62,.37-.97,.55-2.01,.55-3.05h-2.5Zm-4.94-2.91v-.78l.61-1.62c-.06-.02-.19-.09-.61-.1v1.72l.61-1.62-.1-.03c-.24-.07-.52-.16-.97-.16-.2,0-.44,.02-.72,.09-.41,.1-.9,.37-1.26,.77-.36,.4-.56,.87-.63,1.23l2.44,.52-2.31-.97c-.1,.25-.13,.39-.16,.52-.04,.21-.06,.36-.07,.51-.04,.43-.05,.91-.05,1.57,0,.2,0,.41,0,.64v.03c0,.12,0,.24,0,.36,0,.41-.02,.78-.05,1.09-.02,.24-.04,.43-.06,.56l-.02,.15v.03l.45,.09-.45-.11v.02l.45,.09-.45-.11c-.08,.33-.12,.65-.15,.98h0c-.01,.12-.02,.25-.02,.39,0,.19,.01,.4,.06,.67,.06,.27,.15,.61,.41,1.01l2.08-1.38-2.33,.91c.12,.29,.28,.65,.68,1.06,.2,.2,.47,.41,.81,.57,.34,.16,.75,.25,1.12,.25,.53,0,.97-.16,1.28-.32,.31-.17,.53-.34,.7-.5h0c.47-.45,.75-.95,.93-1.42,.18-.47,.27-.92,.32-1.37h0c.18-1.55,.28-2.78,.28-3.78,0-.58-.02-1.08-.15-1.65-.07-.29-.15-.61-.38-1.01-.12-.2-.28-.43-.52-.66-.24-.23-.57-.45-.96-.59-.26-.09-.56-.14-.84-.14v2.5l-.84,2.36,.76-2.13-1.56,1.65c.19,.18,.46,.37,.8,.49l.76-2.13-1.56,1.65,1.36-1.44-1.85,.74c.06,.13,.16,.38,.49,.71l1.36-1.44-1.85,.74,1.01-.4-1.06,.23s.01,.07,.05,.17l1.01-.4-1.06,.23,.08-.02h-.09v.02l.09-.02h-.09s.03,.26,.03,.58c0,.66-.08,1.76-.25,3.2h0l-.02,.16v.02h0l1.07,.35-.75-.8c-.25,.24-.31,.43-.31,.44l1.07,.35-.75-.8h0l1.28,1.36-.86-1.65c-.23,.12-.34,.23-.42,.29l1.28,1.36-.86-1.65,1.03,1.98v-2.23c-.45,0-.81,.13-1.03,.25l1.03,1.98v.08l.96-2.1c-.29-.13-.64-.21-.96-.21v2.31l.96-2.1-.92,2.01,1.77-1.33c-.15-.2-.41-.48-.85-.68l-.92,2.01,1.77-1.33-1.42,1.06,1.65-.65c-.03-.08-.09-.21-.24-.41l-1.42,1.06,1.65-.65c-.07-.17-.15-.32-.25-.47l-1.8,1.2,2.12-.43c-.04-.17-.1-.43-.32-.77l-1.8,1.2,2.12-.43-1.55,.31h1.58s0-.14-.03-.31l-1.55,.31h1.05l.53,.05v-.05h-.53l.53,.05h0c.01-.16,.03-.26,.04-.29,.05-.24,.08-.42,.11-.64,.03-.22,.05-.46,.08-.73,.05-.5,.07-1.01,.07-1.56,0-.15,0-.31,0-.47l-2.5,.05,2.5-.03c0-.21,0-.41,0-.58,0-.45,0-.79,.02-.98v-.15l-.87-.1,.87,.17v-.07l-.87-.1,.87,.17-2.03-.4,1.91,.8c.1-.24,.11-.33,.12-.4l-2.03-.4,1.91,.8c.06-.14,.11-.3,.14-.44l-2.28-.49,1.99,1.2c.15-.26,.24-.51,.28-.71l-2.28-.49,1.99,1.2-2.03-1.22,1,2.15c.4-.18,.81-.54,1.03-.93l-2.03-1.22,1,2.15-.97-2.08v2.29c.23,0,.57-.03,.97-.22l-.97-2.08v.41l-.59,1.8c.09,.03,.25,.08,.59,.09v-1.89l-.59,1.8,.78-2.37-.88,2.34c.28,.1,.6,.21,1.15,.22v-2.5l-.84,2.36,.84-2.36Z"/><path class="e" d="M92.53,11.58v1.78l-.37,.61c.1,.06,.29,.11,.37,.11v-.72l-.37,.61h0l.34-.56-.58,.32,.24,.24,.34-.57-.58,.32,.52-.29h-.59l.08,.29,.52-.29h.1l-.6-.34c-.05,.07-.09,.24-.09,.34h.69l-.6-.34,.55,.32-.33-.55-.23,.23,.55,.32-.33-.55h0l.37,.61v-.72c-.08,0-.27,.04-.37,.11l.37,.61v-.06l.25-.61c-.1-.04-.21-.06-.25-.05v.66l.25-.61-.24,.57,.44-.45s-.1-.09-.2-.13l-.24,.57,.44-.45-.47,.48,.62-.26c-.04-.11-.11-.2-.14-.22l-.47,.48,.62-.26-.65,.28h.71s-.01-.17-.06-.28l-.65,.28h.09l.57,.24c.04-.1,.05-.2,.05-.24h-.62l.57,.24-.59-.24,.45,.45s.09-.11,.13-.21l-.59-.24,.45,.45h0l-.45-.45,.24,.58c.1-.04,.18-.11,.21-.13l-.45-.45,.24,.58-.26-.63v.69s.16-.01,.26-.06l-.26-.63v-4.31c-.55,0-1.13,.1-1.67,.33-.54,.22-1.02,.56-1.4,.95h0c-.39,.39-.73,.87-.95,1.41-.22,.54-.33,1.12-.33,1.67,0,.55,.1,1.14,.33,1.67,.23,.54,.57,1.02,.96,1.4,.39,.38,.86,.71,1.4,.93,.53,.22,1.11,.32,1.65,.32,.75,0,1.55-.21,2.21-.61h0c.63-.37,1.18-.93,1.55-1.57,.37-.63,.58-1.4,.57-2.14,0-.74-.19-1.51-.56-2.15-.36-.65-.92-1.23-1.56-1.61h0c-.65-.4-1.46-.61-2.21-.61v2.5Z"/><path class="e" d="M94.96,8.73l2.49-.22c-.01-.16-.03-.37-.05-.61h0c-.02-.29-.05-.56-.08-.81h0c-.02-.17-.04-.33-.05-.49h0v-.08h0l-.49-.04,.48,.07v-.04l-.48-.03,.48,.07h0l-1.55-.2,1.46,.54c.06-.18,.08-.27,.08-.32l-1.55-.22,1.46,.54-2.04-.75,1.55,1.52c.31-.32,.43-.6,.49-.77l-2.04-.75,1.55,1.52-1.78-1.75,.45,2.46c.58-.11,1.16-.29,1.72-.59,.44-.25,.88-.54,1.31-1.05h.01c.14-.19,.3-.39,.47-.62h0l.03-.04h0l-.55-.51,.45,.58,.1-.08-.55-.49,.45,.58,.03-.02-.89-1.1,.53,1.32c.06-.03,.19-.08,.36-.22l-.89-1.1,.53,1.32-.24-.6,.19,.62,.05-.02-.24-.6,.19,.62-.07-.21,.06,.21h0l-.07-.21,.06,.21h.05c.1-.03,.34-.06,.67-.06h.14c.16,0,.28,0,.37,0h.1l.18-1.14-.47,1.06c.22,.1,.29,.09,.29,.1l.18-1.15-.47,1.06,.83-1.87-1.29,1.59c.19,.16,.35,.23,.46,.28l.83-1.87-1.29,1.59,1.44-1.77-2.04,1.02c.18,.35,.41,.6,.6,.75l1.44-1.77-2.04,1.02c.05,.09,.12,.22,.18,.3l1.83-1.26-2.12,.67c.04,.11,.08,.28,.29,.59l1.83-1.26-2.12,.67,1.5-.47-1.54,.3s.02,.08,.05,.17l1.5-.47-1.54,.3,.42-.08-.43,.06v.02l.43-.08-.43,.06s.02,.17,.03,.39c0,.22,.01,.51,.01,.86,0,.66-.02,1.54-.06,2.63l2.5,.09-2.5-.12c0,.09,0,.17,0,.25,0,.3,.01,.67,.04,1.19,.03,.51,.06,1.15,.11,1.93h0c.07,1.13,.11,1.94,.11,2.32v.16l1.44,.08-1.4-.33c-.05,.23-.04,.24-.04,.24l1.44,.08-1.4-.33,2.43,.57-2.35-.85,2.13,.77-1.74-1.46c-.15,.17-.29,.41-.39,.69l2.13,.77-1.74-1.46,1.56,1.31-.94-1.82c-.14,.07-.36,.2-.62,.51l1.56,1.31-.94-1.82,.64,1.24-.43-1.33s-.1,.04-.21,.09l.64,1.24-.43-1.33,.15,.46-.11-.47h-.04l.15,.47-.11-.47s-.12,.02-.3,.04h0c-.35,.03-.7,.05-1.04,.05-.23,0-.46,0-.68-.02h0c-.32-.02-.56-.04-.69-.06h-.09l-.16,.91,.23-.91h-.06l-.16,.91,.23-.91-.47,1.89,.74-1.8c-.14-.06-.21-.07-.26-.09l-.47,1.89,.74-1.8-.95,2.31,1.11-2.24-1.06,2.15,1.71-1.68c-.15-.15-.36-.33-.65-.47l-1.06,2.15,1.71-1.68-1.61,1.58,2.06-.92c-.07-.14-.17-.36-.45-.65l-1.61,1.58,2.06-.92-1.34,.6,1.45-.27s0-.09-.11-.33l-1.34,.6,1.45-.27h0c-.02-.11-.04-.53-.04-1.1,0-.13,0-.27,0-.42,.01-.71,.03-1.26,.06-1.6,.01-.17,.03-.29,.03-.32h0l-.78-.15,.77,.21,.02-.07-.78-.14,.77,.21-1.82-.49,1.7,.8c.08-.16,.1-.25,.11-.3l-1.82-.49,1.7,.8,.02-.04-2.05-.91,1.35,1.8c.15-.13,.44-.34,.69-.88l-2.05-.91,1.35,1.8-1.01-1.35,.77,1.5s.12-.06,.25-.16l-1.01-1.35,.77,1.5-.37-.72,.31,.75,.06-.03-.37-.72,.31,.75h0s.1-.04,.22-.07c.34-.09,.66-.2,.99-.34,.33-.14,.67-.32,1.05-.64l-1.63-1.9,1.52,1.99c.29-.22,.59-.49,.86-.91,.27-.41,.51-1.01,.51-1.66,0-.18-.02-.37-.05-.54l-.02-.08c-.05-.21-.12-.45-.26-.71-.2-.39-.58-.81-1.05-1.07-.47-.26-.96-.35-1.32-.34-.66,.01-1.02,.18-1.32,.31-.29,.14-.51,.28-.73,.43l1.44,2.04-1.39-2.08-.13,.08-.18,.13c-.1,.08-.16,.11-.2,.12l-.11,.02h0v.77l.18-.75c-.13-.03-.18-.03-.18-.03v.77l.18-.75-.37,1.53,.77-1.37c-.16-.09-.3-.13-.39-.16l-.37,1.53,.77-1.37-.92,1.65,1.62-.95c-.17-.31-.46-.57-.7-.7l-.92,1.65,1.62-.95-1.51,.88,1.76-.1c0-.18-.07-.48-.24-.78l-1.51,.88,1.76-.1v-.07l-2.5,.22-2.5,.14c.02,.39,.12,.85,.34,1.29,.17,.33,.41,.65,.68,.89,.42,.38,.89,.6,1.3,.71,.42,.12,.79,.15,1.14,.15h.11c.6-.01,1.22-.13,1.78-.35,.57-.22,1.09-.53,1.55-.89l-1.56-1.95,1.39,2.08,.13-.08,.06-.04,.04-.03-.51-.84,.35,.91c.12-.05,.15-.07,.16-.07l-.51-.84,.35,.91-.72-1.87v1.99c.4,0,.6-.09,.72-.13l-.72-1.87v-.29l-.72,2.17c.27,.09,.52,.12,.72,.12v-2.28l-.72,2.17,.73-2.22-1.84,1.44c.26,.35,.7,.65,1.11,.78l.73-2.22-1.84,1.44,1.78-1.39-2.2,.49c.05,.23,.16,.56,.43,.9l1.78-1.39-2.2,.49,2.44-.54-2.46,.46,2.01-.37h-2.04c0,.13,.01,.26,.03,.37l2.01-.37h-.09l-1.64-1.08c-.14,.21-.32,.62-.31,1.08h1.96l-1.64-1.08,1.06,.7-.78-1.02s-.14,.1-.28,.32l1.06,.7-.78-1.02-.11,.09,.85,.99-.66-1.13s-.1,.06-.19,.14l.85,.99-.66-1.13,.22,.38-.19-.4-.04,.02,.22,.38-.19-.4s-.13,.05-.32,.1c-.34,.09-.64,.19-1,.35-.18,.09-.38,.18-.63,.37-.24,.19-.58,.46-.86,1.07l2.28,1.02-2.27-1.06c-.11,.25-.16,.41-.2,.56-.06,.25-.09,.45-.12,.66-.07,.62-.1,1.36-.12,2.38,0,.17,0,.34,0,.5,0,.65,.02,1.16,.07,1.65,.03,.25,.06,.49,.17,.83,.06,.17,.13,.38,.3,.66,.09,.14,.2,.3,.37,.47,.17,.17,.4,.36,.71,.51l.16,.07c.32,.12,.47,.15,.63,.18,.23,.04,.43,.07,.65,.09,.22,.02,.47,.04,.75,.06h0c.32,.02,.65,.03,.98,.03,.49,0,.99-.02,1.49-.07h0c.47-.04,.88-.1,1.39-.26,.25-.09,.54-.2,.89-.44,.17-.12,.36-.28,.54-.5,.18-.22,.36-.5,.48-.83,.04-.1,.06-.18,.08-.28,.07-.31,.07-.45,.08-.61,0-.15,.01-.29,.01-.45,0-.61-.04-1.45-.12-2.64h0c-.05-.76-.09-1.38-.11-1.86-.02-.47-.03-.81-.03-.93v-.03h0l-.51-.02,.51,.02h0l-.51-.02,.51,.02v-.03c.04-1.12,.06-2.05,.06-2.8,0-.59-.01-1.07-.04-1.49-.02-.21-.04-.41-.08-.64-.02-.12-.05-.25-.1-.42-.06-.17-.13-.39-.36-.73l-2.06,1.42,2.24-1.12c-.18-.36-.42-.63-.64-.83-.39-.34-.72-.47-.99-.57-.41-.14-.71-.18-1.03-.22-.31-.03-.61-.04-.94-.04h-.22c-.57,.01-1.09,.05-1.62,.16-.27,.06-.54,.13-.83,.24-.29,.12-.6,.28-.92,.53l1.57,1.95-1.54-1.97c-.38,.3-.63,.6-.87,.91h0c-.12,.17-.24,.32-.35,.45h.01l.8,.65-.64-.83s-.08,.07-.17,.17l.8,.66-.64-.83,.19,.25-.18-.26h-.01l.19,.26-.18-.26h0l-.03,.02,.06,.11-.05-.11h0l.06,.11-.05-.11s-.07,.03-.21,.06c-.5,.09-.97,.34-1.33,.71-.37,.38-.53,.74-.64,1.01-.1,.28-.14,.51-.17,.71h0c-.03,.24-.04,.45-.04,.65,0,.14,0,.28,.01,.41h0c.02,.25,.04,.52,.08,.79h0c.02,.18,.04,.37,.06,.58h0c.02,.26,.04,.47,.05,.64l2.49-.22-2.5,.14,2.5-.14Z"/><path class="d" d="M3.94,7.74c.01-.17,.04-.4,.08-.69,.17-1.56,.29-2.5,.38-2.8,.08-.3,.27-.54,.57-.72,.53-.06,1.16-.12,1.9-.18s1.62-.09,2.66-.07,1.65,.12,1.83,.31,.35,.71,.51,1.53c.16,.82,.32,1.79,.49,2.91,.17,1.12,.32,1.95,.46,2.49,.17,.59,.39,1.21,.68,1.86s.51,1.18,.66,1.58c.15,.4,.2,.69,.15,.89-.06,.2-.44,.33-1.15,.41-.71,.08-1.45,.1-2.21,.07-.76-.03-1.28-.08-1.56-.17-.22-.07-.37-.22-.43-.44-.06-.22-.08-.57-.05-1.03,.03-.46,.04-.73,.02-.82,0-.2,.1-.38,.29-.54s.41-.3,.65-.4,.45-.21,.65-.35,.29-.27,.29-.41c-.03-.28-.17-.36-.44-.23-.1,.06-.29,.17-.57,.36-.21,.14-.38,.24-.5,.31-.2,.12-.39,.2-.58,.23s-.37,.02-.53-.02-.32-.09-.47-.15c-.15-.06-.3-.12-.47-.18-.17-.06-.31-.09-.44-.09-.31-.01-.45,.04-.42,.17,.04,.2,.41,.48,1.11,.86,.28,.14,.47,.35,.58,.64s.13,.57,.07,.86-.14,.54-.26,.78c-.12,.23-.25,.37-.39,.41-.2,.07-.66,.13-1.38,.17-.73,.04-1.47,.02-2.23-.07-.76-.09-1.2-.27-1.31-.53-.12-.25-.11-.67,.05-1.26,.16-.59,.39-1.42,.68-2.5,.29-1.08,.5-2.15,.63-3.19Zm4.48-.61c-.06-.29-.11-.52-.16-.68-.05-.16-.11-.27-.19-.34l-.16-.12s-.1,0-.22,.02c-.12,.03-.2,.05-.24,.06-.1,.04-.17,.11-.23,.19-.06,.08-.08,.19-.08,.31s0,.25,.02,.37c.01,.12,.05,.26,.12,.43,.06,.17,.12,.31,.16,.43,.04,.12,.1,.26,.18,.43,.08,.17,.13,.29,.16,.36,.17,.41,.34,.65,.52,.74s.41,.04,.67-.14c.1-.07,.16-.14,.18-.21,.02-.07,0-.16-.05-.27-.06-.11-.12-.23-.19-.36-.07-.12-.15-.3-.25-.52-.1-.22-.17-.46-.23-.71Z"/><path class="d" d="M14.52,5.4c-.08-.61-.14-1.1-.16-1.46-.02-.36,0-.62,.08-.8,.08-.17,.15-.28,.23-.32,.08-.04,.21-.09,.41-.15,.21-.08,.47-.14,.8-.16,.32-.02,.65-.02,.99,0,.33,.02,.62,.04,.87,.07,.24,.03,.46,.06,.64,.1,.29,.03,.45,.18,.46,.46,.01,.28-.08,.82-.29,1.63-.2,.81-.34,1.81-.43,3-.09,1.19-.09,2.03-.01,2.53,.04,.22,.12,.38,.24,.48,.12,.1,.24,.14,.38,.12,.13-.01,.27,0,.41,.06s.24,.16,.29,.31c.08,.18,.15,.45,.21,.8,.06,.35,.08,.72,.08,1.11s-.06,.76-.17,1.1c-.11,.34-.29,.58-.52,.7-.24,.14-.58,.22-1.03,.25-.45,.03-.9,0-1.36-.08-.46-.08-.88-.24-1.27-.48-.38-.24-.62-.53-.72-.88-.14-.52-.17-1.79-.08-3.83s.07-3.57-.04-4.59Z"/><path class="d" d="M20.07,8.29c-.5-1.31-.36-2.15,.44-2.51,1.38-.25,2.07-.25,2.07,0,0,.08-.16,.32-.48,.71l-.08,.13c-.24,.32-.31,.65-.21,.98,.08,.29,.24,.29,.48,0,.13-.15,.25-.38,.38-.67,.08-.17,.18-.32,.29-.46,.11-.14,.23-.26,.36-.36,.13-.1,.28-.18,.45-.25,.17-.07,.33-.12,.47-.17s.32-.07,.53-.09c.22-.02,.39-.03,.53-.04,.14,0,.33,0,.56,.01,.23,.01,.4,.02,.52,.03,.12,0,.29,.02,.52,.04,.23,.02,.38,.04,.45,.05,.29,.01,.51,.04,.66,.07s.3,.1,.46,.19c.16,.09,.28,.21,.35,.35,.07,.14,.14,.35,.21,.62,.07,.27,.12,.59,.14,.96,.02,.37,.04,.83,.07,1.39,.01,.54,.01,1.04,0,1.48-.01,.44-.05,.83-.12,1.18-.06,.35-.16,.65-.3,.91-.14,.26-.33,.48-.56,.65-.23,.17-.52,.31-.88,.41-.36,.1-.78,.16-1.27,.19-.39,.03-.75,0-1.08-.06-.33-.07-.59-.17-.79-.29-.2-.13-.38-.27-.54-.42-.17-.15-.29-.3-.38-.43s-.18-.24-.29-.33c-.11-.09-.2-.14-.27-.15-.07,0-.17,.04-.31,.14-.14,.14-.21,.28-.22,.42,0,.14,.06,.29,.19,.44,.13,.15,.28,.3,.45,.44,.17,.14,.36,.28,.58,.41,.22,.13,.41,.25,.59,.34s.33,.16,.45,.22c.17,.07,.28,.15,.34,.25,.06,.1,.07,.19,.05,.28-.02,.09-.04,.23-.06,.42s-.02,.37-.01,.55c.04,.28,.05,.51,.02,.68-.03,.17-.15,.31-.37,.41s-.6,.2-1.16,.29c-.57,.07-1.09,.09-1.54,.07-.45-.02-.81-.2-1.06-.52-.25-.33-.34-.81-.27-1.46,.13-.96,.16-2.28,.12-3.95s-.21-2.85-.47-3.55Zm4.92,0c-.12,0-.25,.04-.39,.12-.13,.08-.25,.19-.34,.31-.1,.13-.19,.26-.28,.41-.09,.15-.16,.3-.22,.45-.06,.15-.11,.29-.16,.42-.05,.12-.08,.22-.09,.29l-.04,.13c.2-.24,.36-.38,.5-.43s.33-.08,.57-.1c.24-.02,.5-.09,.78-.2,.24-.1,.41-.23,.52-.4,.11-.17,.15-.33,.11-.48s-.15-.28-.31-.39c-.17-.1-.38-.15-.63-.14Z"/><path class="d" d="M30.72,14.89c-.36-.31-.6-1.43-.72-3.37-.12-1.94-.11-3.84,.02-5.71s.33-2.87,.6-3.03c.81-.17,1.68-.24,2.62-.23s1.49,.08,1.65,.19c.14,.07,.22,.33,.24,.8,.02,.46-.02,.84-.14,1.13-.07,.17-.19,.29-.36,.37-.17,.08-.42,.16-.76,.24-.34,.08-.65,.19-.91,.31-.42,.2-.71,.58-.86,1.15-.11,.43-.06,.65,.15,.65,.15,0,.36-.16,.63-.48,.39-.45,1.03-.8,1.92-1.07s1.72-.39,2.5-.37c.78,.02,1.26,.17,1.42,.43,.24,.38,.45,1.82,.63,4.33s.21,4.02,.08,4.54c-.08,.29-.39,.49-.91,.58s-1.07,.09-1.62,0c-.56-.09-.98-.21-1.26-.37-.15-.1-.25-.52-.27-1.27-.03-.75-.03-1.53,0-2.36,.03-.82-.01-1.57-.12-2.25-.1-.68-.3-1-.6-.97-.25,.01-.43,.23-.52,.65s-.13,.94-.09,1.56c.03,.62,.09,1.24,.16,1.86,.07,.62,.13,1.18,.19,1.69,.06,.5,.07,.81,.04,.92-.06,.21-.31,.38-.75,.51-.45,.13-.96,.17-1.55,.11-.59-.06-1.05-.24-1.4-.53Z"/><path class="d" d="M40.65,9.08c-.2-.13-.25-.66-.16-1.61,.09-.95,.23-1.42,.43-1.4,.59-.49,1.44-.8,2.57-.93,1.12-.13,2.15-.1,3.09,.08,.94,.19,1.49,.46,1.65,.81,.13,.22,.21,.76,.26,1.6s.07,1.67,.07,2.47-.01,1.69-.03,2.67c-.02,.98-.03,1.52-.03,1.61,0,.18-.04,.33-.12,.44-.08,.11-.17,.19-.29,.23-.12,.04-.26,.07-.43,.07-.17,0-.32,0-.47-.02-.15-.02-.3-.04-.46-.06-.16-.02-.28-.03-.37-.03-.29,.01-.49-.09-.58-.31-.09-.22-.1-.47-.03-.75,.07-.28,.11-.54,.12-.79s-.04-.38-.16-.41c-.11-.03-.2,.04-.25,.2-.06,.16-.09,.35-.09,.57,0,.22-.05,.45-.14,.7-.08,.25-.21,.43-.38,.54-.38,.27-1.11,.41-2.2,.43-1.09,.02-1.79-.12-2.12-.43-.18-.22-.31-.69-.39-1.4-.08-.71-.05-1.41,.07-2.09,.13-.68,.33-1.08,.63-1.19,.33-.1,.94-.15,1.81-.17,.87-.01,1.48-.08,1.83-.19,.33-.1,.58-.32,.73-.66,.15-.34,.22-.7,.19-1.08-.03-.38-.11-.71-.25-.98-.14-.27-.23-.31-.27-.15-.01,.04-.04,.15-.06,.33-.08,.61-.2,1.09-.36,1.42-.17,.32-.54,.53-1.13,.64-.59,.1-1.14,.12-1.68,.06-.53-.06-.87-.14-1.03-.22Zm3.25,3.33c.14-.01,.27-.07,.4-.18,.12-.1,.23-.23,.31-.38,.08-.15,.16-.29,.22-.44,.06-.15,.11-.27,.14-.37l.04-.15c-.08,.13-.16,.21-.22,.26-.06,.05-.17,.1-.31,.17-.15,.06-.35,.12-.62,.16-.25,.04-.42,.14-.5,.29s-.07,.3,.04,.43,.28,.2,.5,.2Z"/><path class="d" d="M55.1,8.54c-.38-.6-.56-1.14-.54-1.62,.01-.48,.18-.8,.5-.95,.47-.2,1.18-.32,2.12-.37s1.56,.02,1.86,.22c.1,.08,.17,.19,.22,.31s.08,.3,.09,.51c.01,.22,.02,.43,0,.65s-.01,.53-.02,.93c0,.41-.01,.79-.01,1.15,.01,.32-.02,.64-.1,.94-.08,.31-.16,.53-.24,.67-.08,.14-.18,.31-.3,.52-.17,.24-.23,.39-.18,.47,.05,.08,.28,.1,.7,.07,.4-.01,.69-.3,.87-.87,.17-.57,.25-1.2,.22-1.91-.03-.71-.05-1.39-.05-2.04s0-1.08,.03-1.28c.08-.25,.42-.41,.99-.48,.58-.07,1.17-.03,1.77,.1,.6,.14,.98,.35,1.13,.63,.22,.41,0,1.8-.67,4.2s-1.16,3.83-1.47,4.3c-.14,.24-.58,.4-1.31,.49s-1.46,.11-2.19,.06c-.73-.05-1.19-.14-1.4-.28-.18-.11-.39-.62-.62-1.53-.23-.91-.47-1.88-.73-2.91-.26-1.03-.49-1.7-.68-2.01Z"/><path class="d" d="M75.04,9.56c0,1.55-.51,2.87-1.53,3.97-1.02,1.1-2.25,1.64-3.7,1.64s-2.68-.55-3.71-1.64c-1.03-1.1-1.54-2.42-1.54-3.97s.51-2.87,1.54-3.97c1.03-1.1,2.26-1.64,3.71-1.64s2.68,.55,3.7,1.64c1.02,1.1,1.53,2.42,1.53,3.97Zm-4.94-2.91c-.07,0-.16-.02-.27-.06-.21-.07-.33-.04-.36,.08-.07,.17-.1,.92-.08,2.24,.01,.64,0,1.22-.05,1.74s-.09,.87-.14,1.05-.07,.39-.09,.63c-.02,.24,0,.4,.05,.48,.13,.32,.31,.37,.54,.15,.25-.24,.41-.66,.48-1.26,.38-3.21,.35-4.89-.08-5.05Z"/><path class="d" d="M77.39,11.58c.33,0,.64,.08,.92,.25,.28,.17,.5,.39,.66,.68s.24,.6,.24,.93-.08,.62-.24,.9-.38,.5-.66,.67c-.28,.17-.59,.25-.92,.25-.5,0-.94-.18-1.3-.53-.36-.36-.54-.79-.54-1.29s.18-.96,.54-1.32c.36-.36,.8-.54,1.3-.54Z"/><path class="d" d="M90.19,9.56c0,1.55-.51,2.87-1.53,3.97-1.02,1.1-2.25,1.64-3.7,1.64s-2.68-.55-3.71-1.64c-1.03-1.1-1.54-2.42-1.54-3.97s.51-2.87,1.54-3.97c1.03-1.1,2.26-1.64,3.71-1.64s2.68,.55,3.7,1.64c1.02,1.1,1.53,2.42,1.53,3.97Zm-4.94-2.91c-.07,0-.16-.02-.27-.06-.21-.07-.33-.04-.36,.08-.07,.17-.1,.92-.08,2.24,.01,.64,0,1.22-.05,1.74s-.09,.87-.14,1.05-.07,.39-.09,.63c-.02,.24,0,.4,.05,.48,.13,.32,.31,.37,.54,.15,.25-.24,.41-.66,.48-1.26,.38-3.21,.35-4.89-.08-5.05Z"/><path class="d" d="M92.53,11.58c.33,0,.64,.08,.92,.25,.28,.17,.5,.39,.66,.68s.24,.6,.24,.93-.08,.62-.24,.9-.38,.5-.66,.67c-.28,.17-.59,.25-.92,.25-.5,0-.94-.18-1.3-.53-.36-.36-.54-.79-.54-1.29s.18-.96,.54-1.32c.36-.36,.8-.54,1.3-.54Z"/><path class="d" d="M94.96,8.73c-.01-.17-.03-.38-.05-.63-.02-.25-.05-.49-.07-.7-.03-.22-.05-.43-.06-.64-.01-.21-.01-.39,0-.54,.02-.15,.06-.26,.12-.31,.38-.07,.7-.18,.96-.32s.46-.3,.59-.45c.12-.15,.26-.33,.41-.52,.15-.2,.28-.34,.41-.44,.29-.24,.9-.36,1.83-.38s1.44,.08,1.54,.27c.15,.22,.18,1.75,.08,4.59-.01,.32,.03,1.35,.15,3.09,.11,1.74,.14,2.73,.08,2.96-.07,.2-.46,.32-1.16,.39-.71,.06-1.4,.07-2.09,.03-.69-.04-1.11-.09-1.25-.15-.17-.08-.24-.87-.22-2.35,.02-1.48,.09-2.34,.2-2.58,.06-.12,.34-.26,.86-.4,.52-.14,.87-.29,1.07-.46,.29-.22,.42-.45,.38-.67-.06-.25-.32-.21-.8,.12l-.13,.08c-.56,.45-1.17,.68-1.82,.69-.66,.01-1-.22-1.03-.69Z"/></g></g></g></svg>